<svg xmlns="http://www.w3.org/2000/svg" width="60.074" height="58.27" viewBox="0 0 60.074 58.27">
  <g id="Grupo_1112243" data-name="Grupo 1112243" transform="translate(-0.001 0)">
    <path id="Trazado_885708" data-name="Trazado 885708" d="M59.224,38.14l-6.574-1.867L60.042,6.4V6.389c.005-.022.009-.044.013-.067s.007-.033.009-.05,0-.026,0-.038a1.159,1.159,0,0,0-.033-.422L58.7.865A1.174,1.174,0,0,0,57.268.04L35.32,5.864a6.709,6.709,0,0,0-.973-.682A6.628,6.628,0,0,0,24.81,8.661L10.834,12.366,8.571,3.955a1.174,1.174,0,0,0-1.437-.825L.888,4.791A1.168,1.168,0,0,0,.019,5.883c-.273,8.817,2.65,14.805,5.15,18.276a20.973,20.973,0,0,0,5.666,5.555,1.178,1.178,0,0,0,.9.124l2.41-.642a1.166,1.166,0,0,0,.83-1.429l-2.206-8.2,13.953-3.7q.109.093.222.181L25.26,24.588a.09.09,0,0,0,0,.012l-3.55,17.961,0,.013L20.038,51.01H15.949a1.17,1.17,0,0,0-1.173,1.167v3.76H1.179a1.167,1.167,0,1,0,0,2.334H58.9A1.17,1.17,0,0,0,60.076,57.1V39.262A1.168,1.168,0,0,0,59.224,38.14ZM11.644,27.447c-1.821-1.286-9.377-7.426-9.3-20.629L6.607,5.686l5.8,21.558Zm46.085,12.7v3.735l-6.521,1.852a3.974,3.974,0,0,1-3.234-.743A3.741,3.741,0,0,1,46.5,42.173q-.006-.163,0-.325a3.742,3.742,0,0,1,1.475-2.814,3.976,3.976,0,0,1,1.767-.771l-.858,3.469a1.173,1.173,0,0,0,2.278.557l.927-3.748ZM57.465,5.29l-5.5,1.459A1.167,1.167,0,1,0,52.573,9l4.716-1.252L50.332,35.874a6.328,6.328,0,0,0-3.794,1.313,6.069,6.069,0,0,0-2.384,4.567c-.006.17-.006.341,0,.512a6.068,6.068,0,0,0,2.384,4.565A6.328,6.328,0,0,0,51.74,48l.073-.018.278-.079v8.031h-4.78v-3.76a1.17,1.17,0,0,0-1.173-1.167H41.96L38.385,32.923a.006.006,0,0,0,0,0l-2.9-14.693,0-.009L35.061,16.1a6.624,6.624,0,0,0,2.215-3.04L42.409,11.7a1.167,1.167,0,1,0-.6-2.255l-4.158,1.1a6.584,6.584,0,0,0-.731-2.694L56.74,2.6ZM31.9,17.406a6.794,6.794,0,0,0,.869-.175l.116-.032.153.774-4.855,3.915.93-4.707a6.557,6.557,0,0,0,2.772.226Zm7.667,33.6H25.8l12.492-6.47Zm-1.856-9.393H26.707l9.72-6.5ZM35.811,32l-7.616-.022L34.8,26.9Zm-1.648-8.339H29.718l3.833-3.091ZM27.374,25.99h4.774L26.52,30.311ZM25.732,34.3l7.675.022-8.849,5.919Zm-1.907,9.65h10.52l-11.72,6.071ZM29.931,6.777a4.31,4.31,0,0,1,1.111-.146,4.3,4.3,0,0,1,3.091,1.323l.006.008a4.235,4.235,0,0,1-.747,6.461,4.288,4.288,0,0,1-5.745-.955,4.24,4.24,0,0,1,2.283-6.691Zm-5.507,4.4a6.583,6.583,0,0,0,.717,2.7l-12.975,3.44-.725-2.7Zm-7.3,44.759V53.343H44.964v2.593Zm37.316,0v-8.7l3.291-.934v9.632Zm0,0" transform="translate(0 0)" fill="#12263f"/>
    <path id="Trazado_885709" data-name="Trazado 885709" d="M392.1,71.544a1.174,1.174,0,0,0,2.205-.108,1.172,1.172,0,0,0-.408-1.264,1.192,1.192,0,0,0-1.4-.023A1.173,1.173,0,0,0,392.1,71.544Zm0,0" transform="translate(-346.015 -61.774)" fill="#12263f"/>
  </g>
</svg>
