<svg xmlns="http://www.w3.org/2000/svg" width="72" height="72" viewBox="0 0 72 72">
  <g id="Grupo_1112247" data-name="Grupo 1112247" transform="translate(0 0.001)">
    <g id="Grupo_1112246" data-name="Grupo 1112246" transform="translate(0 -0.001)">
      <path id="Trazado_885719" data-name="Trazado 885719" d="M69.808,65.382h-.549l-5.68-9.157a34.705,34.705,0,0,1-5.218-18.309V25.246a2.478,2.478,0,0,0-2.475-2.475H52.481a5.857,5.857,0,0,1,.56-3.875,4.338,4.338,0,0,1,3.15-1.826l.207-.033c1.562-.246,6.316-1,7.555-5.273a3.971,3.971,0,0,1,3.2-3.026,2.84,2.84,0,0,1,2.866,1.672A1.055,1.055,0,1,0,71.871,9.4a4.953,4.953,0,0,0-4.946-2.759,6.062,6.062,0,0,0-5,4.536c-.865,2.989-4.492,3.561-5.857,3.776l-.225.036a6.337,6.337,0,0,0-4.6,2.8,7.747,7.747,0,0,0-.9,4.983H44.1c-.308-1.328-.662-4.189,1.608-5.369a1.055,1.055,0,0,0-.973-1.872c-3,1.561-3.235,4.895-2.8,7.241H38.841a2.476,2.476,0,0,0-.366.03V16.723a2.477,2.477,0,0,0-2.287-2.465,4.627,4.627,0,0,1,2.249-1.8,13.321,13.321,0,0,1,3.07-.638c2.622-.34,5.593-.725,8.146-4.412,2.915-4.211,5.574-4.891,8.269-5.262a1.055,1.055,0,0,0-.287-2.09c-2.918.4-6.317,1.24-9.716,6.151-2.018,2.916-4.18,3.2-6.682,3.52a15.112,15.112,0,0,0-3.554.761,6.756,6.756,0,0,0-3.857,3.762H27.947a5.312,5.312,0,0,1,1.976-1.315,1.055,1.055,0,1,0-.765-1.966,7.163,7.163,0,0,0-3.78,3.28H18.941a6.318,6.318,0,0,1,3.7-3.357c.794-.3,1.8-.609,2.872-.936C30.385,8.466,37.055,6.426,37.055,1.1a1.055,1.055,0,0,0-2.109,0c0,3.767-5.808,5.543-10.048,6.839-1.1.337-2.145.656-3,.981a8.265,8.265,0,0,0-5.2,5.329h-.585a2.478,2.478,0,0,0-2.475,2.475v5.844a1.055,1.055,0,0,0,2.109,0V20.9H36.366V37.916A36.812,36.812,0,0,0,41.9,57.336l4.989,8.046H5.222l4.99-8.045a36.812,36.812,0,0,0,5.534-19.42V27.488a1.055,1.055,0,0,0-2.109,0V37.916A34.7,34.7,0,0,1,8.42,56.225L2.74,65.382H2.191A2.194,2.194,0,0,0,0,67.574v2.272a2.193,2.193,0,0,0,2.191,2.191H19.744a1.055,1.055,0,1,0,0-2.109H2.191a.082.082,0,0,1-.082-.082V67.574a.082.082,0,0,1,.082-.083H69.808a.082.082,0,0,1,.082.083v2.272a.082.082,0,0,1-.082.082H24.665a1.055,1.055,0,1,0,0,2.109H69.808A2.193,2.193,0,0,0,72,69.846V67.574a2.194,2.194,0,0,0-2.191-2.192ZM15.746,18.793v-2.07a.366.366,0,0,1,.366-.366H36a.366.366,0,0,1,.366.366v2.07ZM43.692,56.225a34.705,34.705,0,0,1-5.218-18.309V29.425h5.242a1.055,1.055,0,1,0,0-2.109H38.475V25.251s0,0,0-.005a.366.366,0,0,1,.366-.366H55.887a.366.366,0,0,1,.366.366v2.07H48.639a1.055,1.055,0,1,0,0,2.109h7.613v8.491a36.812,36.812,0,0,0,5.534,19.42l4.99,8.045H49.371Z" transform="translate(0 -0.037)" fill="#12263f"/>
      <path id="Trazado_885720" data-name="Trazado 885720" d="M126.1,266.8a1.905,1.905,0,0,0-1.95,2.085,8.621,8.621,0,0,0,3.556,6.159,1.906,1.906,0,0,0,2.781-.646l1.631-3.006a3.3,3.3,0,0,0,1.245,0l1.631,3.007a1.9,1.9,0,0,0,2.781.646,8.621,8.621,0,0,0,3.556-6.159,1.9,1.9,0,0,0-.5-1.477,1.919,1.919,0,0,0-1.449-.608l-3.549.094a3.331,3.331,0,0,0-.576-.946l1.872-3.052a1.905,1.905,0,0,0-.831-2.731,8.623,8.623,0,0,0-7.112,0,1.905,1.905,0,0,0-.831,2.731l1.872,3.051a3.326,3.326,0,0,0-.576.946Zm2.644,6.387a6.517,6.517,0,0,1-2.467-4.273l3.255.086a3.326,3.326,0,0,0,.747,1.358Zm2.779-5.064a1.218,1.218,0,1,1,1.218,1.218A1.22,1.22,0,0,1,131.518,268.12Zm6.869,3.17a6.449,6.449,0,0,1-1.653,1.894l-1.535-2.829a3.324,3.324,0,0,0,.747-1.358l3.255-.086A6.447,6.447,0,0,1,138.386,271.29Zm-5.65-9.786a6.451,6.451,0,0,1,2.467.485l-1.766,2.878a3.312,3.312,0,0,0-1.4,0l-1.766-2.878A6.451,6.451,0,0,1,132.736,261.5Z" transform="translate(-106.68 -222.918)" fill="#12263f"/>
      <path id="Trazado_885721" data-name="Trazado 885721" d="M353.307,58.238a6.961,6.961,0,0,1-2.089,1.6,1.055,1.055,0,1,0,.966,1.875,9.1,9.1,0,0,0,2.648-2.015c.686-.716,1.03-1.075,2.915-1.134a1.055,1.055,0,1,0-.066-2.108C355.124,56.534,354.289,57.212,353.307,58.238Z" transform="translate(-301.336 -48.514)" fill="#12263f"/>
      <path id="Trazado_885722" data-name="Trazado 885722" d="M278.415,6.208a1.051,1.051,0,0,0,.366-.066c4.1-1.52,4.617-4.793,4.637-4.931a1.06,1.06,0,0,0-.892-1.2A1.049,1.049,0,0,0,281.333.9c-.015.089-.4,2.2-3.284,3.267a1.055,1.055,0,0,0,.367,2.044Z" transform="translate(-238.357 0.001)" fill="#12263f"/>
    </g>
  </g>
</svg>
