<svg xmlns="http://www.w3.org/2000/svg" xmlns:xlink="http://www.w3.org/1999/xlink" width="295" height="318.233" viewBox="0 0 295 318.233">
  <defs>
    <clipPath id="clip-path">
      <rect id="Rectángulo_408091" data-name="Rectángulo 408091" width="265.166" height="307.043" fill="none"/>
    </clipPath>
    <clipPath id="clip-path-3">
      <rect id="Rectángulo_408082" data-name="Rectángulo 408082" width="32.107" height="79.805" fill="none"/>
    </clipPath>
    <clipPath id="clip-path-4">
      <rect id="Rectángulo_408083" data-name="Rectángulo 408083" width="31.463" height="78.205" fill="none"/>
    </clipPath>
    <clipPath id="clip-path-5">
      <rect id="Rectángulo_408086" data-name="Rectángulo 408086" width="35.97" height="31.471" fill="none"/>
    </clipPath>
    <clipPath id="clip-path-6">
      <rect id="Rectángulo_408087" data-name="Rectángulo 408087" width="35.994" height="44.06" fill="none"/>
    </clipPath>
    <clipPath id="clip-path-7">
      <rect id="Rectángulo_408088" data-name="Rectángulo 408088" width="56.824" height="42.936" fill="none"/>
    </clipPath>
    <clipPath id="clip-path-8">
      <rect id="Rectángulo_408089" data-name="Rectángulo 408089" width="145.824" height="99.149" fill="none"/>
    </clipPath>
  </defs>
  <g id="Grupo_1112267" data-name="Grupo 1112267" transform="translate(-1156.533 -2638.334)">
    <path id="Trazado_877733" data-name="Trazado 877733" d="M0,0H295V318.233H0Z" transform="translate(1156.533 2638.334)" fill="#edf5e8"/>
    <g id="Grupo_1111912" data-name="Grupo 1111912" transform="translate(1171.45 2649.523)">
      <g id="Grupo_1111911" data-name="Grupo 1111911" clip-path="url(#clip-path)">
        <g id="Grupo_1111910" data-name="Grupo 1111910">
          <g id="Grupo_1111909" data-name="Grupo 1111909" clip-path="url(#clip-path)">
            <path id="Trazado_885426" data-name="Trazado 885426" d="M252.2,158.309A123.076,123.076,0,1,1,129.12,35.233,123.076,123.076,0,0,1,252.2,158.309" transform="translate(-2.048 -11.938)" fill="#e6f2f9"/>
            <path id="Trazado_885427" data-name="Trazado 885427" d="M285.474,124.228a7.779,7.779,0,0,0,14.693-4.53c2.184,2.78,7.473,1.719,8.417-1.689a35.555,35.555,0,0,0,23.129,8.159c5.172-.086,10.678-1.544,13.99-5.518,3.974-4.768,3.618-12.219.123-17.35s-9.533-8.1-15.659-9.1c1.963-10.006-4.858-20.943-14.708-23.581s-21.224,3.424-24.526,13.072a14.314,14.314,0,0,0-26.191,11.234c-5.067-3.292-12.536-1.736-16.19,3.076-3.3,4.341-3.289,11.052.423,15.042s10.873,4.28,14.549.257a6.428,6.428,0,0,0,3.288,12.376c4.231-.736,4.78-9.181,6.148-6.616,1.6,3,8.311,12,9.305,14.506,1.3-2.978,2.17-6.244,3.209-9.337" transform="translate(-83.399 -23.718)" fill="#b6c1c6"/>
            <path id="Trazado_885428" data-name="Trazado 885428" d="M66.135,118.508a7.177,7.177,0,0,1-11.361-6.964,14.272,14.272,0,0,1-15.059-21.65A21.968,21.968,0,0,1,43.6,64.5a21.968,21.968,0,0,1,25.482-3.266c1.706-6.753,6.809-12.322,12.907-15.689s13.122-4.727,20.075-5.141c6.692-.4,13.741.132,19.459,3.63s9.621,10.651,7.6,17.041c6.225-5.675,14.051-9.837,22.434-10.665s17.29,1.975,22.917,8.245,7.355,16.086,3.291,23.465-14.128,11.123-21.658,7.347a32.793,32.793,0,0,1-49.3,12.743c-5.522,9.95-19.349,14.238-29.531,9.158,1.135,3.519-2.955,7.461-6.43,6.2.431.157-.13,5.982-.219,6.631-2.57-.3-3.4-3.523-4.495-5.688" transform="translate(-12.638 -13.652)" fill="#b6c1c6"/>
            <path id="Trazado_885429" data-name="Trazado 885429" d="M47.74,181.912a7.356,7.356,0,1,1-7.356-7.356,7.356,7.356,0,0,1,7.356,7.356" transform="translate(-11.191 -59.146)" fill="#cce5f2"/>
            <path id="Trazado_885430" data-name="Trazado 885430" d="M296.641,39.138a5.927,5.927,0,1,1-5.927-5.927,5.928,5.928,0,0,1,5.927,5.927" transform="translate(-96.497 -11.253)" fill="#cce5f2"/>
            <path id="Trazado_885431" data-name="Trazado 885431" d="M351.785,172.287a4.123,4.123,0,1,1-4.124-4.124,4.124,4.124,0,0,1,4.124,4.124" transform="translate(-116.404 -56.98)" fill="#cce5f2"/>
            <path id="Trazado_885432" data-name="Trazado 885432" d="M5.552,111.968a2.776,2.776,0,1,1-2.776-2.776,2.776,2.776,0,0,1,2.776,2.776" transform="translate(0 -36.998)" fill="#cce5f2"/>
            <path id="Trazado_885433" data-name="Trazado 885433" d="M69.024,43.572A4.123,4.123,0,1,1,64.9,39.448a4.124,4.124,0,0,1,4.124,4.124" transform="translate(-20.594 -13.367)" fill="#cce5f2"/>
            <path id="Trazado_885434" data-name="Trazado 885434" d="M135.943,386.755l-26.265-6.348,3.168-23.52S90.772,327,86.375,322.521,69.268,252.7,69.994,249.768c.264-1.033,2.09-1.4,4.453-.956,4.321.813,10.432,4.32,12.016,11.334.549,2.43,11.609,30.111,12.971,33.529-.307-.857,36.509,93.08,36.509,93.08" transform="translate(-23.706 -84.245)" fill="#b77158"/>
            <path id="Trazado_885435" data-name="Trazado 885435" d="M134.733,387.344h-3.379l-25.078-2.936-8.919-1.045,5.137-38.116S98.62,340,93.787,333.571c-6.691-8.912-15.213-20.093-17.765-22.691-2.473-2.512-7.584-24.318-11.445-43.418-.251-1.223-.489-2.433-.727-3.623-1.732-8.76-3.134-16.615-3.8-21.3a21.948,21.948,0,0,1-.4-4.417c.264-1.031,2.089-1.4,4.45-.952a14.749,14.749,0,0,1,1.964.522,15.347,15.347,0,0,1,9.468,8.86,14.561,14.561,0,0,1,.582,1.95c.026.112.079.291.152.516.377,1.177,1.349,3.788,2.6,7.055.192.509.39,1.031.6,1.574,1.223,3.16,2.631,6.77,4,10.235.569,1.441,1.124,2.856,1.66,4.205.218.555.436,1.1.648,1.626.033.1.073.192.112.291,1.554,3.927,2.79,7.015,3.193,8.02,0,0,.218.489.635,1.435,2.109,4.82,9.217,21.21,17.19,39.617,2.77,6.407,5.66,13.071,8.476,19.577,5.25,12.112,10.248,23.67,13.878,32.053.013.033.026.06.04.086,2.85,6.585,4.846,11.193,5.435,12.549" transform="translate(-20.2 -80.301)" fill="#a86147"/>
            <path id="Trazado_885436" data-name="Trazado 885436" d="M220.716,386.755l26.265-6.348-3.168-23.52s22.074-29.89,26.472-34.365,17.106-69.818,16.38-72.754c-.263-1.033-2.089-1.4-4.452-.956-4.32.813-10.432,4.32-12.015,11.334-.549,2.43-11.609,30.111-12.972,33.529.307-.857-36.509,93.08-36.509,93.08" transform="translate(-74.787 -84.245)" fill="#b77158"/>
            <path id="Trazado_885437" data-name="Trazado 885437" d="M291.928,242.544c-.2,1.421-.476,3.134-.807,5.084-.754,4.476-1.8,10.162-3.015,16.291-3.921,19.848-9.521,44.291-12.152,46.962-2.559,2.6-11.088,13.792-17.779,22.7-4.82,6.426-8.694,11.663-8.694,11.663l5.137,38.116L245.7,384.41l-25.071,2.936H217.25c.588-1.349,2.565-5.924,5.4-12.469a.4.4,0,0,1,.033-.079c3.61-8.344,8.6-19.861,13.831-31.941,10.929-25.23,22.929-52.933,25.752-59.392.41-.952.628-1.441.628-1.435.417-1.031,1.7-4.251,3.306-8.311.212-.529.43-1.071.648-1.626,1.071-2.7,2.241-5.666,3.379-8.569.357-.912.707-1.818,1.058-2.7.053-.139.106-.284.165-.423.443-1.15.879-2.268,1.289-3.332.258-.674.509-1.329.747-1.957q.317-.823.6-1.567c.985-2.6,1.66-4.476,1.785-5.031a13.75,13.75,0,0,1,.588-1.957,15.53,15.53,0,0,1,11.425-9.375,9.6,9.6,0,0,1,2.043-.178c1.322.033,2.228.423,2.413,1.131a21.7,21.7,0,0,1-.41,4.417" transform="translate(-73.613 -80.303)" fill="#a86147"/>
            <path id="Trazado_885438" data-name="Trazado 885438" d="M213.452,225.582V214.037h58V253.2l-58-6.218Z" transform="translate(-72.326 -72.524)" fill="#007cbe"/>
            <rect id="Rectángulo_408072" data-name="Rectángulo 408072" width="45.684" height="9.542" transform="translate(141.126 131.972)" fill="#004b72"/>
            <rect id="Rectángulo_408073" data-name="Rectángulo 408073" width="2.644" height="4.368" transform="translate(150.445 134.864)" fill="#e2912f"/>
            <rect id="Rectángulo_408074" data-name="Rectángulo 408074" width="2.644" height="4.368" transform="translate(155.009 134.864)" fill="#e2912f"/>
            <rect id="Rectángulo_408075" data-name="Rectángulo 408075" width="2.644" height="4.368" transform="translate(159.575 134.864)" fill="#e2912f"/>
            <rect id="Rectángulo_408076" data-name="Rectángulo 408076" width="2.644" height="9.816" transform="translate(150.445 122.766)" fill="#004b72"/>
            <rect id="Rectángulo_408077" data-name="Rectángulo 408077" width="2.644" height="9.816" transform="translate(155.009 122.766)" fill="#004b72"/>
            <rect id="Rectángulo_408078" data-name="Rectángulo 408078" width="2.644" height="9.816" transform="translate(159.575 122.766)" fill="#004b72"/>
            <rect id="Rectángulo_408079" data-name="Rectángulo 408079" width="3.035" height="19.984" transform="translate(166.014 146.347)" fill="#004b72"/>
            <rect id="Rectángulo_408080" data-name="Rectángulo 408080" width="3.035" height="19.984" transform="translate(174.753 146.347)" fill="#004b72"/>
            <rect id="Rectángulo_408081" data-name="Rectángulo 408081" width="3.035" height="19.984" transform="translate(183.491 146.347)" fill="#004b72"/>
            <path id="Trazado_885439" data-name="Trazado 885439" d="M97.671,243.235l-32.107-.721.633-7.523L69.647,194.2l.167-2,1.32-15.53.255-3.018.862-10.224H88.687l1.153,10.224.334,3.018,1.751,15.53.229,2Z" transform="translate(-22.216 -55.377)" fill="#004b72"/>
            <path id="Trazado_885440" data-name="Trazado 885440" d="M93.029,181.912H73.988l.255-3.018H92.694Z" transform="translate(-25.07 -60.616)" fill="#007cbe"/>
            <path id="Trazado_885441" data-name="Trazado 885441" d="M94.246,208.945H71.739l.167-2H94.018Z" transform="translate(-24.308 -70.122)" fill="#007cbe"/>
            <g id="Grupo_1111893" data-name="Grupo 1111893" transform="translate(43.348 108.054)" opacity="0.4" style="mix-blend-mode: multiply;isolation: isolate">
              <g id="Grupo_1111892" data-name="Grupo 1111892">
                <g id="Grupo_1111891" data-name="Grupo 1111891" clip-path="url(#clip-path-3)">
                  <path id="Trazado_885442" data-name="Trazado 885442" d="M97.671,243.235l-32.107-.721.633-7.523.161-.075a28.57,28.57,0,0,0,15.955-22.651,255.3,255.3,0,0,0,.892-48.833h5.482l1.153,10.224.334,3.018,1.751,15.53.229,2Z" transform="translate(-65.564 -163.43)" fill="#b8a760"/>
                </g>
              </g>
            </g>
            <path id="Trazado_885443" data-name="Trazado 885443" d="M315.649,237.811l-31.463-.707.621-7.373,3.38-39.973.164-1.957,1.293-15.219.25-2.957.845-10.019h16.107l1.129,10.019.328,2.957,1.716,15.219.224,1.957Z" transform="translate(-96.293 -54.081)" fill="#004b72"/>
            <path id="Trazado_885444" data-name="Trazado 885444" d="M311.1,177.718H292.442l.25-2.957h18.081Z" transform="translate(-99.091 -59.216)" fill="#007cbe"/>
            <path id="Trazado_885445" data-name="Trazado 885445" d="M312.294,204.209H290.238l.163-1.957h21.668Z" transform="translate(-98.344 -68.531)" fill="#007cbe"/>
            <g id="Grupo_1111896" data-name="Grupo 1111896" transform="translate(187.893 105.525)" opacity="0.3" style="mix-blend-mode: multiply;isolation: isolate">
              <g id="Grupo_1111895" data-name="Grupo 1111895">
                <g id="Grupo_1111894" data-name="Grupo 1111894" clip-path="url(#clip-path-4)">
                  <path id="Trazado_885446" data-name="Trazado 885446" d="M315.65,237.811l-31.463-.707.621-7.373.157-.074a28,28,0,0,0,15.635-22.2,250.139,250.139,0,0,0,.874-47.854h5.372l1.129,10.019.328,2.957,1.716,15.219.224,1.957Z" transform="translate(-284.186 -159.606)" fill="#361613"/>
                </g>
              </g>
            </g>
            <path id="Trazado_885447" data-name="Trazado 885447" d="M101.066,256.935v-38.81h51.875v32.368Z" transform="translate(-34.245 -73.909)" fill="#006398"/>
            <rect id="Rectángulo_408084" data-name="Rectángulo 408084" width="46.901" height="6.573" transform="translate(63.991 139.145)" fill="#007cbe"/>
            <path id="Trazado_885448" data-name="Trazado 885448" d="M176.327,227.183l-24.266,1.942-24.267-1.942,5.835-15.982,9.27-25.39v-6.7h18.33v6.7l9.263,25.39Z" transform="translate(-43.302 -60.691)" fill="#004b72"/>
            <path id="Trazado_885449" data-name="Trazado 885449" d="M176.327,243.627l-24.266,1.942-24.267-1.942,5.835-15.982h36.863Z" transform="translate(-43.302 -77.135)" fill="#007cbe"/>
            <rect id="Rectángulo_408085" data-name="Rectángulo 408085" width="20.345" height="8.625" transform="translate(98.346 111.734)" fill="#007cbe"/>
            <path id="Trazado_885450" data-name="Trazado 885450" d="M274.931,119.006c-3.415-4.585-8.911-7.09-14.315-8.969s-11.057-3.357-15.751-6.631c-7.817-5.445-14.223-19.952-4.226-25.6a13.975,13.975,0,0,1,2.489-1.111c4.668-1.587,9.871-.518,14.339,1.57a33.422,33.422,0,0,1,17.463,40.739" transform="translate(-79.803 -25.73)" fill="#657d55"/>
            <g id="Grupo_1111899" data-name="Grupo 1111899" transform="translate(160.837 50.205)" opacity="0.5" style="mix-blend-mode: soft-light;isolation: isolate">
              <g id="Grupo_1111898" data-name="Grupo 1111898">
                <g id="Grupo_1111897" data-name="Grupo 1111897" clip-path="url(#clip-path-5)">
                  <path id="Trazado_885451" data-name="Trazado 885451" d="M279.233,107.405a77.189,77.189,0,0,0-4.05-8.569c-3.784-6.773-9-12.953-15.835-16.645a31.03,31.03,0,0,0-8.393-3.057c-2.23-.46-5.829.083-7.692-1.328a14,14,0,0,1,2.489-1.111c4.668-1.587,9.871-.518,14.339,1.57a33.143,33.143,0,0,1,19.142,29.139" transform="translate(-243.264 -75.935)" fill="#f3ebda"/>
                </g>
              </g>
            </g>
            <path id="Trazado_885452" data-name="Trazado 885452" d="M156.552,43.952c-.075.034-.15.075-.225.108-5.8,2.782-13.713.961-17.179-4.643-3.566-5.763-2.163-13.229-3.775-19.818-1.821-7.466-7.366-13.363-12.7-18.891.6-.067,1.211-.134,1.821-.192,7.892-.8,16.219-1.178,22.975,2.839,6.247,3.717,10,10.69,11.483,17.814,1.161,5.6,3.734,19.685-2.4,22.783" transform="translate(-41.565 0)" fill="#87a771"/>
            <g id="Grupo_1111902" data-name="Grupo 1111902" transform="translate(82.925)" opacity="0.5" style="mix-blend-mode: soft-light;isolation: isolate">
              <g id="Grupo_1111901" data-name="Grupo 1111901">
                <g id="Grupo_1111900" data-name="Grupo 1111900" clip-path="url(#clip-path-6)">
                  <path id="Trazado_885453" data-name="Trazado 885453" d="M157.485,43.952c-.075.034-.15.075-.225.108a10.733,10.733,0,0,1-.793-4.543c0-6.1-.2-12.269-1.821-18.157s-4.793-11.517-9.771-15.049a25.789,25.789,0,0,0-8.769-3.85c-3.057-.768-6.581-.485-9.521-1.428a5.632,5.632,0,0,1-1.161-.518c7.892-.8,16.219-1.178,22.975,2.839,6.247,3.717,10,10.69,11.483,17.814,1.161,5.6,3.734,19.685-2.4,22.783" transform="translate(-125.423 0)" fill="#f3ebda"/>
                </g>
              </g>
            </g>
            <path id="Trazado_885454" data-name="Trazado 885454" d="M179.569,125.783a14.3,14.3,0,0,1-2.43,3.917c-6.448,7.349-20.094,3.992-26.316-1.72-6.464-5.921-9.7-14.473-12.887-22.633-2.238-5.729-4.694-11.617-8.352-16.477a29.221,29.221,0,0,0-5.386-5.554c8.861,0,19.292-1.445,28.412.743s17.4,11.2,23.259,18.532a25.176,25.176,0,0,1,4.819,11.45,21.588,21.588,0,0,1-1.119,11.742" transform="translate(-42.083 -28.072)" fill="#657d55"/>
            <g id="Grupo_1111905" data-name="Grupo 1111905" transform="translate(82.114 54.775)" opacity="0.5" style="mix-blend-mode: soft-light;isolation: isolate">
              <g id="Grupo_1111904" data-name="Grupo 1111904">
                <g id="Grupo_1111903" data-name="Grupo 1111903" clip-path="url(#clip-path-7)">
                  <path id="Trazado_885455" data-name="Trazado 885455" d="M179.569,125.783c-1.745-14.766-19.234-30.592-25.2-35.52-6.405-5.295-30.174-6.948-30.174-6.948,8.861,0,19.292-1.445,28.412.743s17.4,11.2,23.259,18.532a25.176,25.176,0,0,1,4.819,11.45,21.588,21.588,0,0,1-1.119,11.742" transform="translate(-124.197 -82.847)" fill="#f3ebda"/>
                </g>
              </g>
            </g>
            <path id="Trazado_885456" data-name="Trazado 885456" d="M194.964,176.555a2.089,2.089,0,0,1-2-1.49c-2.627-8.762-2.241-19.113,1.182-31.645,1.117-4.09,2.456-8.165,3.749-12.1a168.622,168.622,0,0,0,5.033-17.411,83.235,83.235,0,0,0-10.71-60.758c-5.781-9.268-4.088-21.953-.576-30.735,2.036-5.09,8.36-6.44,16.921-3.61,4.863,1.608,8.633,3.952,11.2,6.967,3.33,3.9,4.548,9.021,3.181,13.354a2.083,2.083,0,0,1-.834,1.109A28.173,28.173,0,0,1,204.9,44.664a2.087,2.087,0,0,1-1.9-1.508,15.225,15.225,0,0,1-.833-6.182c.317-2.417,1.933-5.129,4.824-5.74a5.556,5.556,0,0,1,6.384,6.433,2.088,2.088,0,1,1-4.078-.9,1.434,1.434,0,0,0-1.443-1.453,2.547,2.547,0,0,0-1.547,2.2,8.289,8.289,0,0,0,.3,3.014,23.82,23.82,0,0,0,12.536-3.358,10.529,10.529,0,0,0-2.558-8.7c-2.067-2.425-5.209-4.346-9.338-5.711-4.584-1.516-10.407-2.113-11.732,1.2-2.988,7.473-4.718,19.022.242,26.974a87.445,87.445,0,0,1,11.252,63.834,171.64,171.64,0,0,1-5.15,17.848c-1.278,3.891-2.6,7.914-3.688,11.9-3.255,11.919-3.64,21.245-1.211,29.347a2.088,2.088,0,0,1-1.4,2.6,2.058,2.058,0,0,1-.6.089" transform="translate(-63.849 -5.878)" fill="#6c4f22"/>
            <path id="Trazado_885457" data-name="Trazado 885457" d="M200.431,162a1.673,1.673,0,0,1-1.546-1.037,44.994,44.994,0,0,0-16.423-20.1,1.67,1.67,0,1,1,1.859-2.776,48.386,48.386,0,0,1,17.656,21.6A1.671,1.671,0,0,1,200.431,162" transform="translate(-61.574 -46.695)" fill="#6c4f22"/>
            <path id="Trazado_885458" data-name="Trazado 885458" d="M213.884,108.512a1.671,1.671,0,0,1-1.535-2.328c2.865-6.694,13.3-18.65,23.9-18.65a1.67,1.67,0,1,1,0,3.341c-8.245,0-18,10.005-20.83,16.624a1.671,1.671,0,0,1-1.537,1.014" transform="translate(-71.906 -29.66)" fill="#6c4f22"/>
            <path id="Trazado_885459" data-name="Trazado 885459" d="M182.752,60.072l-.085,0A25.424,25.424,0,0,1,158.7,37.8a1.671,1.671,0,1,1,3.316-.411,22.081,22.081,0,0,0,20.814,19.342,1.67,1.67,0,0,1-.082,3.339" transform="translate(-53.771 -12.173)" fill="#6c4f22"/>
            <path id="Trazado_885460" data-name="Trazado 885460" d="M227.432,91.862a1.669,1.669,0,0,1-1.368-.709,11.074,11.074,0,0,1,1.057-13.678,1.671,1.671,0,0,1,2.406,2.319,7.741,7.741,0,0,0-.73,9.438,1.67,1.67,0,0,1-1.365,2.631" transform="translate(-75.963 -26.078)" fill="#6c4f22"/>
            <path id="Trazado_885461" data-name="Trazado 885461" d="M195.125,140.348a1.6,1.6,0,0,1-.223-.015,1.669,1.669,0,0,1-1.435-1.876,36.236,36.236,0,0,0-1.829-17,1.67,1.67,0,1,1,3.142-1.135,39.575,39.575,0,0,1,2,18.577,1.67,1.67,0,0,1-1.653,1.451" transform="translate(-64.9 -40.395)" fill="#6c4f22"/>
            <path id="Trazado_885462" data-name="Trazado 885462" d="M108.424,96.853c1.517,2.871,1.965,6.165,2.648,9.34s1.712,6.45,4.061,8.693a18.915,18.915,0,0,1-21.757-12.672,11.114,11.114,0,0,1,.11-8.2c3.5-7.248,12.222-2.3,14.939,2.836" transform="translate(-31.392 -30.621)" fill="#657d55"/>
            <path id="Trazado_885463" data-name="Trazado 885463" d="M104.366,105.727a.986.986,0,0,1-.409-.325,42.7,42.7,0,0,1-8.183-26.133.99.99,0,1,1,1.979.049,40.707,40.707,0,0,0,7.8,24.915.99.99,0,0,1-1.189,1.494" transform="translate(-32.448 -26.532)" fill="#6c4f22"/>
            <path id="Trazado_885464" data-name="Trazado 885464" d="M249.216,135.7c3.193,2.588,5.351,6.2,7.724,9.553s5.2,6.655,9.047,8.1a23.937,23.937,0,0,1-31.619-3.931c-2.335-2.668-4.112-6.053-3.947-9.594.472-10.175,13.078-8.758,18.795-4.126" transform="translate(-78.072 -44.781)" fill="#657d55"/>
            <path id="Trazado_885465" data-name="Trazado 885465" d="M248.778,148.018a1.25,1.25,0,0,1-.7-.212,60.267,60.267,0,0,1-18.855-20.349,1.253,1.253,0,1,1,2.182-1.232,57.743,57.743,0,0,0,18.068,19.5,1.253,1.253,0,0,1-.7,2.294" transform="translate(-77.616 -42.554)" fill="#6c4f22"/>
            <path id="Trazado_885466" data-name="Trazado 885466" d="M88.762,249.366c4.418-1.761,9.28-2.391,13.462-4.656,4.525-2.45,7.87-6.6,12.068-9.578,5.764-4.087,12.841-5.771,19.723-7.37,7.477-1.737,15.043-3.484,22.718-3.369,10.659.161,20.9,3.894,30.906,7.582,12.5,4.609,29.711,13.186,40.617,20.844-8.4,7.975-25.886,6.9-36.834,3.123-5.95-2.052-11.151-5.812-16.884-8.412a47.242,47.242,0,0,0-40.661,1.089c-9.119,4.739-16.511,12.409-25.816,16.77-6.837,3.2-22.965,6.8-29.718,2.826-8.8-5.172,2.237-15.59,10.419-18.851" transform="translate(-25.448 -76.032)" fill="#657d55"/>
            <path id="Trazado_885467" data-name="Trazado 885467" d="M203.741,330.815c-18.072,20.884-63.765,27.653-98.748,2.828a71.867,71.867,0,0,1-19.82-21.908c-7.915-13.295-11.856-28.53-11.092-41.28,1.244-20.868,35.43-14.3,35.43-14.3s9.589-11.669,36.389-18.844,55.029,14.871,55.029,14.871c4.787-2.8,11.767-3.21,17.772-1.771,5.363,1.275,9.954,4.023,11.539,7.841,3.372,8.126-11.9,55.7-26.5,72.566" transform="translate(-25.07 -79.923)" fill="#662b13"/>
            <g id="Grupo_1111908" data-name="Grupo 1111908" transform="translate(59.819 170.484)" opacity="0.4" style="mix-blend-mode: multiply;isolation: isolate">
              <g id="Grupo_1111907" data-name="Grupo 1111907">
                <g id="Grupo_1111906" data-name="Grupo 1111906" clip-path="url(#clip-path-8)">
                  <path id="Trazado_885468" data-name="Trazado 885468" d="M209.328,338.264c-18.072,20.884-63.765,27.653-98.748,2.828a71.867,71.867,0,0,1-19.82-21.908c-.106-.764-.2-1.528-.284-2.292,14.57,13.44,36.324,17.1,55.729,13.059s36.762-14.9,52.088-27.458c7.549-6.192,14.822-12.969,19.82-21.355a43.544,43.544,0,0,0,5.916-18.438c.146-1.552.122-3.234.26-4.843,5.363,1.275,9.954,4.023,11.539,7.841,3.372,8.126-11.9,55.7-26.5,72.566" transform="translate(-90.476 -257.856)" fill="#6c4f22"/>
                </g>
              </g>
            </g>
            <path id="Trazado_885469" data-name="Trazado 885469" d="M167.23,242.543c1.874-.157,3.886-.284,5.509.665s2.461,3.432,1.117,4.748c-1.714,1.676-5.475.373-6.4,2.586-.692,1.66,1.213,3.232,2.926,3.781,4.832,1.548,10.067.522,15.035-.516l11.427-2.386c2.14-.446,4.422-.971,5.917-2.567s1.605-4.639-.328-5.66l13.182,2.994c1.861.422,3.878.833,5.622.056s2.789-3.292,1.453-4.655c-2.8,1.5-6.317.59-9.024-1.064S208.716,236.54,206,234.9c-3.886-2.337-8.5-3.114-13.025-3.48a84.531,84.531,0,0,0-34.591,4.5c-1.946.68-11.666,3.329-8.062,7.291,2.113,2.323,13.82-.411,16.909-.669" transform="translate(-50.665 -78.325)" fill="#657d55"/>
            <path id="Trazado_885470" data-name="Trazado 885470" d="M131.9,350.939v.007c-.112,16.5-.575,35.61-.648,38.651H86.587l5.078-37.7S69.588,322.006,65.192,317.53s-17.1-69.819-16.377-72.754c.264-1.031,2.089-1.4,4.45-.952a14.926,14.926,0,0,1,3.114.972,16,16,0,0,1,5.3,3.643,13.5,13.5,0,0,1,1.21,1.448,14.027,14.027,0,0,1,2.393,5.269c.1.423.509,1.6,1.131,3.279.575,1.554,1.329,3.531,2.182,5.739.046.139.106.278.159.423v.007c.655,1.686,1.362,3.5,2.076,5.336.807,2.043,1.626,4.132,2.42,6.142,2.36,5.97,4.456,11.227,5,12.6-.218-.608-2.585-8.179.2-12.205a5.416,5.416,0,0,1,3-2.136,9.305,9.305,0,0,1,3.431-.311c.093.007.179.013.271.026a6.561,6.561,0,0,1,3.021,1.269c6.089,4.383,10.552,18.711,16.674,26,6.711,8,20.979,13.322,26.056,24.033.112.238.225.483.331.734.628,1.488.747,12.417.661,24.84" transform="translate(-16.53 -82.554)" fill="#b77158"/>
            <path id="Trazado_885471" data-name="Trazado 885471" d="M86.587,389.6l5.078-37.7S69.588,322.006,65.192,317.53s-17.1-69.819-16.377-72.754c.264-1.031,2.089-1.4,4.45-.952,2.188,11.061,11.98,60.014,14.579,65.2,1.845,3.7,13.408,16.516,22.275,26.8,5.236,6.063,9.527,11.246,10.341,13.151,1.3,3.015,1.825,17.951,2.043,29.739.053,2.916.086,5.646.106,7.947.013,1.078.02,2.063.026,2.936Z" transform="translate(-16.53 -82.554)" fill="#cc836d"/>
            <path id="Trazado_885472" data-name="Trazado 885472" d="M93.438,311.989a94.071,94.071,0,0,0,14.456,25.879s-8.758-18.227-14.456-25.879" transform="translate(-31.66 -105.714)" fill="#8e503d"/>
            <path id="Trazado_885473" data-name="Trazado 885473" d="M104.877,300.915a3.171,3.171,0,0,0,1.372-.817,2.109,2.109,0,0,0,.273-1.962,5.652,5.652,0,0,0-1.063-1.757,12.659,12.659,0,0,0-3.749-3.418,5.428,5.428,0,0,0-4.907-.285,5.494,5.494,0,0,0-2.7,4.086,13.858,13.858,0,0,0,.356,5.041c.182.868.466,2.093,1.385,2.489.809.349,1.32-.179,2-.565a52.108,52.108,0,0,1,7.031-2.813" transform="translate(-31.849 -99.013)" fill="#cc836d"/>
            <path id="Trazado_885474" data-name="Trazado 885474" d="M282.67,317.53c-4.4,4.476-26.473,34.367-26.473,34.367l5.084,37.7H216.613c-.073-3.021-.536-21.944-.655-38.38v-.007c-.079-12.529.033-23.617.668-25.111,4.76-11.207,19.524-16.589,26.38-24.767,2.678-3.187,5.038-7.722,7.359-12.179,3.57-6.863,7.035-13.554,11.405-14.889a5.18,5.18,0,0,1,.939-.2c.093-.013.179-.02.271-.026a9.268,9.268,0,0,1,3.425.311c7.061,2.116,3.478,13.587,3.207,14.341.853-2.136,5.481-13.713,8.972-22.711.06-.165.126-.331.185-.5l.007-.007c2.01-5.2,3.61-9.428,3.808-10.314a14.027,14.027,0,0,1,2.393-5.269,15.434,15.434,0,0,1,5.2-4.463c.436-.238.873-.443,1.309-.628a14.807,14.807,0,0,1,3.114-.972c2.367-.443,4.192-.079,4.456.952.721,2.936-11.987,68.285-16.384,72.754" transform="translate(-73.168 -82.554)" fill="#b77158"/>
            <path id="Trazado_885475" data-name="Trazado 885475" d="M297.682,317.53c-4.4,4.476-26.473,34.367-26.473,34.367l5.084,37.7H260.24c.007-.873.013-1.858.026-2.936.02-2.3.053-5.031.106-7.947.218-11.789.747-26.724,2.043-29.739.813-1.9,5.1-7.074,10.327-13.137,8.873-10.288,20.443-23.121,22.288-26.817,1.679-3.345,6.354-24.932,10.05-42.79.549-2.684,1.084-5.276,1.58-7.716v-.007c1.316-6.479,2.387-11.841,2.949-14.684,2.367-.443,4.192-.079,4.456.952.721,2.936-11.987,68.285-16.384,72.754" transform="translate(-88.179 -82.554)" fill="#cc836d"/>
            <path id="Trazado_885476" data-name="Trazado 885476" d="M289.626,311.989a94.071,94.071,0,0,1-14.456,25.879s8.758-18.227,14.456-25.879" transform="translate(-93.238 -105.714)" fill="#8e503d"/>
            <path id="Trazado_885477" data-name="Trazado 885477" d="M279.113,300.915a3.167,3.167,0,0,1-1.372-.817,2.109,2.109,0,0,1-.273-1.962,5.652,5.652,0,0,1,1.063-1.757,12.659,12.659,0,0,1,3.749-3.418,5.428,5.428,0,0,1,4.907-.285,5.494,5.494,0,0,1,2.7,4.086,13.858,13.858,0,0,1-.356,5.041c-.182.868-.466,2.093-1.385,2.489-.809.349-1.32-.179-2-.565a52.107,52.107,0,0,0-7.031-2.813" transform="translate(-93.976 -99.013)" fill="#cc836d"/>
          </g>
        </g>
      </g>
    </g>
  </g>
</svg>
