<svg xmlns="http://www.w3.org/2000/svg" width="76.971" height="84.67" viewBox="0 0 76.971 84.67">
  <path id="Trazado_885727" data-name="Trazado 885727" d="M111.254,23.377a10.537,10.537,0,0,1-10.476-11.121,1.17,1.17,0,0,1,1.092-1.043,10.479,10.479,0,0,1,11.121,10.476,16.5,16.5,0,0,1,1.936,1.887,14.357,14.357,0,0,1,1.44-5.263A14,14,0,0,1,127.042.638a1.148,1.148,0,0,1,1.291.745A14.045,14.045,0,0,1,118.3,19.455c-.4.745-1.341,3.078-1.291,8.341a28.542,28.542,0,0,1,17.774,7V30.477a7.894,7.894,0,0,1,15.788,0V61.954c9.086,7.348,3.972,22.193-7.795,22.193a12.459,12.459,0,0,1-9.632-4.568,28.71,28.71,0,0,1-17.228,5.71c-22.044,0-35.6-23.633-25.271-42.5a8.042,8.042,0,0,1-4.568-7.3c0-8.391,11.32-11.072,15.143-3.674a28.063,28.063,0,0,1,13.5-4.022c-.149-1.589-2.185-3.575-3.277-4.419ZM91.792,40.8a29.286,29.286,0,0,1,7.5-7.745c-2.532-5.461-10.972-3.724-10.972,2.433A5.778,5.778,0,0,0,91.792,40.8Zm2.284-15.49a1.113,1.113,0,0,1-1.092-1.142V20.8a1.117,1.117,0,1,1,2.234,0v3.376A1.124,1.124,0,0,1,94.075,25.313Zm7.993,3.326a1.154,1.154,0,0,1-.794-1.936l2.433-2.433a1.142,1.142,0,0,1,1.589,1.638l-2.383,2.383A1.163,1.163,0,0,1,102.069,28.64Zm-18.42,18.42a1.149,1.149,0,0,1-.794-1.936l2.433-2.383a1.124,1.124,0,0,1,1.589,1.589l-2.433,2.383A.988.988,0,0,1,83.649,47.059Zm-.894-10.426H79.33a1.118,1.118,0,0,1,0-2.234h3.426A1.118,1.118,0,0,1,82.756,36.633Zm3.326-7.993a.988.988,0,0,1-.794-.348l-2.433-2.383c-.993-1.043.6-2.631,1.589-1.638L86.876,26.7A1.154,1.154,0,0,1,86.082,28.64Zm16.036,45.875a5.67,5.67,0,0,1-2.78-.794c-3.823-1.986-7.547-7.795-6.9-15.888a3.466,3.466,0,0,0-.05-1.192,5.887,5.887,0,0,0-2.78,3.426,26.571,26.571,0,0,0,26.314,22.987,25.279,25.279,0,0,0,7.447-1.092,5.544,5.544,0,0,1,.546-6.5c-9.979-10.476.794-12.065.943-14.646l.4-6.554c.248-4.667,5.015-5.312,8.093-2.234a14.956,14.956,0,0,0,1.44,1.241V39.91a6.464,6.464,0,0,1-3.773-.993c-2.83,2.433-6.007,2.582-8.54.993-2.135.993-3.873.943-5.263,0-2.83-1.986-2.78-7.3-2.582-9.88a27.286,27.286,0,0,0-9.88,2.433,7.006,7.006,0,0,1,3.029,6.305c9.88,2.135,6.355,12.511.149,9.384-1.043-.546-3.029-2.582-4.071-2.78-.844-.2-2.631,1.291-1.44,2.135.546.348,1.291.844,2.185,1.39,5.461,3.475,9.88,6.554,9.284,9.533-.5,2.234-3.624,2.929-5.859,3.227-2.333.348-3.227,1.638-2.482,4.17C107.083,71.337,105.445,74.515,102.119,74.515Zm-12.71-18.37c2.284-2.482,5.66-2.681,5.263,1.837-.546,7.1,2.532,12.114,5.71,13.753,3.624,1.936,4.022-1.589,2.979-5.263-1.043-3.773.5-6.5,4.319-7.05,3.674-.5,3.972-1.39,3.972-1.489.447-2.036-8.093-6.9-10.525-8.589-3.227-2.284-.149-6.9,3.178-6.206,2.532.546,4.965,4.518,6.8,3.029,1.638-1.341.248-4.667-4.766-5.362a1.11,1.11,0,0,1-.943-1.341,4.816,4.816,0,0,0-3.029-5.71A26.424,26.424,0,0,0,89.409,56.145ZM116.914,30.03c-.248,2.88-.05,6.9,1.589,8.043.745.546,1.986.4,3.575-.447a1.129,1.129,0,0,1,1.291.149c.3.3,3.029,2.582,6.8-1.092,1.142-1.142,1.936.993,4.369.993A26.079,26.079,0,0,0,116.914,30.03Zm14.944,47.663a12.509,12.509,0,0,1,2.929-15.54V55.9c-2.383-1.142-4.17-4.22-6.206-3.426a1.978,1.978,0,0,0-1.092,1.936l-.4,6.5c-.3,5.163-10.873,3.773-.844,13.7a1.275,1.275,0,0,1,0,1.638c-1.638,1.589-1.887,3.227-.7,4.965A24.675,24.675,0,0,0,131.858,77.692Zm5.163-40.315v1.291c-.1,5.511.1,11.022,0,16.483V62.7a1.062,1.062,0,0,1-.447.894c-7.6,5.809-3.624,18.32,6.206,18.32,9.93,0,13.9-12.71,6.007-18.469a1.062,1.062,0,0,1-.447-.894V30.477a5.66,5.66,0,0,0-11.32,0Zm5.759,40.761a6.434,6.434,0,0,1-1.142-12.76V31.867a1.144,1.144,0,0,1,2.284,0V65.38a6.434,6.434,0,0,1-1.142,12.76Zm-.05-10.625a4.171,4.171,0,1,0,4.22,4.17A4.185,4.185,0,0,0,142.731,67.514ZM126.5,3.071a11.85,11.85,0,0,0-8.142,14.051A11.825,11.825,0,0,0,126.5,3.071ZM103.062,13.447a8.31,8.31,0,0,0,7.646,7.7A8.269,8.269,0,0,0,103.062,13.447Z" transform="translate(-78.25 -0.619)" fill="#87a771" fill-rule="evenodd"/>
</svg>
