<svg xmlns="http://www.w3.org/2000/svg" width="79.848" height="81.207" viewBox="0 0 79.848 81.207">
  <g id="layer1" transform="translate(-0.529 -280.595)">
    <path id="path3427-9" d="M49.248,280.595a14.886,14.886,0,0,0-9.738,3.666,8.074,8.074,0,0,0-11.332,4.177,1.349,1.349,0,0,0,2.506,1,5.4,5.4,0,0,1,8.194-2.4,1.356,1.356,0,0,0,1.782-.172,12.124,12.124,0,0,1,20.417,11.425,1.353,1.353,0,0,0,.819,1.816A9.463,9.463,0,0,1,58.73,318.49a1.354,1.354,0,1,0,0,2.707,12.16,12.16,0,0,0,5.149-23.185,14.692,14.692,0,0,0-14.631-17.417Zm-2.215,73.094a42.411,42.411,0,0,0,1.525,5.4H33.734c1.556-3.731,2.343-8.118,2.876-14.6a1.353,1.353,0,0,0-.671-1.287l-6.474-3.738,1.33-2.3,4.166,2.4a1.353,1.353,0,0,0,2.027-1.118c.052-1.329.082-2.588.082-3.717v-2.707h2.707a1.355,1.355,0,0,0,0-2.709H37.07v-4.177a1.355,1.355,0,0,0-2.709,0v9.593c0,.4-.021.907-.029,1.348l-3.346-1.938a1.353,1.353,0,0,0-1.858.5l-2.678,4.644a1.356,1.356,0,0,0,.489,1.85l6.894,3.984c-.617,6.589-1.78,11.507-3.386,14.718a1.354,1.354,0,0,0,1.208,1.959H50.607a1.354,1.354,0,0,0,1.208-1.959c-2.143-4.285-3.544-13.754-3.838-21.85l7.425-4.3a1.353,1.353,0,0,0,.5-1.848L53.213,327.2a1.353,1.353,0,0,0-1.848-.5L47.9,328.712V321.2h0a9.468,9.468,0,0,0,5.823-2,1.356,1.356,0,0,0-1.668-2.138,6.761,6.761,0,0,1-9.791-1.6,1.352,1.352,0,0,0-2.35.122,6.769,6.769,0,0,1-10.41.857,1.293,1.293,0,0,0-2.025.066,8.113,8.113,0,1,1-6.63-14.142,1.342,1.342,0,0,0,.952-2.038,6.769,6.769,0,0,1,2.857-9.582,1.354,1.354,0,1,0-1.179-2.437,9.481,9.481,0,0,0-4.766,11.818,10.818,10.818,0,1,0,9.778,19.027,9.435,9.435,0,0,0,12.643-.83,9.522,9.522,0,0,0,4.055,2.466v10.27a1.353,1.353,0,0,0,2.027,1.168l4.327-2.5,1.33,2.3-6.965,4.015a1.351,1.351,0,0,0-.669,1.208A98.089,98.089,0,0,0,46.5,350.98H42.414a1.355,1.355,0,1,0,.07,2.709Zm2.627-64.337a4.506,4.506,0,0,0-2.622,1.026,1.356,1.356,0,0,0,1.721,2.1,1.99,1.99,0,0,1,3.217,1.47,1.354,1.354,0,1,0,2.675.378,4.307,4.307,0,0,0-2.4-4.385,4.951,4.951,0,0,0-2.593-.584ZM32.6,292.059a4.958,4.958,0,0,0-2.6.587,4.307,4.307,0,0,0-2.4,4.385,1.354,1.354,0,1,0,2.678-.381,2,2,0,0,1,3.228-1.467,1.354,1.354,0,1,0,1.708-2.1,4.5,4.5,0,0,0-2.62-1.026Zm9.2,9.537a5.057,5.057,0,0,0-4.6,2.757,1.357,1.357,0,0,0,2.429,1.211,2.463,2.463,0,0,1,4.346,0,1.354,1.354,0,1,0,2.419-1.211A5.057,5.057,0,0,0,41.8,301.6Zm-19.582,4.695a1.355,1.355,0,0,0-1.377,1.19c-.544,3.821,4.4,6.567,7.613,3.946a1.357,1.357,0,0,0-1.721-2.1,1.989,1.989,0,0,1-3.217-1.467A1.353,1.353,0,0,0,22.222,306.291Zm37.779,0a1.353,1.353,0,0,0-1.264,1.57,1.989,1.989,0,0,1-3.217,1.467,1.354,1.354,0,1,0-1.708,2.1c3.209,2.621,8.147-.126,7.6-3.946a1.354,1.354,0,0,0-1.279-1.19,1.182,1.182,0,0,0-.135,0Zm-47.29,47.4h4.459a30.952,30.952,0,0,0,1.6,5.4H3.944a36.951,36.951,0,0,0,1.694-6.373,1.354,1.354,0,1,0-2.657-.521,32.076,32.076,0,0,1-2.308,7.645A1.351,1.351,0,0,0,1.882,361.8H20.835a1.351,1.351,0,0,0,1.208-1.956c-1.488-2.976-2.586-7.216-3.228-13.069a1.352,1.352,0,0,0-1.348-1.208H5.108a1.354,1.354,0,1,0,.07,2.707H16.27c.123.954.254,1.841.394,2.707H12.642a1.355,1.355,0,1,0,.07,2.709Zm61.749-5.416c.123.954.254,1.841.394,2.707H70.832a1.355,1.355,0,1,0,.07,2.709h4.459a30.953,30.953,0,0,0,1.6,5.4H62.134a36.948,36.948,0,0,0,1.694-6.373,1.354,1.354,0,1,0-2.657-.521,32.076,32.076,0,0,1-2.308,7.645,1.352,1.352,0,0,0,1.208,1.956H79.025a1.352,1.352,0,0,0,1.208-1.956c-1.488-2.976-2.586-7.216-3.228-13.069a1.352,1.352,0,0,0-1.348-1.208H63.3a1.354,1.354,0,1,0,.07,2.707Z" transform="translate(0 0)" fill="#fff"/>
  </g>
</svg>
