<svg xmlns="http://www.w3.org/2000/svg" width="62" height="62" viewBox="0 0 62 62">
  <g id="Grupo_1112245" data-name="Grupo 1112245" transform="translate(-1 -1)">
    <path id="Trazado_885710" data-name="Trazado 885710" d="M27.81,24.812l.8-.322a6.975,6.975,0,0,0,4.314-7.472l-.122-.855-3.593-.016,1.782-3.119-.68-.533a6.972,6.972,0,0,0-8.627,0l-.68.533,1.782,3.119-3.593.016-.122.855a6.978,6.978,0,0,0,4.314,7.472l.8.322L26,21.708ZM27,18a1,1,0,1,1-1-1A1,1,0,0,1,27,18Zm3.331,2.5a4.93,4.93,0,0,1-1.7,1.749l-1.01-1.732a2.992,2.992,0,0,0,1.365-2.372l2.01.009a4.949,4.949,0,0,1-.665,2.346Zm-1.967-6.9-1,1.748a2.88,2.88,0,0,0-2.732,0l-1-1.748a5.049,5.049,0,0,1,4.728,0Zm-4.995,8.652A4.98,4.98,0,0,1,21,18.154l2.01-.009a2.99,2.99,0,0,0,1.365,2.372Z" fill="#12263f"/>
    <path id="Trazado_885711" data-name="Trazado 885711" d="M8.754,28a6.357,6.357,0,0,1,3.419.889A8.316,8.316,0,0,0,16.509,30a8.3,8.3,0,0,0,4.333-1.111A6.351,6.351,0,0,1,24.258,28a6.352,6.352,0,0,1,3.417.889A8.315,8.315,0,0,0,32.01,30a8.3,8.3,0,0,0,4.333-1.111A6.351,6.351,0,0,1,39.759,28a5,5,0,0,1,3.132,1.02,7.678,7.678,0,0,0,1.792.929l.155.051H45v7h2V22h2a2,2,0,0,1,2,2v8h2V24a4,4,0,0,0-4-4H47V16h3a7.008,7.008,0,0,1,7,7V34h2V23a9.011,9.011,0,0,0-9-9H47V3a2,2,0,0,0-2-2H43a2,2,0,0,0-2,2H11A2,2,0,0,0,9,1H7A2,2,0,0,0,5,3V26.821q-.3.146-.581.29A6.357,6.357,0,0,1,1,28v2a8.313,8.313,0,0,0,4.336-1.111A6.356,6.356,0,0,1,8.754,28ZM43,3h2V27.928a7.7,7.7,0,0,1-1.027-.59c-.293-.189-.61-.392-.973-.582ZM22.31,26.193a8.987,8.987,0,1,1,5.624.591A8.031,8.031,0,0,0,24.258,26,9.237,9.237,0,0,0,22.31,26.193ZM41,5V26.093A7.942,7.942,0,0,0,39.759,26a8.3,8.3,0,0,0-4.333,1.111A6.348,6.348,0,0,1,32.01,28a7.654,7.654,0,0,1-1.225-.091,11.006,11.006,0,1,0-10.908-.773A6.3,6.3,0,0,1,16.509,28a6.357,6.357,0,0,1-3.419-.889A9.439,9.439,0,0,0,11,26.263V5ZM7,3H9V26.008c-.084,0-.159-.008-.246-.008A9.453,9.453,0,0,0,7,26.156Z" fill="#12263f"/>
    <path id="Trazado_885712" data-name="Trazado 885712" d="M58.664,60.111A6.356,6.356,0,0,1,55.246,61a6.1,6.1,0,0,1-2.6-.491,10.28,10.28,0,0,0,2.187-4.759,3.823,3.823,0,0,0,4.042-6.285L58.414,49l4-4L55,37.586l-4,4-.465-.465a3.813,3.813,0,0,0-6.306,3.972A10.207,10.207,0,0,0,38.7,47.608L23.753,60.985a6.336,6.336,0,0,1-2.926-.873A8.309,8.309,0,0,0,16.494,59a8.319,8.319,0,0,0-4.333,1.111A6.343,6.343,0,0,1,8.747,61a6.347,6.347,0,0,1-3.415-.889A8.309,8.309,0,0,0,1,59v2a6.347,6.347,0,0,1,3.415.889A8.309,8.309,0,0,0,8.747,63a8.312,8.312,0,0,0,4.332-1.111A6.344,6.344,0,0,1,16.494,61a6.347,6.347,0,0,1,3.415.889A8.306,8.306,0,0,0,24.241,63a8.313,8.313,0,0,0,4.333-1.111A6.348,6.348,0,0,1,31.99,61a6.352,6.352,0,0,1,3.417.889,9.009,9.009,0,0,0,8.668,0,7.013,7.013,0,0,1,6.835,0,9.015,9.015,0,0,0,8.671,0A6.357,6.357,0,0,1,63,61V59a8.323,8.323,0,0,0-4.336,1.111ZM57,47.586,55.414,46,58,43.414,59.586,45Zm-2-7.172L56.586,42,54,44.586,52.414,43ZM47.829,42a1.818,1.818,0,0,1,1.293.535l8.343,8.344A1.829,1.829,0,0,1,56.171,54a1.818,1.818,0,0,1-1.293-.535l-8.343-8.344A1.829,1.829,0,0,1,47.829,42ZM31.99,59a8.171,8.171,0,0,0-4.166,1.026L40.039,49.1A8.222,8.222,0,0,1,45.527,47h.059l7.393,7.394a8.25,8.25,0,0,1-2.2,5.218,7.662,7.662,0,0,0-2.153-.546A6,6,0,1,0,38.473,60.9a6.749,6.749,0,0,1-2.148-.79A8.325,8.325,0,0,0,31.99,59Zm11.168,1.111a8.179,8.179,0,0,1-1.5.645A3.995,3.995,0,1,1,47,57a3.963,3.963,0,0,1-.583,2.059,8.376,8.376,0,0,0-3.259,1.052Z" fill="#12263f"/>
    <path id="Trazado_885713" data-name="Trazado 885713" d="M8.428,58.9l19-9L26.572,48.1l-2.5,1.184A8,8,0,0,0,9.634,56.12L7.572,57.1ZM11,53a6,6,0,0,1,11.271-2.866L11.447,55.261A6.008,6.008,0,0,1,11,53Z" fill="#12263f"/>
    <path id="Trazado_885714" data-name="Trazado 885714" d="M43,35H41a4,4,0,0,0-8,0H31v2H43Zm-6-2a2,2,0,0,1,2,2H35A2,2,0,0,1,37,33Z" fill="#12263f"/>
    <path id="Trazado_885715" data-name="Trazado 885715" d="M35,44H33a4,4,0,0,0-8,0H23v2H35Zm-6-2a2,2,0,0,1,2,2H27A2,2,0,0,1,29,42Z" fill="#12263f"/>
    <path id="Trazado_885716" data-name="Trazado 885716" d="M13,34H11a4,4,0,0,0-8,0H1v2H13ZM7,32a2,2,0,0,1,2,2H5A2,2,0,0,1,7,32Z" fill="#12263f"/>
    <path id="Trazado_885717" data-name="Trazado 885717" d="M16,42H14a4,4,0,0,0-8,0H4v2H16Zm-6-2a2,2,0,0,1,2,2H8A2,2,0,0,1,10,40Z" fill="#12263f"/>
    <path id="Trazado_885718" data-name="Trazado 885718" d="M57,36h2v2H57Z" fill="#12263f"/>
  </g>
</svg>
