<svg xmlns="http://www.w3.org/2000/svg" width="77.323" height="88.112" viewBox="0 0 77.323 88.112">
  <g id="Grupo_1112242" data-name="Grupo 1112242" transform="translate(-31.347)">
    <g id="Grupo_1112209" data-name="Grupo 1112209" transform="translate(31.347)">
      <g id="Grupo_1112208" data-name="Grupo 1112208" transform="translate(0)">
        <path id="Trazado_885691" data-name="Trazado 885691" d="M107.379,85.531h-.867V77.037a1.291,1.291,0,1,0-2.581,0v8.494H78.656V55.478l25.275,8.209v7.327a1.291,1.291,0,0,0,2.581,0V62.749a1.291,1.291,0,0,0-.892-1.228L79.429,53.015a2.472,2.472,0,0,0-.774-.156V21.46a2.434,2.434,0,0,0-2.431-2.431H73.366V13.6a2.222,2.222,0,0,0-2.219-2.219H64.728V1.291a1.291,1.291,0,0,0-2.581,0V11.378H55.834A2.329,2.329,0,0,0,53.507,13.7v5.324H50.692A2.477,2.477,0,0,0,48.218,21.5V33.545H36.678a2.391,2.391,0,0,0-2.388,2.388v49.6H32.638a1.291,1.291,0,0,0,0,2.581h74.741a1.291,1.291,0,0,0,0-2.581Zm-59.161,0H36.871v-49.4H48.218ZM70.785,13.959v5.069h-14.7V13.959Zm5.29,41.37v30.2H50.8V21.61H76.074Z" transform="translate(-31.347)" fill="#12263f"/>
      </g>
    </g>
    <g id="Grupo_1112211" data-name="Grupo 1112211" transform="translate(39.297 41.738)">
      <g id="Grupo_1112210" data-name="Grupo 1112210">
        <path id="Trazado_885692" data-name="Trazado 885692" d="M83.02,242.527H78.835a1.291,1.291,0,1,0,0,2.581H83.02a1.291,1.291,0,0,0,0-2.581Z" transform="translate(-77.544 -242.527)" fill="#12263f"/>
      </g>
    </g>
    <g id="Grupo_1112213" data-name="Grupo 1112213" transform="translate(39.297 47.937)">
      <g id="Grupo_1112212" data-name="Grupo 1112212">
        <path id="Trazado_885693" data-name="Trazado 885693" d="M83.02,278.55H78.835a1.291,1.291,0,1,0,0,2.581H83.02a1.291,1.291,0,0,0,0-2.581Z" transform="translate(-77.544 -278.55)" fill="#12263f"/>
      </g>
    </g>
    <g id="Grupo_1112215" data-name="Grupo 1112215" transform="translate(39.297 54.136)">
      <g id="Grupo_1112214" data-name="Grupo 1112214">
        <path id="Trazado_885694" data-name="Trazado 885694" d="M83.02,314.573H78.835a1.291,1.291,0,1,0,0,2.581H83.02a1.291,1.291,0,0,0,0-2.581Z" transform="translate(-77.544 -314.573)" fill="#12263f"/>
      </g>
    </g>
    <g id="Grupo_1112217" data-name="Grupo 1112217" transform="translate(39.297 60.336)">
      <g id="Grupo_1112216" data-name="Grupo 1112216">
        <path id="Trazado_885695" data-name="Trazado 885695" d="M83.02,350.6H78.835a1.291,1.291,0,1,0,0,2.581H83.02a1.291,1.291,0,0,0,0-2.581Z" transform="translate(-77.544 -350.596)" fill="#12263f"/>
      </g>
    </g>
    <g id="Grupo_1112219" data-name="Grupo 1112219" transform="translate(39.297 66.535)">
      <g id="Grupo_1112218" data-name="Grupo 1112218">
        <path id="Trazado_885696" data-name="Trazado 885696" d="M83.02,386.619H78.835a1.291,1.291,0,0,0,0,2.581H83.02a1.291,1.291,0,0,0,0-2.581Z" transform="translate(-77.544 -386.619)" fill="#12263f"/>
      </g>
    </g>
    <g id="Grupo_1112221" data-name="Grupo 1112221" transform="translate(39.297 72.735)">
      <g id="Grupo_1112220" data-name="Grupo 1112220">
        <path id="Trazado_885697" data-name="Trazado 885697" d="M83.02,422.643H78.835a1.291,1.291,0,1,0,0,2.581H83.02a1.291,1.291,0,0,0,0-2.581Z" transform="translate(-77.544 -422.643)" fill="#12263f"/>
      </g>
    </g>
    <g id="Grupo_1112223" data-name="Grupo 1112223" transform="translate(39.297 78.934)">
      <g id="Grupo_1112222" data-name="Grupo 1112222">
        <path id="Trazado_885698" data-name="Trazado 885698" d="M83.02,458.666H78.835a1.291,1.291,0,0,0,0,2.581H83.02a1.291,1.291,0,0,0,0-2.581Z" transform="translate(-77.544 -458.666)" fill="#12263f"/>
      </g>
    </g>
    <g id="Grupo_1112225" data-name="Grupo 1112225" transform="translate(82.063 66.535)">
      <g id="Grupo_1112224" data-name="Grupo 1112224" transform="translate(0)">
        <path id="Trazado_885699" data-name="Trazado 885699" d="M342.867,386.619H327.334a1.291,1.291,0,0,0,0,2.581h15.533a1.291,1.291,0,0,0,0-2.581Z" transform="translate(-326.043 -386.619)" fill="#12263f"/>
      </g>
    </g>
    <g id="Grupo_1112227" data-name="Grupo 1112227" transform="translate(82.063 72.735)">
      <g id="Grupo_1112226" data-name="Grupo 1112226" transform="translate(0)">
        <path id="Trazado_885700" data-name="Trazado 885700" d="M342.867,422.643H327.334a1.291,1.291,0,1,0,0,2.581h15.533a1.291,1.291,0,1,0,0-2.581Z" transform="translate(-326.043 -422.643)" fill="#12263f"/>
      </g>
    </g>
    <g id="Grupo_1112229" data-name="Grupo 1112229" transform="translate(82.063 78.934)">
      <g id="Grupo_1112228" data-name="Grupo 1112228" transform="translate(0)">
        <path id="Trazado_885701" data-name="Trazado 885701" d="M342.867,458.666H327.334a1.291,1.291,0,0,0,0,2.581h15.533a1.291,1.291,0,0,0,0-2.581Z" transform="translate(-326.043 -458.666)" fill="#12263f"/>
      </g>
    </g>
    <g id="Grupo_1112231" data-name="Grupo 1112231" transform="translate(53.521 34.416)">
      <g id="Grupo_1112230" data-name="Grupo 1112230">
        <path id="Trazado_885702" data-name="Trazado 885702" d="M178.736,199.984h-17.25a1.291,1.291,0,0,0-1.291,1.291v4.757a1.291,1.291,0,0,0,1.291,1.291h17.25a1.291,1.291,0,0,0,1.291-1.291v-4.757A1.291,1.291,0,0,0,178.736,199.984Zm-1.291,4.757H162.776v-2.175h14.669Z" transform="translate(-160.195 -199.984)" fill="#12263f"/>
      </g>
    </g>
    <g id="Grupo_1112233" data-name="Grupo 1112233" transform="translate(53.521 44.327)">
      <g id="Grupo_1112232" data-name="Grupo 1112232">
        <path id="Trazado_885703" data-name="Trazado 885703" d="M178.736,257.575h-17.25a1.291,1.291,0,0,0-1.291,1.291v4.757a1.291,1.291,0,0,0,1.291,1.291h17.25a1.291,1.291,0,0,0,1.291-1.291v-4.757A1.291,1.291,0,0,0,178.736,257.575Zm-1.291,4.757H162.776v-2.175h14.669Z" transform="translate(-160.195 -257.575)" fill="#12263f"/>
      </g>
    </g>
    <g id="Grupo_1112235" data-name="Grupo 1112235" transform="translate(53.521 54.238)">
      <g id="Grupo_1112234" data-name="Grupo 1112234">
        <path id="Trazado_885704" data-name="Trazado 885704" d="M178.736,315.164h-17.25a1.291,1.291,0,0,0-1.291,1.291v4.757a1.291,1.291,0,0,0,1.291,1.291h17.25a1.291,1.291,0,0,0,1.291-1.291v-4.757A1.291,1.291,0,0,0,178.736,315.164Zm-1.291,4.757H162.776v-2.175h14.669Z" transform="translate(-160.195 -315.164)" fill="#12263f"/>
      </g>
    </g>
    <g id="Grupo_1112237" data-name="Grupo 1112237" transform="translate(53.521 64.149)">
      <g id="Grupo_1112236" data-name="Grupo 1112236">
        <path id="Trazado_885705" data-name="Trazado 885705" d="M178.736,372.755h-17.25a1.291,1.291,0,0,0-1.291,1.291V378.8a1.291,1.291,0,0,0,1.291,1.291h17.25a1.291,1.291,0,0,0,1.291-1.291v-4.757A1.291,1.291,0,0,0,178.736,372.755Zm-1.291,4.757H162.776v-2.175h14.669Z" transform="translate(-160.195 -372.755)" fill="#12263f"/>
      </g>
    </g>
    <g id="Grupo_1112239" data-name="Grupo 1112239" transform="translate(53.521 74.06)">
      <g id="Grupo_1112238" data-name="Grupo 1112238">
        <path id="Trazado_885706" data-name="Trazado 885706" d="M178.736,430.345h-17.25a1.291,1.291,0,0,0-1.291,1.291v4.757a1.291,1.291,0,0,0,1.291,1.291h17.25a1.291,1.291,0,0,0,1.291-1.291v-4.757A1.291,1.291,0,0,0,178.736,430.345Zm-1.291,4.757H162.776v-2.175h14.669Z" transform="translate(-160.195 -430.345)" fill="#12263f"/>
      </g>
    </g>
    <g id="Grupo_1112241" data-name="Grupo 1112241" transform="translate(53.521 24.505)">
      <g id="Grupo_1112240" data-name="Grupo 1112240" transform="translate(0)">
        <path id="Trazado_885707" data-name="Trazado 885707" d="M178.735,142.394h-5.613a1.291,1.291,0,1,0,0,2.581h4.323v2.175H162.776v-2.175H167.1a1.291,1.291,0,1,0,0-2.581h-5.613a1.291,1.291,0,0,0-1.291,1.291v4.757a1.291,1.291,0,0,0,1.291,1.291h17.25a1.291,1.291,0,0,0,1.291-1.291v-4.757A1.29,1.29,0,0,0,178.735,142.394Z" transform="translate(-160.194 -142.394)" fill="#12263f"/>
      </g>
    </g>
  </g>
</svg>
