<svg xmlns="http://www.w3.org/2000/svg" xmlns:xlink="http://www.w3.org/1999/xlink" width="378" height="272.102" viewBox="0 0 378 272.102">
  <defs>
    <clipPath id="clip-path">
      <rect id="Rectángulo_408071" data-name="Rectángulo 408071" width="317.336" height="272.102" fill="none"/>
    </clipPath>
    <clipPath id="clip-path-3">
      <rect id="Rectángulo_408069" data-name="Rectángulo 408069" width="53.031" height="53.148" fill="none"/>
    </clipPath>
  </defs>
  <g id="Grupo_1112267" data-name="Grupo 1112267" transform="translate(-231.231 -2661.4)">
    <rect id="Ilustración" width="378" height="252" rx="20" transform="translate(231.231 2671.922)" fill="#cce5f2"/>
    <g id="Grupo_1111890" data-name="Grupo 1111890" transform="translate(253.065 2661.4)">
      <g id="Grupo_1111889" data-name="Grupo 1111889" clip-path="url(#clip-path)">
        <g id="Grupo_1111888" data-name="Grupo 1111888">
          <g id="Grupo_1111887" data-name="Grupo 1111887" clip-path="url(#clip-path)">
            <path id="Trazado_885282" data-name="Trazado 885282" d="M4.009,169.264H36.753c2.213,0,4.009,2.953,4.009,6.6v5.668c0,3.642-1.8,6.593-4.009,6.593H18.468c-2.213,0-4.007,2.953-4.007,6.6v14.611c0,3.642,1.794,6.593,4.007,6.593H124.1c2.213,0,4.007,2.953,4.007,6.6v1.634c0,3.642-1.794,6.593-4.007,6.593H96.756c-2.215,0-4.009,2.953-4.009,6.6V244.2H292.136V231.848c0-3.642-1.794-6.593-4.007-6.593H222.572c-2.213,0-4.009-2.953-4.009-6.6s1.8-6.6,4.009-6.6h90.753c2.215,0,4.009-2.953,4.009-6.6V191.735c0-3.642-1.794-6.593-4.009-6.593H278.008c-2.213,0-4.007-2.953-4.007-6.6v-11c0-3.642,1.794-6.6,4.007-6.6h30.2c2.215,0,4.007-2.953,4.007-6.6v-8.444c0-3.64-1.792-6.593-4.007-6.593H260.518c-2.215,0-4.009-2.953-4.009-6.6v-6.519c0-3.642,1.794-6.6,4.009-6.6h21.107c2.213,0,4.007-2.953,4.007-6.6v-9.54c0-3.642-1.794-6.6-4.007-6.6h-45.5c-2.213,0-4.007-2.953-4.007-6.6V87.256c0-3.64,1.794-6.593,4.007-6.593h64.2c2.213,0,4.007-2.953,4.007-6.6v-11c0-3.642-1.794-6.6-4.007-6.6H274.216c-2.215,0-4.009-2.951-4.009-6.6v-4.5c0-3.642,1.794-6.6,4.009-6.6h13.913c2.213,0,4.007-2.953,4.007-6.6V20.514c0-3.642-1.794-6.6-4.007-6.6H74.876c-2.215,0-4.009,2.953-4.009,6.6V37.656c0,3.642,1.794,6.6,4.009,6.6H84.31c2.211,0,4.007,2.951,4.007,6.593v6.231c0,3.642-1.8,6.593-4.007,6.593H49.783c-2.215,0-4.011,2.953-4.011,6.6v12.32c0,3.642,1.8,6.593,4.011,6.593h62.288c2.213,0,4.009,2.953,4.009,6.6v4.165c0,3.644-1.8,6.6-4.009,6.6h-99.1c-2.213,0-4.007,2.953-4.007,6.6v12.691c0,3.642,1.794,6.6,4.007,6.6H70.036a3.471,3.471,0,0,1,2.835,1.931l2.643,4.346c2.525,4.154.736,11.258-2.835,11.258H4.009c-2.215,0-4.009,2.953-4.009,6.6v6.129c0,3.64,1.794,6.593,4.009,6.593" transform="translate(0 15.419)" fill="#99cae5"/>
            <path id="Trazado_885283" data-name="Trazado 885283" d="M53.444,78.609H39.253V27.277h9.434c-2.306,13.258-1.214,29.879,4.757,51.332" transform="translate(43.482 30.216)" fill="#5f85ac"/>
            <path id="Trazado_885284" data-name="Trazado 885284" d="M36.538,27.276H47.53V78.608H31.781c5.973-21.451,7.063-38.072,4.757-51.332" transform="translate(35.205 30.215)" fill="#73a0c6"/>
            <path id="Trazado_885285" data-name="Trazado 885285" d="M65.735,95.6H51.544V44.272h9.434C58.672,57.53,59.764,74.154,65.735,95.6" transform="translate(57.098 49.042)" fill="#5f85ac"/>
            <path id="Trazado_885286" data-name="Trazado 885286" d="M48.829,44.271H59.821V95.6H44.072c5.971-21.451,7.063-38.074,4.757-51.332" transform="translate(48.821 49.041)" fill="#73a0c6"/>
            <path id="Trazado_885287" data-name="Trazado 885287" d="M30.6,23.074a2.144,2.144,0,0,0,.411.438c-.078-.164-.154-.329-.232-.493-.063,0-.116.044-.179.055a2.255,2.255,0,0,1-.71-1.714,2.337,2.337,0,0,1,1.45-1.95,3.1,3.1,0,0,1,2.8.483,9.177,9.177,0,0,1,2.017,2.146,1.627,1.627,0,0,1,1.423-1.967,3.57,3.57,0,0,1,2.552.917,9.744,9.744,0,0,1,3.549,5.577c4.445-.774,5.427,3.977,6.384,7.251.16.542.31,1.094.453,1.657a12.691,12.691,0,0,0-7.531-4.951c-2.232-.565-4.555-.656-6.73-1.444a6.482,6.482,0,0,0-2.38-.588c-.967-.051-1.766.318-2.774.013a3.432,3.432,0,0,1-2.46-2.736A2.506,2.506,0,0,1,30.6,23.074" transform="translate(31.718 21.326)" fill="#acbac8"/>
            <path id="Trazado_885288" data-name="Trazado 885288" d="M45.922,24.5A4.636,4.636,0,0,1,51,22.98a6.381,6.381,0,0,1,3.866,3.887,10.4,10.4,0,0,1,.327,5.59c12.67,1.657,8.385,23.86,8.461,32.683-1.787-3.558-3.621-7.1-5.371-10.674-.989-2.028-4.46-6.6-4.46-8.644-2.255-3.337-6.418-3.868-7.965-8.016a9.54,9.54,0,0,1,.849-8.288,3.662,3.662,0,0,1-.786-5.014" transform="translate(50.147 25.213)" fill="#acbac8"/>
            <path id="Trazado_885289" data-name="Trazado 885289" d="M84.134,93.474a67.962,67.962,0,0,1-1.279-12.183c-9.283,8.281-11.2-15.962-17.2-27.38a4.982,4.982,0,0,0-2.373,2.649l-3.518,8.374L53.808,79.1c-1.547,3.714-5.592,4.081-7.565.761l-.091-.183c-1.507-2.527-4.234-2.923-6.129-1.279A5.322,5.322,0,0,0,38.744,80.1l-.78,1.583c-1.41,2.862-4.443,3.564-6.542,1.522l-.845-.822-1.408-1.37h-.013L27.183,79.1c-1.956-1.918-4.759-1.463-6.283,1.035l-4.1,6.7L4.373,107.179c.7-.9,56.736-.58,92.336-.285-3.691-9.54-7.7-16.322-12.575-13.42" transform="translate(4.844 59.721)" fill="#617080"/>
            <path id="Trazado_885290" data-name="Trazado 885290" d="M93.284,107.374,84.9,90.288c-1.126-2.316-3.364-3.29-5.349-2.346L78.5,88.4c-1.844.883-3.916.091-5.107-1.889L67.938,77.4a3.957,3.957,0,0,0-7.128-.03c-1.728,2.833-5.044,3.014-6.924.335l-15.5-22.051a3.854,3.854,0,0,0-4.936-1.551c6,11.418,7.919,35.661,17.2,27.38a67.855,67.855,0,0,0,1.282,12.183c4.877-2.9,8.884,3.88,12.575,13.418,4.283.036,8.273.072,11.835.105,10.252.12,16.946.181,16.946.181" transform="translate(37.051 59.529)" fill="#4c5f70"/>
            <path id="Trazado_885291" data-name="Trazado 885291" d="M129.3,25.978H103.295L99.811,70.245H129.3Z" transform="translate(110.565 28.777)" fill="#7e92a6"/>
            <path id="Trazado_885292" data-name="Trazado 885292" d="M98.214,81.355,96.116,108h37.276V81.355Z" transform="translate(106.473 90.121)" fill="#7e92a6"/>
            <path id="Trazado_885293" data-name="Trazado 885293" d="M131.648,55.285H100.786L97.692,94.624h33.956Z" transform="translate(108.218 61.242)" fill="#7e92a6"/>
            <path id="Trazado_885294" data-name="Trazado 885294" d="M148.983,81.355H113.8V108H151.08Z" transform="translate(126.064 90.121)" fill="#6f8092"/>
            <path id="Trazado_885295" data-name="Trazado 885295" d="M113.8,94.625H147.76l-3.094-39.339H113.8Z" transform="translate(126.064 61.242)" fill="#6f8092"/>
            <path id="Trazado_885296" data-name="Trazado 885296" d="M113.8,70.245h29.492l-3.484-44.267H113.8Z" transform="translate(126.064 28.777)" fill="#6f8092"/>
            <path id="Trazado_885297" data-name="Trazado 885297" d="M127.469,20.551H102.357l-.894,11.439h26.005Z" transform="translate(112.396 22.765)" fill="#f9cb31"/>
            <path id="Trazado_885298" data-name="Trazado 885298" d="M139.809,31.99l-.894-11.439H113.8V31.99Z" transform="translate(126.064 22.765)" fill="#f3b70e"/>
            <path id="Trazado_885299" data-name="Trazado 885299" d="M130.021,46.98h-29.49l-1.372,17.5h30.862Z" transform="translate(109.844 52.042)" fill="#f9cb31"/>
            <path id="Trazado_885300" data-name="Trazado 885300" d="M113.8,64.485h30.864l-1.372-17.5H113.8Z" transform="translate(126.064 52.042)" fill="#f3b70e"/>
            <path id="Trazado_885301" data-name="Trazado 885301" d="M132.29,73.949H98.334l-1.222,15.61H132.29Z" transform="translate(107.575 81.917)" fill="#f9cb31"/>
            <path id="Trazado_885302" data-name="Trazado 885302" d="M113.8,89.559h35.18l-1.222-15.61H113.8Z" transform="translate(126.064 81.917)" fill="#f3b70e"/>
            <path id="Trazado_885303" data-name="Trazado 885303" d="M101.087,59.732H77.459L75.09,89.852h26Z" transform="translate(83.181 66.168)" fill="#6c7a88"/>
            <path id="Trazado_885304" data-name="Trazado 885304" d="M75.49,79.692l-1.606,20.4h28.539v-20.4Z" transform="translate(81.844 88.278)" fill="#6c7a88"/>
            <path id="Trazado_885305" data-name="Trazado 885305" d="M99.29,37.294H79.38L76.712,71.186H99.29Z" transform="translate(84.977 41.312)" fill="#6c7a88"/>
            <path id="Trazado_885306" data-name="Trazado 885306" d="M87.424,89.851h26l-2.369-30.12H87.424Z" transform="translate(96.844 66.168)" fill="#5c6874"/>
            <path id="Trazado_885307" data-name="Trazado 885307" d="M114.359,79.692H87.424v20.4h28.541Z" transform="translate(96.844 88.278)" fill="#5c6874"/>
            <path id="Trazado_885308" data-name="Trazado 885308" d="M87.424,71.186H110l-2.668-33.893H87.424Z" transform="translate(96.844 41.312)" fill="#5c6874"/>
            <path id="Trazado_885309" data-name="Trazado 885309" d="M97.888,32.761H78.724l-.746,9.554h19.91Z" transform="translate(86.38 36.291)" fill="#f9cb31"/>
            <path id="Trazado_885310" data-name="Trazado 885310" d="M107.336,42.315l-.746-9.554H87.424v9.554Z" transform="translate(96.844 36.291)" fill="#e3a711"/>
            <path id="Trazado_885311" data-name="Trazado 885311" d="M99.842,53.373H77.264l-1.05,13.4H99.842Z" transform="translate(84.426 59.124)" fill="#f9cb31"/>
            <path id="Trazado_885312" data-name="Trazado 885312" d="M87.424,66.776h23.63L110,53.373H87.424Z" transform="translate(96.844 59.124)" fill="#e3a711"/>
            <path id="Trazado_885313" data-name="Trazado 885313" d="M101.579,74.022h-26l-.936,11.951h26.933Z" transform="translate(82.689 81.997)" fill="#34495e"/>
            <path id="Trazado_885314" data-name="Trazado 885314" d="M87.424,85.973h26.935l-.936-11.951h-26Z" transform="translate(96.844 81.997)" fill="#293a4a"/>
            <path id="Trazado_885315" data-name="Trazado 885315" d="M130.968.728C147.293-2.7,167.982,5.976,176.15,26.986c1.288,3.309,1.176,7.35,1.244,10.967a1.142,1.142,0,0,1-2.1.647c-6.433-9.447-18.677-14.683-30.368-14.75-16.668-.095-30.166,9.881-46.389,11.477A50.429,50.429,0,0,1,75.6,32.57c-5.033-1.895-9.036-5.834-11.936-10.33A1.154,1.154,0,0,1,64.941,20.5c5.619,1.467,17.861,1.45,33.321-4.184,11.62-4.232,20.4-13,32.706-15.591" transform="translate(70.316 -0.001)" fill="#b8c7d3"/>
            <path id="Trazado_885316" data-name="Trazado 885316" d="M56.9,16.234c-7.4,11.791,6.19,29.532,26.208,29.218,9.065-.143,18.354-4.468,27.363-1.922,1.96.552,7.575,3.381,8.3,2.888,2.413-3.058-4.907-8.351-6.93-9.54-13.169-7.729-27.3-1.95-39.444-7.168C70.212,28.771,54.777,19.621,56.9,16.234" transform="translate(60.77 17.983)" fill="#b8c7d3"/>
            <path id="Trazado_885317" data-name="Trazado 885317" d="M172.748,130.04V63.821H51.475L172.228,130.04Z" transform="translate(57.021 70.697)" fill="#f3b70e"/>
            <path id="Trazado_885318" data-name="Trazado 885318" d="M49.319,130.04h125.3L53.862,63.821H49.319Z" transform="translate(54.633 70.697)" fill="#f7dc54"/>
            <path id="Trazado_885319" data-name="Trazado 885319" d="M52.831,69.58V81.721h42.3L73.527,69.58Z" transform="translate(58.524 77.077)" fill="#415e7c"/>
            <path id="Trazado_885320" data-name="Trazado 885320" d="M152.967,69.58H62.65L84.257,81.721h68.711Z" transform="translate(69.4 77.077)" fill="#365068"/>
            <path id="Trazado_885321" data-name="Trazado 885321" d="M52.479,80.576V92.717h84.293L115.166,80.576Z" transform="translate(58.134 89.258)" fill="#415e7c"/>
            <path id="Trazado_885322" data-name="Trazado 885322" d="M130.549,80.576H82.22l21.607,12.141h26.722Z" transform="translate(91.08 89.258)" fill="#365068"/>
            <path id="Trazado_885323" data-name="Trazado 885323" d="M125.826,74.262H52.984V63.518A9.125,9.125,0,0,1,62.108,54.4h54.6a9.121,9.121,0,0,1,9.12,9.122Z" transform="translate(58.693 60.257)" fill="#2d3d45"/>
            <rect id="Rectángulo_408059" data-name="Rectángulo 408059" width="14.605" height="9.934" transform="translate(118.299 120.169)" fill="#415e7c"/>
            <rect id="Rectángulo_408060" data-name="Rectángulo 408060" width="14.602" height="9.934" transform="translate(140.521 120.169)" fill="#415e7c"/>
            <rect id="Rectángulo_408061" data-name="Rectángulo 408061" width="14.602" height="9.934" transform="translate(162.743 120.169)" fill="#415e7c"/>
            <path id="Trazado_885324" data-name="Trazado 885324" d="M74.1,70.87H53.636v6.757H86.649Z" transform="translate(59.415 78.506)" fill="#597996"/>
            <path id="Trazado_885325" data-name="Trazado 885325" d="M114.022,81.6H53.266v6.76h73.305Z" transform="translate(59.005 90.392)" fill="#597996"/>
            <path id="Trazado_885326" data-name="Trazado 885326" d="M178.127,107.976a20.218,20.218,0,0,1-1.958-7.826c-14.185,5.32-17.121-10.254-26.286-17.587a7.132,7.132,0,0,0-3.627,1.7l-5.381,5.381-9.1,9.1c-2.367,2.386-8.551,2.622-11.565.489l-.135-.118c-2.31-1.623-6.475-1.878-9.371-.822a6.262,6.262,0,0,0-1.958,1.1l-1.193,1.018c-2.152,1.838-6.789,2.289-10,.978l-1.292-.529-2.15-.879H94.1l-3.014-1.233c-2.993-1.233-7.278-.94-9.605.666l-6.26,4.3-19,13.068c1.067-.575,86.719-.373,141.129-.183-5.64-6.127-11.763-10.484-19.218-8.621" transform="translate(62.274 91.459)" fill="#3c4a58"/>
            <path id="Trazado_885327" data-name="Trazado 885327" d="M192.114,116.905,179.3,105.928c-1.724-1.486-5.145-2.112-8.178-1.5l-1.606.293a10.886,10.886,0,0,1-7.8-1.212l-8.336-5.851a11.038,11.038,0,0,0-10.9-.019c-2.641,1.819-7.708,1.937-10.583.215L108.2,83.683a11.223,11.223,0,0,0-7.544-.995c9.167,7.333,12.1,22.907,26.288,17.587A20.232,20.232,0,0,0,128.9,108.1c7.455-1.863,13.578,2.491,19.218,8.621,6.549.021,12.649.044,18.091.065,15.671.08,25.9.118,25.9.118" transform="translate(111.5 91.334)" fill="#2c3a48"/>
            <path id="Trazado_885328" data-name="Trazado 885328" d="M119.673,123.565c-29.629,0-35.922-1.419-40.11-4.019.181.228.356.453.54.677,1.775,2.207,5.027,3.9,7.835,4.73h0c5.765,1.7,25.567,2.114,31.709,2.114h.025Z" transform="translate(88.136 132.427)" fill="#e8b80f"/>
            <path id="Trazado_885329" data-name="Trazado 885329" d="M81.27,117.161c-1.142-.137-1.026-.12,0,0Z" transform="translate(89.125 129.678)" fill="#f79e21"/>
            <path id="Trazado_885330" data-name="Trazado 885330" d="M92.818,112.333c.561,1.69,1.1,3.393,1.625,5.092l0,0c-.518-1.7-1.064-3.4-1.625-5.1Z" transform="translate(102.819 124.437)" fill="#e6826a"/>
            <path id="Trazado_885331" data-name="Trazado 885331" d="M80.842,117.11v0c5.088.615,4.616.552,0,0" transform="translate(89.553 129.728)" fill="#3b2f23"/>
            <path id="Trazado_885332" data-name="Trazado 885332" d="M94.513,117.154c-1.039-3.138-2.137-6.22-3.225-9.173,1.088,2.953,2.182,6.034,3.225,9.173" transform="translate(101.124 119.616)" fill="#3b2f23"/>
            <path id="Trazado_885333" data-name="Trazado 885333" d="M98.607,93.756l-.027,0h0V141.5l.025,0Z" transform="translate(109.202 103.858)" fill="#ea9117"/>
            <path id="Trazado_885334" data-name="Trazado 885334" d="M123.418,130.684v-.36c-6.127,0-25.944-.415-31.709-2.114h0c-2.784-.824-6.045-2.506-7.837-4.73-.183-.223-.358-.449-.54-.677,4.194,2.605,10.368,4.019,40.087,4.019v-6.84a336.366,336.366,0,0,1-44.181-3.157l0-.025c-.506-.072-1.01-.122-1.515-.194-.441.312-.689.5-1.126.809-.457,3.954-1.874,9.727,5.023,10.6,1.568.2,3.141.346,4.707.527a24.255,24.255,0,0,0,5.271,3.124c5.887,2.38,26.513,2.567,31.823,2.567v-3.552Z" transform="translate(84.366 129.17)" fill="#e8b80f"/>
            <path id="Trazado_885335" data-name="Trazado 885335" d="M121.826,141.507l-.023,0,0-47.749c-6.779,0-19.326,2.839-24.271,7.9-.145.2.578,1.631,1.081,2.658-15.094,9.7-20.991,21.933-20.991,37.819,18.883,2.664,40.987,3.44,44.206,3.155ZM111.279,138v0c-3.733-7.32-10.168-20.671-16.021-29.681.358-.354,2.525-2.158,3.75-3.172,6.859,16.381,10.035,25.521,12.276,32.853Z" transform="translate(85.983 103.858)" fill="#f4d35e"/>
            <path id="Trazado_885336" data-name="Trazado 885336" d="M102.009,132.045v0c-1.467-4.8-3.113-9.554-4.85-14.265-2.466-6.686-4.877-12.592-6.523-16.483-.171-.4-.3-.715-.455-1.071s-.327-.763-.462-1.081c-.228.116-3.562,3.054-3.731,3.221,5.826,8.971,12.292,22.376,16.021,29.683" transform="translate(95.253 109.823)" fill="#e8b80f"/>
            <path id="Trazado_885337" data-name="Trazado 885337" d="M98.593,123.565c21.122,0,34.051-.255,40.11-4.019a15.21,15.21,0,0,1-8.374,5.406h0c-5.758,1.7-25.554,2.114-31.709,2.114h-.025Z" transform="translate(109.216 132.427)" fill="#e8b80f"/>
            <path id="Trazado_885338" data-name="Trazado 885338" d="M116.344,117.161c1.142-.137,1.026-.12,0,0Z" transform="translate(128.88 129.678)" fill="#f79e21"/>
            <path id="Trazado_885339" data-name="Trazado 885339" d="M105.222,112.333c-.561,1.69-1.1,3.393-1.623,5.092l0,0c.519-1.7,1.064-3.4,1.625-5.1Z" transform="translate(114.757 124.437)" fill="#e6826a"/>
            <path id="Trazado_885340" data-name="Trazado 885340" d="M118.258,117.11v0c-5.086.615-4.618.552,0,0" transform="translate(126.966 129.728)" fill="#3b2f23"/>
            <path id="Trazado_885341" data-name="Trazado 885341" d="M104.367,117.144c3.792-11.441,4.3-12.946,0,0" transform="translate(115.612 119.626)" fill="#3b2f23"/>
            <path id="Trazado_885342" data-name="Trazado 885342" d="M98.593,93.756l.027,0h0V141.5l-.025,0Z" transform="translate(109.216 103.858)" fill="#ea9117"/>
            <path id="Trazado_885343" data-name="Trazado 885343" d="M98.6,130.684v-.36c6.115,0,25.944-.415,31.709-2.114h0a15.2,15.2,0,0,0,8.376-5.406c-6.29,3.906-21.1,4.019-40.087,4.019v-6.84c8.878,0,18.527-.544,22.488-.835,6.9-.5,17.739-1.766,21.693-2.323l0-.025c.508-.072,1.012-.122,1.515-.194.441.312.691.5,1.128.809.9,7.813,1.891,9.788-9.729,11.129a24.291,24.291,0,0,1-5.274,3.124c-5.885,2.378-26.5,2.567-31.823,2.567v-3.552Z" transform="translate(109.228 129.17)" fill="#e8b80f"/>
            <path id="Trazado_885344" data-name="Trazado 885344" d="M98.593,141.507l.025,0V93.756c6.779,0,19.326,2.839,24.271,7.9.145.2-.578,1.631-1.079,2.658,15.241,9.791,20.989,22.1,20.989,37.819-3.954.559-14.786,1.819-21.693,2.323-3.216.236-19.446,1.094-22.513.833ZM109.14,138v0c3.693-7.238,10.166-20.669,16.021-29.681-.358-.354-2.525-2.158-3.748-3.172-4.549,10.863-8.893,21.781-12.278,32.853Z" transform="translate(109.216 103.858)" fill="#f4d35e"/>
            <path id="Trazado_885345" data-name="Trazado 885345" d="M103.6,132.045v0a342.251,342.251,0,0,1,12.29-32.9c.238.12,3.547,3.041,3.731,3.221-5.834,8.981-12.345,22.477-16.021,29.683" transform="translate(114.759 109.823)" fill="#e8b80f"/>
            <path id="Trazado_885346" data-name="Trazado 885346" d="M124.019,122.139a16.649,16.649,0,1,1-16.647-16.647,16.649,16.649,0,0,1,16.647,16.647" transform="translate(100.496 116.859)" fill="#f7dc54"/>
            <path id="Trazado_885347" data-name="Trazado 885347" d="M117.67,119.952a12.487,12.487,0,1,1-12.486-12.486,12.486,12.486,0,0,1,12.486,12.486" transform="translate(102.683 119.045)" fill="#fcf6a8"/>
            <path id="Trazado_885348" data-name="Trazado 885348" d="M108.939,116.945a6.764,6.764,0,1,1-6.764-6.764,6.765,6.765,0,0,1,6.764,6.764" transform="translate(105.691 122.053)" fill="#fff"/>
            <path id="Trazado_885349" data-name="Trazado 885349" d="M24.346,49.513a15.766,15.766,0,0,0-2.873,1.568l-3.807-2.373L13.609,53.28l2.839,3.526a15.744,15.744,0,0,0-1.178,3.023l-4.477.634-.164,6.108,4.49.887a15.639,15.639,0,0,0,1.022,3.027l-3.052,3.4,3.8,4.789,4.051-2.226a15.7,15.7,0,0,0,2.692,1.64l-.158,4.605,5.99,1.227.852-2.207V76.587a12.635,12.635,0,0,1-1.8-25.135,13.045,13.045,0,0,1,1.8-.122V44.145l-5.87.87Z" transform="translate(11.774 48.902)" fill="#48606b"/>
            <path id="Trazado_885350" data-name="Trazado 885350" d="M37.722,54.887l-4.5.7a15.8,15.8,0,0,0-2.009-2.534l1.69-4.19-5.206-3.2L24.734,49.05a15.484,15.484,0,0,0-3.2-.651l-1.389-4.266-.173.025v7.185a12.635,12.635,0,0,1,1.9,25.135,12.319,12.319,0,0,1-1.9.12v5.124l.824-2.123c.5-.025,1.01-.074,1.518-.15a14.878,14.878,0,0,0,1.581-.318l2.852,3.644,5.373-2.909-1.494-4.388A15.8,15.8,0,0,0,32.7,73.125l4.515.955,2.245-5.68L35.53,66.016a15.514,15.514,0,0,0,.091-3.181l4.032-2.15Z" transform="translate(22.12 48.888)" fill="#2c444e"/>
            <path id="Trazado_885351" data-name="Trazado 885351" d="M14.131,62.036A12.633,12.633,0,0,0,26.587,72.809v-2.59a10.043,10.043,0,0,1-1.425-19.977,10.223,10.223,0,0,1,1.425-.1v-2.59a12.143,12.143,0,0,0-1.8.124A12.64,12.64,0,0,0,14.131,62.036" transform="translate(15.5 52.678)" fill="#293c43"/>
            <path id="Trazado_885352" data-name="Trazado 885352" d="M19.968,47.554v2.59a10.038,10.038,0,1,1,0,20.074v2.593a12.873,12.873,0,0,0,1.9-.122,12.635,12.635,0,0,0-1.9-25.135" transform="translate(22.12 52.678)" fill="#142124"/>
            <path id="Trazado_885353" data-name="Trazado 885353" d="M51.324,56.115l-.276-3.084-2.321-.183a7.954,7.954,0,0,0-.683-1.459L49.381,49.5l-2.194-2.184-1.876,1.338a7.913,7.913,0,0,0-1.486-.689l-.19-2.283-3.084-.261-.569,2.211a7.854,7.854,0,0,0-1.6.432l-1.6-1.612-.072.051-2.46,1.73.982,2.055a8.039,8.039,0,0,0-.944,1.364l-2.262-.207-.795,2.991,2.089.951a7.642,7.642,0,0,0,.156,1.636l-1.884,1.3,1.315,2.8,2.234-.618A7.81,7.81,0,0,0,36.3,61.643l-.609,2.232,2.808,1.3,1.326-1.929a7.867,7.867,0,0,0,1.589.129l.98,2.12,2.987-.809L45.262,63.5l-.112-1.145c.221-.129.443-.268.653-.415a7.963,7.963,0,0,0,.643-.5l2.118,1,1.768-2.54L48.66,58.248a7.921,7.921,0,0,0,.407-1.539Zm-7.242,3.377a4.934,4.934,0,1,1-5.676-8.073,4.713,4.713,0,0,1,.6-.356,4.931,4.931,0,0,1,5.073,8.429" transform="translate(34.598 50.314)" fill="#1d2a38"/>
            <path id="Trazado_885354" data-name="Trazado 885354" d="M48.468,85.265c-2.886-6.49-3.918-4.074-8.939-9.932-3.929-11.129-8.68-5.3-13.9-9.93L19.87,66.728l5.921,5.461-.662,5.628,2.98,7.449,4.964,2.98L28.6,93.707,32.841,96.2c2.186-.325,5.305-.731,8.187-1.092.354.487.725,1,1.14,1.566l6.051.757c.019-.314.105-2,.143-3.828,0,.207-.011.413-.015.615.185-.023,4.9-.493,5.084-.512,0,0,.5-3.971-4.964-8.442m-10.49,5.659c.266.363.516.7.759,1.037Zm10.1-2.348c-.032-.048-.067-.084-.105-.084.038,0,.074.036.105.084m.116.31a2.8,2.8,0,0,1,.061.337,2.8,2.8,0,0,0-.061-.337m-.095-.28a1,1,0,0,1,.084.23,1,1,0,0,0-.084-.23m.278,4c0-.213,0-.426,0-.634,0,.209,0,.422,0,.634m-.011.784c0-.223.008-.449.011-.674,0,.226-.006.451-.011.674m-.1-4.121c.019.141.036.3.048.472-.013-.171-.03-.331-.048-.472m.057.573c.011.177.023.365.032.567-.008-.2-.021-.39-.032-.567m.032.588c.008.2.015.409.019.626,0-.217-.011-.428-.019-.626m.021.746c0,.219.006.443.008.67,0-.228,0-.453-.008-.67" transform="translate(22.011 72.451)" fill="#222f38"/>
            <path id="Trazado_885355" data-name="Trazado 885355" d="M46.49,88.2l-4.964-2.98-2.982-7.447,2.932-5.594-2.344-6.745-6.547,1.414-1.241,3.476-3.349.868-3.6,2.856L21.785,78.4l-4.593.249L15.2,83.736l-3.6.62L7.758,89.695c2.129,2.837,3.558,5.938,5.463,5.461,1.983-.5,5.491,2.439,5.491,2.439s6.922,4.515,8.412,3.522c1.364-.911,16.769-4.608,19.134-4.957l-4.237-2.491Z" transform="translate(8.594 72.49)" fill="#445158"/>
            <path id="Trazado_885356" data-name="Trazado 885356" d="M70.3,79.3l-.312,1.077c-8.02,4.515-46,25.879-53.7,30.206h-.571C6.685,79.141,8.255,84.6,6.731,79.3Z" transform="translate(7.456 87.848)" fill="#415e7c"/>
            <path id="Trazado_885357" data-name="Trazado 885357" d="M64.964,79.815c-1.111,3.861.253-.885-8.68,30.206H11.265c7.716-4.34,45.7-25.706,53.7-30.206" transform="translate(12.479 88.415)" fill="#365068"/>
            <path id="Trazado_885358" data-name="Trazado 885358" d="M70.3,79.3c-.4,1.383-.167.571-1.147,3.973H7.873L6.731,79.3Z" transform="translate(7.456 87.848)" fill="#1c484c"/>
            <path id="Trazado_885359" data-name="Trazado 885359" d="M5.089,77.261a5.2,5.2,0,0,0-.312,2.649H75.951a5.216,5.216,0,0,0-.314-2.649Z" transform="translate(5.286 85.586)" fill="#f7dc54"/>
            <path id="Trazado_885360" data-name="Trazado 885360" d="M4.773,78.518v.662a2.98,2.98,0,0,0,2.98,2.98H72.969a2.979,2.979,0,0,0,2.98-2.98v-.662Z" transform="translate(5.287 86.978)" fill="#f3b70e"/>
            <rect id="Rectángulo_408062" data-name="Rectángulo 408062" width="2.152" height="28.14" transform="translate(27.302 170.089) rotate(-8.051)" fill="#1c484c"/>
            <rect id="Rectángulo_408063" data-name="Rectángulo 408063" width="28.139" height="2.152" transform="translate(60.241 196.988) rotate(-81.949)" fill="#1c484c"/>
            <rect id="Rectángulo_408064" data-name="Rectángulo 408064" width="1.863" height="28.469" transform="translate(46.042 169.469)" fill="#1c484c"/>
            <path id="Trazado_885361" data-name="Trazado 885361" d="M63.627,95.106H10.919a2.11,2.11,0,0,0,0,4.22H63.745a4.715,4.715,0,1,0-.118-4.22M67.9,99.673c-3.41,0-3.417-5.164,0-5.164s3.415,5.164,0,5.164" transform="translate(9.777 102.337)" fill="#f3b70e"/>
            <path id="Trazado_885362" data-name="Trazado 885362" d="M10.8,97.285a5.623,5.623,0,0,1,10.01,0Z" transform="translate(11.966 104.378)" fill="#1f9e94"/>
            <path id="Trazado_885363" data-name="Trazado 885363" d="M39.19,97.285H29.178a5.624,5.624,0,0,1,10.012,0" transform="translate(32.322 104.378)" fill="#1f9e94"/>
            <path id="Trazado_885364" data-name="Trazado 885364" d="M21.055,99.852a5.628,5.628,0,1,1-5.628-5.628,5.627,5.627,0,0,1,5.628,5.628" transform="translate(10.856 104.376)" fill="#1d2a38"/>
            <path id="Trazado_885365" data-name="Trazado 885365" d="M17.521,98.62a3.311,3.311,0,0,1-6.623,0c0-4.376,6.623-4.38,6.623,0" transform="translate(12.072 105.609)" fill="#687278"/>
            <path id="Trazado_885366" data-name="Trazado 885366" d="M39.431,99.852A5.628,5.628,0,1,1,33.8,94.224a5.627,5.627,0,0,1,5.628,5.628" transform="translate(31.212 104.376)" fill="#1d2a38"/>
            <path id="Trazado_885367" data-name="Trazado 885367" d="M32.571,101.946c-4.374,0-4.378-6.623,0-6.623s4.378,6.623,0,6.623" transform="translate(32.445 105.594)" fill="#687278"/>
            <path id="Trazado_885368" data-name="Trazado 885368" d="M12.562,85.631a1.171,1.171,0,0,1-1.153-.97L11.1,82.929a1.172,1.172,0,1,1,2.308-.407l.308,1.733a1.176,1.176,0,0,1-.951,1.359,1.411,1.411,0,0,1-.207.017" transform="translate(12.28 90.341)" fill="#1c484c"/>
            <path id="Trazado_885369" data-name="Trazado 885369" d="M14.692,97.662a1.168,1.168,0,0,1-1.153-.967l-.658-3.724a1.171,1.171,0,1,1,2.306-.411l.66,3.727a1.165,1.165,0,0,1-1.155,1.376m-1.317-7.449a1.174,1.174,0,0,1-1.155-.967l-.658-3.727a1.172,1.172,0,1,1,2.308-.407l.66,3.724a1.175,1.175,0,0,1-.951,1.359,1.383,1.383,0,0,1-.2.017" transform="translate(12.787 93.208)" fill="#1c484c"/>
            <path id="Trazado_885370" data-name="Trazado 885370" d="M14.273,95.287a1.175,1.175,0,0,1-1.155-.97l-.306-1.73a1.172,1.172,0,0,1,2.308-.411l.308,1.733a1.171,1.171,0,0,1-.948,1.36,1.2,1.2,0,0,1-.207.019" transform="translate(14.173 101.039)" fill="#1c484c"/>
            <path id="Trazado_885371" data-name="Trazado 885371" d="M21.254,106.479a1.173,1.173,0,0,1-1.174-1.172v-1.564a1.174,1.174,0,0,1,2.348,0v1.564a1.173,1.173,0,0,1-1.174,1.172m0-5.082a1.173,1.173,0,0,1-1.174-1.172v-3.52a1.174,1.174,0,0,1,2.348,0v3.52a1.173,1.173,0,0,1-1.174,1.172m0-7.038a1.173,1.173,0,0,1-1.174-1.172V89.67a1.174,1.174,0,0,1,2.348,0v3.518a1.173,1.173,0,0,1-1.174,1.172m0-7.036A1.173,1.173,0,0,1,20.08,86.15V82.632a1.174,1.174,0,0,1,2.348,0V86.15a1.173,1.173,0,0,1-1.174,1.174" transform="translate(22.244 90.237)" fill="#1c484c"/>
            <path id="Trazado_885372" data-name="Trazado 885372" d="M28.394,106.685a1.171,1.171,0,0,1-1.172-1.168,1.145,1.145,0,0,1,.173-.618c.038-.169.114-.569.23-1.488a1.173,1.173,0,1,1,2.327.3c-.242,1.916-.375,2.972-1.549,2.978Zm.771-5.465a1.045,1.045,0,0,1-.114,0A1.174,1.174,0,0,1,28,99.936c.1-1.085.211-2.274.314-3.5a1.172,1.172,0,1,1,2.335.2c-.1,1.237-.209,2.432-.314,3.526a1.171,1.171,0,0,1-1.166,1.06m.6-7.029c-.032,0-.061,0-.093,0a1.171,1.171,0,0,1-1.079-1.26l.27-3.514a1.173,1.173,0,0,1,2.34.175l-.27,3.522a1.173,1.173,0,0,1-1.168,1.081m.529-7.038c-.03,0-.055,0-.084,0a1.175,1.175,0,0,1-1.088-1.256c.154-2.118.247-3.524.247-3.524a1.173,1.173,0,0,1,2.342.156s-.095,1.412-.247,3.537a1.175,1.175,0,0,1-1.17,1.09" transform="translate(30.155 90.031)" fill="#1c484c"/>
            <path id="Trazado_885373" data-name="Trazado 885373" d="M84.548,85.265c-2.883-6.49-3.916-4.074-8.937-9.932-3.927-11.129-8.678-5.3-13.9-9.93l-5.754,1.324,5.921,5.461-.662,5.628,2.978,7.449,4.966,2.98-4.468,5.461L68.921,96.2c2.188-.325,5.307-.731,8.189-1.092.354.487.725,1,1.14,1.566l6.051.757c.017-.314.105-2,.143-3.828-.006.207-.011.413-.017.615.188-.023,4.9-.493,5.086-.512,0,0,.5-3.971-4.966-8.442M74.06,90.925c.266.363.516.7.759,1.037Zm10.1-2.348c-.032-.048-.067-.084-.108-.084.04,0,.076.036.108.084m.116.31a3.288,3.288,0,0,1,.061.337,3.288,3.288,0,0,0-.061-.337m-.095-.28a1,1,0,0,1,.084.23,1,1,0,0,0-.084-.23m.278,4c0-.213,0-.426,0-.634,0,.209,0,.422,0,.634m-.011.784c0-.223.006-.449.011-.674,0,.226-.006.451-.011.674m-.1-4.121c.019.141.034.3.048.472-.015-.171-.03-.331-.048-.472m.057.573c.011.177.023.365.032.567-.008-.2-.021-.39-.032-.567m.032.588c.008.2.015.409.019.626,0-.217-.011-.428-.019-.626m.021.746q.006.329.006.67c0-.228,0-.453-.006-.67" transform="translate(61.981 72.451)" fill="#222f38"/>
            <path id="Trazado_885374" data-name="Trazado 885374" d="M82.573,88.2l-4.966-2.98-2.98-7.447,2.932-5.594-2.344-6.745-6.547,1.414-1.241,3.476-3.351.868-3.6,2.856L57.868,78.4l-4.593.249-1.988,5.09-3.6.62-3.849,5.339c2.129,2.837,3.56,5.938,5.463,5.461,1.986-.5,5.491,2.439,5.491,2.439s6.924,4.515,8.414,3.522c1.364-.911,16.769-4.608,19.132-4.957L78.1,93.668Z" transform="translate(48.563 72.49)" fill="#445158"/>
            <path id="Trazado_885375" data-name="Trazado 885375" d="M106.383,79.3l-.314,1.077c-8.02,4.515-46,25.879-53.7,30.206H51.8C42.767,79.141,44.333,84.6,42.813,79.3Z" transform="translate(47.426 87.848)" fill="#415e7c"/>
            <path id="Trazado_885376" data-name="Trazado 885376" d="M101.046,79.815c-1.111,3.861.253-.885-8.68,30.206H47.347c7.716-4.34,45.7-25.706,53.7-30.206" transform="translate(52.449 88.415)" fill="#365068"/>
            <path id="Trazado_885377" data-name="Trazado 885377" d="M106.383,79.3c-.4,1.383-.167.571-1.147,3.973H43.955L42.813,79.3Z" transform="translate(47.426 87.848)" fill="#1c484c"/>
            <path id="Trazado_885378" data-name="Trazado 885378" d="M41.171,77.261a5.2,5.2,0,0,0-.312,2.649h71.172a5.22,5.22,0,0,0-.312-2.649Z" transform="translate(45.255 85.586)" fill="#f7dc54"/>
            <path id="Trazado_885379" data-name="Trazado 885379" d="M40.855,78.518v.662a2.98,2.98,0,0,0,2.978,2.98h65.218a2.982,2.982,0,0,0,2.98-2.98v-.662Z" transform="translate(45.257 86.978)" fill="#f3b70e"/>
            <rect id="Rectángulo_408065" data-name="Rectángulo 408065" width="2.152" height="28.139" transform="translate(103.353 170.089) rotate(-8.051)" fill="#1c484c"/>
            <rect id="Rectángulo_408066" data-name="Rectángulo 408066" width="28.139" height="2.152" transform="translate(136.293 196.988) rotate(-81.949)" fill="#1c484c"/>
            <rect id="Rectángulo_408067" data-name="Rectángulo 408067" width="1.863" height="28.469" transform="translate(122.093 169.469)" fill="#1c484c"/>
            <path id="Trazado_885380" data-name="Trazado 885380" d="M99.707,95.106H47a2.11,2.11,0,0,0,0,4.22H99.825a4.716,4.716,0,1,0-.118-4.22m4.277,4.568c-3.412,0-3.417-5.164,0-5.164s3.415,5.164,0,5.164" transform="translate(49.747 102.337)" fill="#f3b70e"/>
            <path id="Trazado_885381" data-name="Trazado 885381" d="M46.883,97.285a5.624,5.624,0,0,1,10.012,0Z" transform="translate(51.935 104.378)" fill="#1f9e94"/>
            <path id="Trazado_885382" data-name="Trazado 885382" d="M75.27,97.285H65.26a5.623,5.623,0,0,1,10.01,0" transform="translate(72.292 104.378)" fill="#1f9e94"/>
            <path id="Trazado_885383" data-name="Trazado 885383" d="M57.138,99.852a5.629,5.629,0,1,1-5.628-5.628,5.627,5.627,0,0,1,5.628,5.628" transform="translate(50.825 104.376)" fill="#1d2a38"/>
            <path id="Trazado_885384" data-name="Trazado 885384" d="M53.6,98.62a3.311,3.311,0,0,1-6.623,0c0-4.376,6.623-4.38,6.623,0" transform="translate(52.042 105.609)" fill="#687278"/>
            <path id="Trazado_885385" data-name="Trazado 885385" d="M75.513,99.852a5.628,5.628,0,1,1-5.628-5.628,5.627,5.627,0,0,1,5.628,5.628" transform="translate(71.182 104.376)" fill="#1d2a38"/>
            <path id="Trazado_885386" data-name="Trazado 885386" d="M68.654,101.946c-4.376,0-4.38-6.623,0-6.623s4.378,6.623,0,6.623" transform="translate(72.414 105.594)" fill="#687278"/>
            <path id="Trazado_885387" data-name="Trazado 885387" d="M48.644,85.631a1.17,1.17,0,0,1-1.153-.97l-.306-1.733a1.172,1.172,0,1,1,2.308-.407l.306,1.733a1.175,1.175,0,0,1-.948,1.359,1.411,1.411,0,0,1-.207.017" transform="translate(52.249 90.341)" fill="#1c484c"/>
            <path id="Trazado_885388" data-name="Trazado 885388" d="M50.774,97.662a1.172,1.172,0,0,1-1.155-.967l-.658-3.724a1.172,1.172,0,0,1,2.308-.411l.66,3.727a1.175,1.175,0,0,1-.951,1.359,1.129,1.129,0,0,1-.2.017m-1.319-7.449a1.172,1.172,0,0,1-1.153-.967l-.658-3.727a1.172,1.172,0,1,1,2.308-.407l.66,3.724a1.176,1.176,0,0,1-.951,1.359,1.388,1.388,0,0,1-.207.017" transform="translate(52.757 93.208)" fill="#1c484c"/>
            <path id="Trazado_885389" data-name="Trazado 885389" d="M50.353,95.287a1.173,1.173,0,0,1-1.153-.97l-.306-1.73a1.172,1.172,0,0,1,2.308-.411l.308,1.733a1.174,1.174,0,0,1-.951,1.36,1.159,1.159,0,0,1-.207.019" transform="translate(54.143 101.039)" fill="#1c484c"/>
            <path id="Trazado_885390" data-name="Trazado 885390" d="M57.336,106.479a1.173,1.173,0,0,1-1.174-1.172v-1.564a1.174,1.174,0,0,1,2.348,0v1.564a1.173,1.173,0,0,1-1.174,1.172m0-5.082a1.173,1.173,0,0,1-1.174-1.172v-3.52a1.174,1.174,0,0,1,2.348,0v3.52a1.173,1.173,0,0,1-1.174,1.172m0-7.038a1.173,1.173,0,0,1-1.174-1.172V89.67a1.174,1.174,0,0,1,2.348,0v3.518a1.173,1.173,0,0,1-1.174,1.172m0-7.036a1.173,1.173,0,0,1-1.174-1.174V82.632a1.174,1.174,0,0,1,2.348,0V86.15a1.173,1.173,0,0,1-1.174,1.174" transform="translate(62.213 90.237)" fill="#1c484c"/>
            <path id="Trazado_885391" data-name="Trazado 885391" d="M64.477,106.685a1.174,1.174,0,0,1-1.174-1.168,1.147,1.147,0,0,1,.175-.618c.038-.169.114-.569.228-1.488a1.174,1.174,0,0,1,2.329.3c-.242,1.916-.377,2.972-1.549,2.978Zm.771-5.465a1.046,1.046,0,0,1-.114,0,1.174,1.174,0,0,1-1.056-1.279c.1-1.085.209-2.274.314-3.5a1.172,1.172,0,1,1,2.335.2c-.1,1.237-.211,2.432-.314,3.526a1.173,1.173,0,0,1-1.166,1.06m.6-7.029c-.032,0-.059,0-.093,0a1.171,1.171,0,0,1-1.077-1.26l.27-3.514a1.173,1.173,0,0,1,2.34.175l-.27,3.522a1.174,1.174,0,0,1-1.17,1.081m.531-7.038c-.03,0-.055,0-.084,0a1.174,1.174,0,0,1-1.088-1.256c.154-2.118.247-3.524.247-3.524a1.173,1.173,0,0,1,2.342.156s-.095,1.412-.249,3.537a1.173,1.173,0,0,1-1.168,1.09" transform="translate(70.124 90.031)" fill="#1c484c"/>
            <rect id="Rectángulo_408068" data-name="Rectángulo 408068" width="18.304" height="2.133" transform="translate(77.957 198.326)" fill="#f7dc54"/>
            <path id="Trazado_885392" data-name="Trazado 885392" d="M44.168,115.4l13.079-4.487L53.183,86.9c-18.546,8.016-9.015,28.5-9.015,28.5" transform="translate(46.214 96.259)" fill="#2c3a48"/>
            <path id="Trazado_885393" data-name="Trazado 885393" d="M50.868,86.269a30.608,30.608,0,0,0-3.71,1.322l4.064,24.016,4.019-1.378Z" transform="translate(52.239 95.564)" fill="#1d2a38"/>
            <path id="Trazado_885394" data-name="Trazado 885394" d="M48.776,123.626l6.077-12.421L35,97.1c-7.447,18.784,13.78,26.53,13.78,26.53" transform="translate(37.012 107.558)" fill="#2c3a48"/>
            <path id="Trazado_885395" data-name="Trazado 885395" d="M35.853,95.409a31.226,31.226,0,0,0-1.69,3.558L54.02,113.074l1.867-3.817Z" transform="translate(37.844 105.689)" fill="#1d2a38"/>
            <path id="Trazado_885396" data-name="Trazado 885396" d="M60.691,124.651,56.2,111.57l-24.016,4.066c8.016,18.548,28.5,9.015,28.5,9.015" transform="translate(35.656 123.591)" fill="#2c3a48"/>
            <path id="Trazado_885397" data-name="Trazado 885397" d="M31.561,114.037a30.606,30.606,0,0,0,1.324,3.71L56.9,113.682l-1.378-4.019Z" transform="translate(34.962 121.479)" fill="#1d2a38"/>
            <path id="Trazado_885398" data-name="Trazado 885398" d="M68.919,123.15,56.5,117.073,42.389,136.93c18.784,7.447,26.53-13.78,26.53-13.78" transform="translate(46.956 129.687)" fill="#2c3a48"/>
            <path id="Trazado_885399" data-name="Trazado 885399" d="M40.7,136.221a30.822,30.822,0,0,0,3.556,1.688l14.111-19.855-3.819-1.867Z" transform="translate(45.086 128.706)" fill="#1d2a38"/>
            <path id="Trazado_885400" data-name="Trazado 885400" d="M69.943,114.946l-13.081,4.485,4.066,24.018c18.546-8.016,9.015-28.5,9.015-28.5" transform="translate(62.989 127.331)" fill="#2c3a48"/>
            <path id="Trazado_885401" data-name="Trazado 885401" d="M59.331,142.412a31.1,31.1,0,0,0,3.71-1.322l-4.066-24.016-4.019,1.378Z" transform="translate(60.876 129.69)" fill="#1d2a38"/>
            <path id="Trazado_885402" data-name="Trazado 885402" d="M68.442,105.681,62.365,118.1l19.857,14.107c7.447-18.782-13.78-26.528-13.78-26.528" transform="translate(69.085 117.068)" fill="#2c3a48"/>
            <path id="Trazado_885403" data-name="Trazado 885403" d="M81.513,129.241a31.23,31.23,0,0,0,1.69-3.558L63.346,111.574l-1.867,3.819Z" transform="translate(68.103 123.596)" fill="#1d2a38"/>
            <path id="Trazado_885404" data-name="Trazado 885404" d="M60.238,98.876l4.485,13.081,24.016-4.066c-8.014-18.548-28.5-9.015-28.5-9.015" transform="translate(66.729 106.817)" fill="#2c3a48"/>
            <path id="Trazado_885405" data-name="Trazado 885405" d="M87.7,105.576a30.743,30.743,0,0,0-1.322-3.71l-24.016,4.066,1.378,4.019Z" transform="translate(69.087 112.842)" fill="#1d2a38"/>
            <path id="Trazado_885406" data-name="Trazado 885406" d="M50.974,103.484l12.421,6.075L77.5,89.7c-18.782-7.447-26.528,13.78-26.528,13.78" transform="translate(56.466 97.614)" fill="#2c3a48"/>
            <path id="Trazado_885407" data-name="Trazado 885407" d="M74.533,90.559a31.2,31.2,0,0,0-3.558-1.688L56.866,108.726l3.819,1.867Z" transform="translate(62.993 98.447)" fill="#1d2a38"/>
            <path id="Trazado_885408" data-name="Trazado 885408" d="M42.362,101.415s.5-10.239,7.953-13.024c.993,4.574,1.49,7.853,1.49,7.853a51.532,51.532,0,0,0-9.443,5.17" transform="translate(46.926 97.915)" fill="#3c4a58"/>
            <path id="Trazado_885409" data-name="Trazado 885409" d="M38.554,113.711s-6.89-7.592-3.585-14.834c3.937,2.531,6.61,4.5,6.61,4.5a51.472,51.472,0,0,0-3.025,10.334" transform="translate(37.743 109.531)" fill="#3c4a58"/>
            <path id="Trazado_885410" data-name="Trazado 885410" d="M46.707,123.259s-10.239-.5-13.024-7.953c4.572-.995,7.853-1.492,7.853-1.492a51.593,51.593,0,0,0,5.17,9.445" transform="translate(37.312 126.077)" fill="#3c4a58"/>
            <path id="Trazado_885411" data-name="Trazado 885411" d="M59,126.047s-7.594,6.888-14.832,3.585c2.529-3.937,4.5-6.608,4.5-6.608A51.526,51.526,0,0,0,59,126.047" transform="translate(48.929 136.28)" fill="#3c4a58"/>
            <path id="Trazado_885412" data-name="Trazado 885412" d="M68.55,120.8s-.5,10.239-7.953,13.024c-.995-4.574-1.49-7.853-1.49-7.853a51.531,51.531,0,0,0,9.443-5.17" transform="translate(65.476 133.81)" fill="#3c4a58"/>
            <path id="Trazado_885413" data-name="Trazado 885413" d="M71.339,109.45s6.89,7.592,3.585,14.832c-3.935-2.531-6.608-4.5-6.608-4.5a51.527,51.527,0,0,0,3.023-10.334" transform="translate(75.677 121.243)" fill="#3c4a58"/>
            <path id="Trazado_885414" data-name="Trazado 885414" d="M66.087,97.07s10.239.5,13.024,7.953c-4.574.995-7.856,1.492-7.856,1.492a51.526,51.526,0,0,0-5.168-9.445" transform="translate(73.208 107.529)" fill="#3c4a58"/>
            <path id="Trazado_885415" data-name="Trazado 885415" d="M54.742,93.261s7.592-6.888,14.832-3.585c-2.529,3.937-4.5,6.61-4.5,6.61a51.482,51.482,0,0,0-10.332-3.025" transform="translate(60.64 98.346)" fill="#3c4a58"/>
            <path id="Trazado_885416" data-name="Trazado 885416" d="M107.118,126.334a35.49,35.49,0,1,1-35.49-35.49,35.491,35.491,0,0,1,35.49,35.49" transform="translate(40.031 100.632)" fill="#2c3a48"/>
            <path id="Trazado_885417" data-name="Trazado 885417" d="M100.594,124.088A31.215,31.215,0,1,1,69.379,92.872a31.215,31.215,0,0,1,31.216,31.216" transform="translate(42.277 102.879)" fill="#3c4a58"/>
            <path id="Trazado_885418" data-name="Trazado 885418" d="M59.949,110.085a4.572,4.572,0,1,1-4.572-4.572,4.573,4.573,0,0,1,4.572,4.572" transform="translate(56.28 116.882)" fill="#1d2a38"/>
            <path id="Trazado_885419" data-name="Trazado 885419" d="M64.54,122.963c-4.785-11.331-4.631-12.1-6.479-12.1-4.361,0-2.89-1.026-8.431,12.1-1.035,2.451.257,5.512,2.325,5.512H62.213c2.068,0,3.36-3.06,2.327-5.512" transform="translate(54.573 122.792)" fill="#1d2a38"/>
            <path id="Trazado_885420" data-name="Trazado 885420" d="M70.333,109.821c-12.208-1.524-12.792-2.038-13.717-.436-2.179,3.775-2.333,1.99,6.262,13.348,1.6,2.12,4.9,2.534,5.935.742l5.13-8.882c1.033-1.792-.972-4.443-3.611-4.772" transform="translate(61.324 120.084)" fill="#1d2a38"/>
            <path id="Trazado_885421" data-name="Trazado 885421" d="M62.9,101.145c-7.421,9.809-8.161,10.058-7.238,11.66,2.182,3.777.556,3.016,14.693,1.252,2.639-.329,4.643-2.98,3.611-4.772l-5.13-8.882c-1.033-1.792-4.331-1.378-5.935.742" transform="translate(61.306 109.972)" fill="#1d2a38"/>
            <path id="Trazado_885422" data-name="Trazado 885422" d="M49.63,101.665c4.785,11.333,4.629,12.1,6.479,12.1,4.363,0,2.888,1.029,8.431-12.1,1.031-2.449-.259-5.512-2.327-5.512H51.957c-2.07,0-3.364,3.063-2.327,5.512" transform="translate(54.573 106.513)" fill="#1d2a38"/>
            <path id="Trazado_885423" data-name="Trazado 885423" d="M45.529,114.057c12.206,1.524,12.792,2.038,13.717.436,2.179-3.775,2.331-1.99-6.262-13.348-1.606-2.12-4.9-2.534-5.938-.742l-5.128,8.882c-1.033,1.792.972,4.443,3.611,4.772" transform="translate(46.129 109.972)" fill="#1d2a38"/>
            <path id="Trazado_885424" data-name="Trazado 885424" d="M52.984,122.753c7.421-9.809,8.163-10.06,7.236-11.66-2.182-3.777-.556-3.016-14.691-1.252-2.639.329-4.641,2.98-3.611,4.772l5.128,8.882c1.035,1.789,4.331,1.378,5.938-.742" transform="translate(46.129 120.064)" fill="#1d2a38"/>
            <g id="Grupo_1111886" data-name="Grupo 1111886" transform="translate(80.868 195.686)" style="mix-blend-mode: overlay;isolation: isolate">
              <g id="Grupo_1111885" data-name="Grupo 1111885">
                <g id="Grupo_1111884" data-name="Grupo 1111884" clip-path="url(#clip-path-3)">
                  <path id="Trazado_885425" data-name="Trazado 885425" d="M69.583,92.841a31.208,31.208,0,0,0-22.2,53.147L91.4,101.74a31.106,31.106,0,0,0-21.817-8.9" transform="translate(-38.367 -92.841)" fill="#8c9aa8"/>
                </g>
              </g>
            </g>
          </g>
        </g>
      </g>
    </g>
  </g>
</svg>
