<svg id="Grupo_1110520" data-name="Grupo 1110520" xmlns="http://www.w3.org/2000/svg" xmlns:xlink="http://www.w3.org/1999/xlink" width="67.615" height="67.478" viewBox="0 0 67.615 67.478">
  <defs>
    <clipPath id="clip-path">
      <rect id="Rectángulo_406885" data-name="Rectángulo 406885" width="67.615" height="67.478" fill="#87a771"/>
    </clipPath>
  </defs>
  <g id="Grupo_1110388" data-name="Grupo 1110388" clip-path="url(#clip-path)">
    <path id="Trazado_877652" data-name="Trazado 877652" d="M24.076,5.858l-.7-2.089c4.452,1.624,8.109,1.1,10.436-3.77,2.348,4.691,5.907,5.5,10.457,3.764l-.64,2.128a30.15,30.15,0,0,1,18.393,19.1h5.547V44.618h-4.19v2.154l2.027.089v2.152c-1.834,0-3.641-.052-5.441.035a2,2,0,0,0-1.386.738,30.819,30.819,0,0,1-9.773,9.34,1.531,1.531,0,0,0-.735.974c-.075,1.711-.034,3.427-.034,5.24H63.213v2.137H4.469V65.4h13c0-2.347.029-4.6-.034-6.849-.008-.3-.462-.6-.736-.879-2.265-2.276-4.528-4.555-6.814-6.809a4.346,4.346,0,0,0-1.374-.987,4.17,4.17,0,0,1-2.991-4.243,5.037,5.037,0,0,0-2.133-4.605,9.706,9.706,0,0,1,1.375-15.7A3.022,3.022,0,0,0,6,24.024,29.4,29.4,0,0,1,23.429,6.181c.2-.08.391-.194.646-.323m21.869,38.82v-19.7H59.5C58.387,18.643,49.445,9.522,43.2,8.291c.045,3.083,2.336,4.447,4.916,5.857-4.711,2.062-6.263,5.169-4.176,9.627-2.078,0-4.178-.489-5.864.138s-2.933,2.368-4.161,3.435C32.5,26.226,31.138,24.54,29.4,23.94c-1.751-.606-3.876-.134-5.849-.134.726-1.638,1.737-3.684.584-5.586a30.2,30.2,0,0,0-3.958-4.4c2.11-1.146,4.3-2.517,4.319-5.718A27.42,27.42,0,0,0,8.4,23.913H9.764a9.827,9.827,0,0,1,9.367,6.632A9.593,9.593,0,0,1,15.795,41.5a3.389,3.389,0,0,0-1.586,3.333,4.8,4.8,0,0,1-2.639,4.976l5.58,5.655.4-.278V52.477L26.269,50.7V45.776l2.059-.1c.049-.743.092-1.4.133-2.027h2.162v1.991h2.192v-4.2h2.155v4.188h2.106c.035-.727.065-1.348.1-1.99h2.2v2.139h2.124v7.548l6.493,1.345c.037.774.069,1.437.11,2.312a26.679,26.679,0,0,0,8.288-7.974H48.108V46.875l2.038-.118V44.678Zm-35-1.269.424.3c.254-.291.528-.568.76-.876a15.139,15.139,0,0,1,2.156-2.842,7.825,7.825,0,0,0,2.824-8.611,7.631,7.631,0,0,0-14.483-.109A7.805,7.805,0,0,0,5.428,40a15.809,15.809,0,0,1,2.143,2.848,6.468,6.468,0,0,0,.887.8,36.443,36.443,0,0,0,.267-6.111,1.629,1.629,0,0,0-.61-1.04,3.265,3.265,0,1,1,3.449.006,1.481,1.481,0,0,0-.592.915c-.053,1.993-.027,3.988-.027,5.983m22.9-19.159a8.389,8.389,0,0,1,7.039-3.095,8.044,8.044,0,0,1,2.9-7.09,8.318,8.318,0,0,1-2.842-7.253,8.088,8.088,0,0,1-6.934-2.651,22.3,22.3,0,0,1-3.376,2.071,23.038,23.038,0,0,1-3.878.822A8.2,8.2,0,0,1,23.91,14.1a8.434,8.434,0,0,1,2.868,7.264,8.146,8.146,0,0,1,7.063,2.881m1.135,41.091V52.072l4.23.774V48.028H28.459V50.2l2.184-.277V65.341ZM19.769,54.264V65.256h8.567V52.543l-8.567,1.721m17.457.464V65.3h8.543V56.441l-8.543-1.713M52.3,27.3H48.1v6.366h4.2Zm2.376,6.324h4.188V27.256H54.68Zm10.692-6.336H61.233V33.7h4.139ZM48.133,42.35h4.191V35.984H48.133Zm10.745-6.333H54.69v6.37h4.188Zm2.349,6.331h4.186V35.982H61.227Zm-8.774,4.374h8.6V44.728h-8.6Zm-40.526-.934H7.713a2.072,2.072,0,0,0,2.067,2.105c1.169.1,1.941-.692,2.146-2.105M9.823,35.28c.521-.706,1.084-1.145,1.025-1.47a1.645,1.645,0,0,0-1.022-1.071c-.248-.066-.96.585-.975.935-.018.417.487.856.973,1.606" transform="translate(0 0.001)" fill="#87a771"/>
    <rect id="Rectángulo_406876" data-name="Rectángulo 406876" width="2" height="2.072" transform="translate(0.109 65.394)" fill="#87a771"/>
    <rect id="Rectángulo_406877" data-name="Rectángulo 406877" width="2.044" height="2.02" transform="translate(65.571 65.444)" fill="#87a771"/>
    <rect id="Rectángulo_406878" data-name="Rectángulo 406878" width="15.15" height="2.035" transform="translate(26.289 30.525)" fill="#87a771"/>
    <rect id="Rectángulo_406879" data-name="Rectángulo 406879" width="2.02" height="2.044" transform="translate(26.283 34.884)" fill="#87a771"/>
    <rect id="Rectángulo_406880" data-name="Rectángulo 406880" width="2.04" height="2.016" transform="translate(30.637 34.922)" fill="#87a771"/>
    <rect id="Rectángulo_406881" data-name="Rectángulo 406881" width="2.044" height="2.02" transform="translate(34.999 34.92)" fill="#87a771"/>
    <rect id="Rectángulo_406882" data-name="Rectángulo 406882" width="2.073" height="2.017" transform="translate(39.364 34.921)" fill="#87a771"/>
    <path id="Trazado_877653" data-name="Trazado 877653" d="M106.474,40.777a6.547,6.547,0,1,1,6.723-6.3,6.575,6.575,0,0,1-6.723,6.3m4.535-6.525a4.355,4.355,0,1,0-4.341,4.335,4.374,4.374,0,0,0,4.341-4.335" transform="translate(-72.804 -20.135)" fill="#87a771"/>
    <rect id="Rectángulo_406883" data-name="Rectángulo 406883" width="4.227" height="2.023" transform="translate(21.931 56.715)" fill="#87a771"/>
    <rect id="Rectángulo_406884" data-name="Rectángulo 406884" width="4.218" height="2.015" transform="translate(21.936 61.083)" fill="#87a771"/>
    <path id="Trazado_877654" data-name="Trazado 877654" d="M148.542,226.115c-1.3,0-2.481,0-3.658,0a4.506,4.506,0,0,1-.566-.08v-2.008h4.224Z" transform="translate(-104.955 -162.921)" fill="#87a771"/>
  </g>
</svg>
