<svg xmlns="http://www.w3.org/2000/svg" xmlns:xlink="http://www.w3.org/1999/xlink" width="521.058" height="394.805" viewBox="0 0 521.058 394.805">
  <defs>
    <clipPath id="clip-path">
      <rect id="Rectángulo_408158" data-name="Rectángulo 408158" width="347.571" height="316.256" fill="none"/>
    </clipPath>
    <clipPath id="clip-path-3">
      <rect id="Rectángulo_408093" data-name="Rectángulo 408093" width="23.235" height="8.339" fill="none"/>
    </clipPath>
    <clipPath id="clip-path-4">
      <rect id="Rectángulo_408094" data-name="Rectángulo 408094" width="25.639" height="8.016" fill="none"/>
    </clipPath>
    <clipPath id="clip-path-5">
      <rect id="Rectángulo_408095" data-name="Rectángulo 408095" width="161.105" height="158.913" fill="none"/>
    </clipPath>
    <clipPath id="clip-path-6">
      <rect id="Rectángulo_408096" data-name="Rectángulo 408096" width="27.402" height="31.409" fill="none"/>
    </clipPath>
    <clipPath id="clip-path-7">
      <rect id="Rectángulo_408097" data-name="Rectángulo 408097" width="19.44" height="35.967" fill="none"/>
    </clipPath>
    <clipPath id="clip-path-8">
      <rect id="Rectángulo_408098" data-name="Rectángulo 408098" width="10.529" height="62.481" fill="none"/>
    </clipPath>
    <clipPath id="clip-path-9">
      <rect id="Rectángulo_408107" data-name="Rectángulo 408107" width="31.271" height="22.245" fill="none"/>
    </clipPath>
    <clipPath id="clip-path-10">
      <rect id="Rectángulo_408108" data-name="Rectángulo 408108" width="68.35" height="4.082" fill="none"/>
    </clipPath>
    <clipPath id="clip-path-11">
      <rect id="Rectángulo_408109" data-name="Rectángulo 408109" width="43.193" height="3.434" fill="none"/>
    </clipPath>
    <clipPath id="clip-path-12">
      <rect id="Rectángulo_408110" data-name="Rectángulo 408110" width="18.796" height="4.73" fill="none"/>
    </clipPath>
    <clipPath id="clip-path-13">
      <rect id="Rectángulo_408111" data-name="Rectángulo 408111" width="15.116" height="29.354" fill="none"/>
    </clipPath>
    <clipPath id="clip-path-14">
      <rect id="Rectángulo_408112" data-name="Rectángulo 408112" width="36.864" height="36.858" fill="none"/>
    </clipPath>
    <clipPath id="clip-path-16">
      <rect id="Rectángulo_408117" data-name="Rectángulo 408117" width="11.518" height="13.72" fill="#99cae5"/>
    </clipPath>
    <clipPath id="clip-path-17">
      <rect id="Rectángulo_408118" data-name="Rectángulo 408118" width="9.294" height="13.72" fill="#99cae5"/>
    </clipPath>
    <clipPath id="clip-path-18">
      <rect id="Rectángulo_408119" data-name="Rectángulo 408119" width="25.95" height="7.874" fill="none"/>
    </clipPath>
    <clipPath id="clip-path-19">
      <rect id="Rectángulo_408121" data-name="Rectángulo 408121" width="7.547" height="7.717" fill="none"/>
    </clipPath>
    <clipPath id="clip-path-20">
      <rect id="Rectángulo_408122" data-name="Rectángulo 408122" width="40.766" height="24.537" fill="none"/>
    </clipPath>
    <clipPath id="clip-path-21">
      <rect id="Rectángulo_408123" data-name="Rectángulo 408123" width="9.609" height="15.65" fill="none"/>
    </clipPath>
    <clipPath id="clip-path-22">
      <rect id="Rectángulo_408126" data-name="Rectángulo 408126" width="15.795" height="10.04" fill="none"/>
    </clipPath>
    <clipPath id="clip-path-23">
      <rect id="Rectángulo_408129" data-name="Rectángulo 408129" width="3.938" height="3.468" fill="none"/>
    </clipPath>
    <clipPath id="clip-path-24">
      <rect id="Rectángulo_408131" data-name="Rectángulo 408131" width="119.604" height="71.335" fill="none"/>
    </clipPath>
    <clipPath id="clip-path-25">
      <rect id="Rectángulo_408133" data-name="Rectángulo 408133" width="40.226" height="44.077" fill="none"/>
    </clipPath>
    <clipPath id="clip-path-26">
      <rect id="Rectángulo_408134" data-name="Rectángulo 408134" width="34.516" height="23.666" fill="none"/>
    </clipPath>
    <clipPath id="clip-path-27">
      <rect id="Rectángulo_408135" data-name="Rectángulo 408135" width="23.286" height="24.087" fill="none"/>
    </clipPath>
    <clipPath id="clip-path-28">
      <rect id="Rectángulo_408136" data-name="Rectángulo 408136" width="11.925" height="17.149" fill="none"/>
    </clipPath>
    <clipPath id="clip-path-29">
      <rect id="Rectángulo_408137" data-name="Rectángulo 408137" width="15.24" height="28.237" fill="none"/>
    </clipPath>
    <clipPath id="clip-path-30">
      <rect id="Rectángulo_408138" data-name="Rectángulo 408138" width="45.83" height="37.828" fill="none"/>
    </clipPath>
    <clipPath id="clip-path-31">
      <rect id="Rectángulo_408141" data-name="Rectángulo 408141" width="10.453" height="10.435" fill="none"/>
    </clipPath>
    <clipPath id="clip-path-32">
      <rect id="Rectángulo_408142" data-name="Rectángulo 408142" width="10.435" height="10.435" fill="none"/>
    </clipPath>
    <clipPath id="clip-path-33">
      <rect id="Rectángulo_408143" data-name="Rectángulo 408143" width="4.529" height="4.529" fill="none"/>
    </clipPath>
    <clipPath id="clip-path-34">
      <rect id="Rectángulo_408144" data-name="Rectángulo 408144" width="4.51" height="4.514" fill="none"/>
    </clipPath>
    <clipPath id="clip-path-35">
      <rect id="Rectángulo_408145" data-name="Rectángulo 408145" width="14.478" height="14.281" fill="none"/>
    </clipPath>
    <clipPath id="clip-path-36">
      <rect id="Rectángulo_408146" data-name="Rectángulo 408146" width="14.119" height="14.01" fill="none"/>
    </clipPath>
    <clipPath id="clip-path-37">
      <rect id="Rectángulo_408147" data-name="Rectángulo 408147" width="9.332" height="9.32" fill="none"/>
    </clipPath>
    <clipPath id="clip-path-38">
      <rect id="Rectángulo_408148" data-name="Rectángulo 408148" width="8.95" height="8.943" fill="none"/>
    </clipPath>
    <clipPath id="clip-path-39">
      <rect id="Rectángulo_408149" data-name="Rectángulo 408149" width="64.452" height="32.373" fill="none"/>
    </clipPath>
    <clipPath id="clip-path-40">
      <rect id="Rectángulo_408150" data-name="Rectángulo 408150" width="29.546" height="18.536" fill="none"/>
    </clipPath>
    <clipPath id="clip-path-41">
      <rect id="Rectángulo_408152" data-name="Rectángulo 408152" width="40.273" height="33.463" fill="none"/>
    </clipPath>
    <clipPath id="clip-path-42">
      <rect id="Rectángulo_408153" data-name="Rectángulo 408153" width="20.954" height="24.715" fill="none"/>
    </clipPath>
    <clipPath id="clip-path-43">
      <rect id="Rectángulo_408154" data-name="Rectángulo 408154" width="21.055" height="24.918" fill="none"/>
    </clipPath>
    <clipPath id="clip-path-44">
      <rect id="Rectángulo_408155" data-name="Rectángulo 408155" width="10.209" height="12.795" fill="none"/>
    </clipPath>
    <clipPath id="clip-path-45">
      <rect id="Rectángulo_408156" data-name="Rectángulo 408156" width="36.443" height="22.687" fill="none"/>
    </clipPath>
  </defs>
  <g id="Grupo_1112268" data-name="Grupo 1112268" transform="translate(-228.29 -4414.488)">
    <rect id="Rectángulo_402906" data-name="Rectángulo 402906" width="521.058" height="394.804" rx="20" transform="translate(228.29 4414.488)" fill="#fbfbfb"/>
    <rect id="Ilustración" width="438" height="292" rx="20" transform="translate(270.29 4465.488)" fill="#cce5f2"/>
    <g id="Grupo_1112045" data-name="Grupo 1112045" transform="translate(305.896 4441.232)">
      <g id="Grupo_1112044" data-name="Grupo 1112044" clip-path="url(#clip-path)">
        <path id="Trazado_885478" data-name="Trazado 885478" d="M172.932,0,113.6,27.1l-7.9,36.105h-27.4L68.018,106.547,48.577,90.289,8.863,158.913h318.76l-14.286-21.657-33.95-68.623-33.6,3.6-29.13-37.928-33.475-3.6Z" transform="translate(10.726 0)" fill="#967b7d"/>
        <rect id="Rectángulo_408092" data-name="Rectángulo 408092" width="71.253" height="73.665" transform="translate(144.107 85.248)" fill="#45362d"/>
        <g id="Grupo_1112043" data-name="Grupo 1112043">
          <g id="Grupo_1112042" data-name="Grupo 1112042" clip-path="url(#clip-path)">
            <path id="Trazado_885479" data-name="Trazado 885479" d="M74.518,111.9c-.206,4.1-10.947,2.78-11.095.455-.194-2.933-.391-5.481-.391-12.293,0-19.381-.011-39.478,0-58.852.358-5.742,9.959-3.1,10.047-1.083.148,3.209-.356,10.052-.356,13.276,0,10.408,1.07,21.178.721,31.583,0,9.32,1.527,17.588,1.074,26.913" transform="translate(76.272 45.661)" fill="#d5caa2"/>
            <path id="Trazado_885480" data-name="Trazado 885480" d="M93.917,40.38c.206-4.1,10.947-2.778,11.095-.453.2,2.928.391,5.479.391,12.291,0,19.379.009,39.476,0,58.856-.354,5.735-9.957,3.1-10.045,1.07-.15-3.207.354-10.043.354-13.272,0-10.408-1.07-21.178-.718-31.581,0-9.322-1.529-17.588-1.076-26.911" transform="translate(113.553 45.663)" fill="#d9ce9f"/>
            <path id="Trazado_885481" data-name="Trazado 885481" d="M71.317,58.018a2.154,2.154,0,0,1-3.046.049l-2.416-2.341a2.151,2.151,0,0,1-.049-3.043L79.943,38.089a2.156,2.156,0,0,1,3.046-.053L85.4,40.378a2.149,2.149,0,0,1,.049,3.043Z" transform="translate(78.903 45.298)" fill="#d5caa2"/>
            <path id="Trazado_885482" data-name="Trazado 885482" d="M89.016,43.39a2.153,2.153,0,0,1,.327-3.028l2.615-2.108a2.151,2.151,0,0,1,3.03.325L107.736,54.4a2.149,2.149,0,0,1-.327,3.021l-2.619,2.113a2.156,2.156,0,0,1-3.028-.327Z" transform="translate(107.147 45.713)" fill="#d5caa2"/>
            <path id="Trazado_885483" data-name="Trazado 885483" d="M147.965,45.692c-2.155.305-2.957.035-5.108.179-4.847.376-8.69-.111-14.132-.144-9.084-.053-18.7-.369-27.724-.369-6.728,0-13.723-.077-20.453.369-2.692.221-5.251.144-7.946.221-1.613.077-3.227.453-4.7.376-2.013-.155-5.521-1.121-6.188-2.173-.539-.758.267-2.1,0-2.931a19.133,19.133,0,0,1-.705-4.372l.241-1.233s0,.007.015,0c1.505-.849,4.484-.789,6.1-.842,3.5-.228,7-.228,10.5-.155,7.669.155,14.662,0,22.2.53,8.071.663,16.755.712,25.1.712,4.036,0,8.138.376,12.178.075,2.827-.307,5.777-.411,8.606-.482,5.245-.077,4.575,2.471,4.575,4.573,0,1.193,1.083,2.029,1.079,3.3.126,1.691-1.35,2.062-3.631,2.365" transform="translate(73.827 41.842)" fill="#f4e1b1"/>
            <g id="Grupo_1111915" data-name="Grupo 1111915" transform="translate(195.727 87.471)" opacity="0.55" style="mix-blend-mode: multiply;isolation: isolate">
              <g id="Grupo_1111914" data-name="Grupo 1111914">
                <g id="Grupo_1111913" data-name="Grupo 1111913" clip-path="url(#clip-path-3)">
                  <path id="Trazado_885484" data-name="Trazado 885484" d="M111.793,46.184c-2.783.126-5.464.528-8.211.862-1.05.186-2.1.312-3.147.431a46.7,46.7,0,0,1-6.016.438l-5.406-6.7a2.056,2.056,0,0,1-.427-1.64c2.281.06,4.566.1,6.821.1.8,0,1.543.029,2.283.057l2.59,3.207c-.029-1.045-.029-2.1.031-3.145a75.935,75.935,0,0,0,9.225.029c.835-.06,1.483-.06,2.036-.06.1,1.671.186,3.547.221,6.421" transform="translate(-88.558 -39.576)" fill="#916f5d"/>
                </g>
              </g>
            </g>
            <g id="Grupo_1111918" data-name="Grupo 1111918" transform="translate(139.349 87.226)" opacity="0.55" style="mix-blend-mode: multiply;isolation: isolate">
              <g id="Grupo_1111917" data-name="Grupo 1111917">
                <g id="Grupo_1111916" data-name="Grupo 1111916" clip-path="url(#clip-path-4)">
                  <path id="Trazado_885485" data-name="Trazado 885485" d="M88.689,39.466a2.265,2.265,0,0,1-.61,1.514l-4.016,4.137a14.187,14.187,0,0,0-7.775.334c-1.174.4-2.318.712-3.4.995-.338.086-.648.153-.986.243a35.291,35.291,0,0,1-8.856.776v-7.47a10.713,10.713,0,0,0,2.409.431c1.481.06,3.081-.312,4.719-.4.988-.031,1.976-.031,2.931-.031,0,1.636-.091,3.671-.183,5.614l5.647-5.835c3.331-.214,6.726-.274,10.118-.307" transform="translate(-63.05 -39.466)" fill="#916f5d"/>
                </g>
              </g>
            </g>
            <path id="Trazado_885486" data-name="Trazado 885486" d="M114.773,83.337l-9.258-17.493L98.7,69.7l-7.716-6.173-21.213,9L59.363,66.869,34.29,83.337Z" transform="translate(41.497 76.876)" fill="#c4c1b8"/>
            <path id="Trazado_885487" data-name="Trazado 885487" d="M93.834,83.049l4.69-17.1,4.372,1.284,8.35-3.468,13.63,7.453,3.216,4.887,9-4.887,17.359,11.833Z" transform="translate(113.553 77.164)" fill="#c4c1b8"/>
            <g id="Grupo_1111921" data-name="Grupo 1111921" transform="translate(177.243)" opacity="0.55" style="mix-blend-mode: multiply;isolation: isolate">
              <g id="Grupo_1111920" data-name="Grupo 1111920">
                <g id="Grupo_1111919" data-name="Grupo 1111919" clip-path="url(#clip-path-5)">
                  <path id="Trazado_885488" data-name="Trazado 885488" d="M206.954,147.343l-21.6-67.883L191,122.07,162.734,82.3l-11.846,8.73-22.5-50.389L93.3,32.4,80.2,38.82,86.609,0,96.855,30.706l33.477,3.6,29.13,37.928,33.6-3.607,33.948,68.623L241.3,158.911Z" transform="translate(-80.194 0.001)" fill="#916f5d"/>
                </g>
              </g>
            </g>
            <g id="Grupo_1111924" data-name="Grupo 1111924" transform="translate(89.018 63.199)" opacity="0.55" style="mix-blend-mode: multiply;isolation: isolate">
              <g id="Grupo_1111923" data-name="Grupo 1111923">
                <g id="Grupo_1111922" data-name="Grupo 1111922" clip-path="url(#clip-path-6)">
                  <path id="Trazado_885489" data-name="Trazado 885489" d="M40.277,28.6l13.9,7.519L59.061,60,67.678,28.6Z" transform="translate(-40.277 -28.594)" fill="#916f5d"/>
                </g>
              </g>
            </g>
            <g id="Grupo_1111927" data-name="Grupo 1111927" transform="translate(59.303 90.289)" opacity="0.55" style="mix-blend-mode: multiply;isolation: isolate">
              <g id="Grupo_1111926" data-name="Grupo 1111926">
                <g id="Grupo_1111925" data-name="Grupo 1111925" clip-path="url(#clip-path-7)">
                  <path id="Trazado_885490" data-name="Trazado 885490" d="M26.832,40.852l1.187,35.966L46.273,57.11Z" transform="translate(-26.832 -40.852)" fill="#916f5d"/>
                </g>
              </g>
            </g>
            <g id="Grupo_1111930" data-name="Grupo 1111930" transform="translate(218.757 80.872)" opacity="0.55" style="mix-blend-mode: multiply;isolation: isolate">
              <g id="Grupo_1111929" data-name="Grupo 1111929">
                <g id="Grupo_1111928" data-name="Grupo 1111928" clip-path="url(#clip-path-8)">
                  <path id="Trazado_885491" data-name="Trazado 885491" d="M107.377,48.342c-1.269,1.54-2.04.241-3.09,3.085-.5,1.266-.245,3.088-.245,4.632,0,3.081.524,6.169.771,9.254.25,6.664.25,13.608.25,20.307,0,3.145-.161,7.123.093,11.075l-.093-.057-5.835,2.433V53.589c0-5.218-.124-7.93-.25-10.215a15.7,15.7,0,0,0,3.088-.126c2.283-.3,3.766-.674,3.607-2.376.035-1.264-1.045-2.093-1.045-3.3,0-.3.031-.674.031-.979,5.494.979,6.2,8.266,2.719,11.751" transform="translate(-98.978 -36.591)" fill="#916f5d"/>
                </g>
              </g>
            </g>
            <rect id="Rectángulo_408099" data-name="Rectángulo 408099" width="4.984" height="14.147" transform="translate(161.836 155.827)" fill="#6f867f"/>
            <rect id="Rectángulo_408100" data-name="Rectángulo 408100" width="4.982" height="14.147" transform="translate(194.202 155.827)" fill="#6f867f"/>
            <path id="Trazado_885492" data-name="Trazado 885492" d="M102.769,83.466H77.7L74.612,57.245h31.632Z" transform="translate(90.292 69.275)" fill="#61756f"/>
            <rect id="Rectángulo_408101" data-name="Rectángulo 408101" width="35.354" height="4.115" transform="translate(163.041 124.458)" fill="#839f97"/>
            <rect id="Rectángulo_408102" data-name="Rectángulo 408102" width="32.366" height="3.857" transform="translate(164.33 150.817)" fill="#6f867f"/>
            <rect id="Rectángulo_408103" data-name="Rectángulo 408103" width="3.408" height="12.339" transform="translate(162.623 146.573)" fill="#839f97"/>
            <rect id="Rectángulo_408104" data-name="Rectángulo 408104" width="3.404" height="12.339" transform="translate(194.991 146.573)" fill="#839f97"/>
            <path id="Trazado_885493" data-name="Trazado 885493" d="M75.369,62.364l7.842-7.837,3.216,2.566L91.7,55.166l4.372-3.857,6.3,6.3,1.417,4.758Z" transform="translate(91.208 62.092)" fill="#fcd114"/>
            <rect id="Rectángulo_408105" data-name="Rectángulo 408105" width="27.382" height="4.756" transform="translate(166.82 156.985)" fill="#aa783d"/>
            <rect id="Rectángulo_408106" data-name="Rectángulo 408106" width="27.382" height="4.752" transform="translate(166.82 163.549)" fill="#aa783d"/>
            <g id="Grupo_1111933" data-name="Grupo 1111933" transform="translate(164.988 128.573)" opacity="0.55" style="mix-blend-mode: multiply;isolation: isolate">
              <g id="Grupo_1111932" data-name="Grupo 1111932">
                <g id="Grupo_1111931" data-name="Grupo 1111931" clip-path="url(#clip-path-9)">
                  <path id="Trazado_885494" data-name="Trazado 885494" d="M74.65,58.174l.477,2.714,23.211,3.333,1.149,15.946,3.492.252,2.942-22.245Z" transform="translate(-74.65 -58.174)" fill="#916f5d"/>
                </g>
              </g>
            </g>
            <path id="Trazado_885495" data-name="Trazado 885495" d="M81.668,49.745l.946,1.742,1.742.946-1.742.953-.946,1.733-.957-1.733-1.733-.953,1.733-.946Z" transform="translate(95.575 60.2)" fill="#fff"/>
            <path id="Trazado_885496" data-name="Trazado 885496" d="M76.629,52.172l.557,1.014,1.017.55-1.017.555-.557,1.017-.555-1.017-1.019-.555,1.019-.55Z" transform="translate(90.829 63.136)" fill="#fff"/>
            <path id="Trazado_885497" data-name="Trazado 885497" d="M87.436,52.844l.583,1.065,1.065.586-1.065.588-.583,1.063-.586-1.063-1.068-.588,1.068-.586Z" transform="translate(103.811 63.949)" fill="#fff"/>
            <path id="Trazado_885498" data-name="Trazado 885498" d="M24.021,83.194,16.128,99.949l23.306,7.718h78.388V83H91.075V76.291l-24.1,3.136L66.968,83Z" transform="translate(19.518 92.324)" fill="#006398"/>
            <path id="Trazado_885499" data-name="Trazado 885499" d="M143.269,64.657v6.776l-35.869,1.7L78.88,109.211,0,89.066l8.847-7.154,68.212.252,32.412-17.571Z" transform="translate(0 78.167)" fill="#fefefe"/>
            <g id="Grupo_1111936" data-name="Grupo 1111936" transform="translate(11.395 164.231)" opacity="0.36" style="mix-blend-mode: multiply;isolation: isolate">
              <g id="Grupo_1111935" data-name="Grupo 1111935">
                <g id="Grupo_1111934" data-name="Grupo 1111934" clip-path="url(#clip-path-10)">
                  <path id="Trazado_885500" data-name="Trazado 885500" d="M5.156,74.787l14.083,3.6H73.279l.225-3.826L5.744,74.308Z" transform="translate(-5.156 -74.307)" fill="#c5c9ce"/>
                </g>
              </g>
            </g>
            <g id="Grupo_1111939" data-name="Grupo 1111939" transform="translate(36.157 171.037)" opacity="0.36" style="mix-blend-mode: multiply;isolation: isolate">
              <g id="Grupo_1111938" data-name="Grupo 1111938">
                <g id="Grupo_1111937" data-name="Grupo 1111937" clip-path="url(#clip-path-11)">
                  <path id="Trazado_885501" data-name="Trazado 885501" d="M16.359,77.387l13.433,3.435h29.55l.21-3.435Z" transform="translate(-16.359 -77.387)" fill="#c5c9ce"/>
                </g>
              </g>
            </g>
            <g id="Grupo_1111942" data-name="Grupo 1111942" transform="translate(60.195 177.182)" opacity="0.36" style="mix-blend-mode: multiply;isolation: isolate">
              <g id="Grupo_1111941" data-name="Grupo 1111941">
                <g id="Grupo_1111940" data-name="Grupo 1111940" clip-path="url(#clip-path-12)">
                  <path id="Trazado_885502" data-name="Trazado 885502" d="M27.236,80.167,45.744,84.9l.287-4.73Z" transform="translate(-27.236 -80.167)" fill="#c5c9ce"/>
                </g>
              </g>
            </g>
            <path id="Trazado_885503" data-name="Trazado 885503" d="M47.127,88.512H78.018l-.619-2.5H68.106V72.294h5.936l-.559-2.3H49.96Zm6.434-16.218H65.08V86.015H53.561Z" transform="translate(57.031 84.7)" fill="#007cbe"/>
            <path id="Trazado_885504" data-name="Trazado 885504" d="M102.111,78.307V107.66h-11.8L81.9,84.509H50.02l-6.2,11.782H38.854l7.855-17.984Z" transform="translate(47.02 94.764)" fill="#007cbe"/>
            <g id="Grupo_1111945" data-name="Grupo 1111945" transform="translate(134.015 173.072)" opacity="0.36" style="mix-blend-mode: multiply;isolation: isolate">
              <g id="Grupo_1111944" data-name="Grupo 1111944">
                <g id="Grupo_1111943" data-name="Grupo 1111943" clip-path="url(#clip-path-13)">
                  <path id="Trazado_885505" data-name="Trazado 885505" d="M75.752,84.394H66.67V78.307H60.637l6.712,29.353h8.4Z" transform="translate(-60.636 -78.308)" fill="#a98c74"/>
                </g>
              </g>
            </g>
            <path id="Trazado_885506" data-name="Trazado 885506" d="M42.748,106.333l-1.189.217.683,3.764,1.209-.217a17.663,17.663,0,0,0,1.134,3.059l-1.063.617,1.923,3.3,1.07-.621a18.918,18.918,0,0,0,2.1,2.5l-.776.946,2.94,2.442.782-.946a19.606,19.606,0,0,0,2.836,1.622l-.411,1.158,3.6,1.293L58,124.3a21.885,21.885,0,0,0,3.214.555v1.22l3.826-.024V124.83a18.932,18.932,0,0,0,3.209-.592l.427,1.167,3.578-1.333-.415-1.149a20.463,20.463,0,0,0,2.825-1.64l.789.924,2.922-2.469-.793-.93a20.047,20.047,0,0,0,2.086-2.513l1.056.6.168-.3,1.735-3.019-1.065-.612c.223-.5.431-1,.612-1.512s.347-1.028.486-1.556l1.209.206.65-3.773-1.213-.206a18.014,18.014,0,0,0-.007-3.275l1.207-.212-.687-3.766-1.216.217a18.772,18.772,0,0,0-1.118-3.05l1.054-.621-1.927-3.3-1.07.625a18.29,18.29,0,0,0-2.108-2.5l.787-.948-2.946-2.44-.778.944a19.318,19.318,0,0,0-2.827-1.613l.407-1.145-3.6-1.293-.409,1.145a21.637,21.637,0,0,0-3.231-.559V83.1L61,83.124l.007,1.224a19.954,19.954,0,0,0-3.216.592l-.422-1.165-3.589,1.335.433,1.145c-.42.2-.846.418-1.251.652A18.025,18.025,0,0,0,51.4,87.9l-.8-.93-2.926,2.462.793.939a20.529,20.529,0,0,0-2.08,2.511l-1.059-.6-.771,1.346-1.134,1.987,1.07.6c-.234.5-.433,1-.617,1.512s-.343,1.028-.486,1.556l-1.216-.206-.533,3.178-.1.6,1.2.21a19.927,19.927,0,0,0,.007,3.269m13.76,8.14c-.281-.186-.559-.387-.816-.592l-.926-.824a11.783,11.783,0,0,1-3.578-8.423,12.811,12.811,0,0,1,.164-1.991,7.716,7.716,0,0,1,.281-1.229,6.189,6.189,0,0,1,.305-.944,10.475,10.475,0,0,1,.5-1.154,11.9,11.9,0,0,1,8.8-6.434,11.72,11.72,0,0,1,1.242-.106,4.751,4.751,0,0,1,.5-.027c.179.009.354,0,.535.027a7.877,7.877,0,0,1,1.227.106,11.765,11.765,0,0,1,8.827,6.356,7.679,7.679,0,0,1,.535,1.151c.1.3.217.625.316.944a9.09,9.09,0,0,1,.261,1.218,11.245,11.245,0,0,1,.192,1.994,11.777,11.777,0,0,1-3.5,8.421l-.044.038-.858.787-.033.02a8.011,8.011,0,0,1-.8.586l-1.092.652A11.751,11.751,0,0,1,57.6,115.1a8.115,8.115,0,0,1-1.1-.63" transform="translate(50.271 100.564)" fill="#4a4b50"/>
            <path id="Trazado_885507" data-name="Trazado 885507" d="M49.822,93.783a.567.567,0,1,0,.568-.566.566.566,0,0,0-.568.566m.99,3.065a.569.569,0,1,0,.568-.566.565.565,0,0,0-.568.566m2.2-.6a1.577,1.577,0,1,0-1.58-1.574,1.575,1.575,0,0,0,1.58,1.574m-1.074-1.582a1.066,1.066,0,1,1,1.074,1.063,1.062,1.062,0,0,1-1.074-1.063m1.64-2.8a.568.568,0,1,0-.566.57.57.57,0,0,0,.566-.57m.48,4.984a.565.565,0,1,0,.566-.566.561.561,0,0,0-.566.566m.984-3.065a.567.567,0,1,0,.566-.566.565.565,0,0,0-.566.566" transform="translate(60.292 110.484)" fill="#fff"/>
            <path id="Trazado_885508" data-name="Trazado 885508" d="M45.907,99.348a11.783,11.783,0,0,0,3.578,8.423l.926.824c.256.206.535.407.816.592a8.227,8.227,0,0,0,1.094.63,11.738,11.738,0,0,0,10.945-.055l1.09-.652a7.53,7.53,0,0,0,.8-.586l.035-.018.855-.787.046-.04a11.766,11.766,0,0,0,3.494-8.421,11.041,11.041,0,0,0-.19-1.994,9.166,9.166,0,0,0-.263-1.218c-.1-.318-.212-.645-.316-.942a7.363,7.363,0,0,0-.533-1.151,11.78,11.78,0,0,0-8.83-6.359,7.828,7.828,0,0,0-1.224-.106c-.181-.024-.356-.018-.537-.024a4.772,4.772,0,0,0-.5.024,11.679,11.679,0,0,0-1.24.106,11.907,11.907,0,0,0-8.8,6.434,10.915,10.915,0,0,0-.5,1.154,6.443,6.443,0,0,0-.305.944,7.925,7.925,0,0,0-.278,1.231,12.494,12.494,0,0,0-.164,1.989" transform="translate(55.555 105.848)" fill="#fff"/>
            <path id="Trazado_885509" data-name="Trazado 885509" d="M47.693,97.142a7.891,7.891,0,1,1,7.89,7.89,7.888,7.888,0,0,1-7.89-7.89" transform="translate(57.716 108.009)" fill="#dfe4e4"/>
            <path id="Trazado_885510" data-name="Trazado 885510" d="M49.436,95.033a4.039,4.039,0,1,1,4.04,4.04,4.04,4.04,0,0,1-4.04-4.04" transform="translate(59.825 110.118)" fill="#fff"/>
            <path id="Trazado_885511" data-name="Trazado 885511" d="M51.007,91.865a.568.568,0,1,0,.57-.568.567.567,0,0,0-.57.568" transform="translate(61.726 110.484)" fill="#67576a"/>
            <path id="Trazado_885512" data-name="Trazado 885512" d="M52.183,92.732a.567.567,0,1,0,.566-.566.565.565,0,0,0-.566.566" transform="translate(63.15 111.535)" fill="#67576a"/>
            <path id="Trazado_885513" data-name="Trazado 885513" d="M51.738,94.119a.565.565,0,1,0,.566-.566.561.561,0,0,0-.566.566" transform="translate(62.611 113.214)" fill="#67576a"/>
            <path id="Trazado_885514" data-name="Trazado 885514" d="M50.27,94.119a.569.569,0,1,0,.568-.566.565.565,0,0,0-.568.566" transform="translate(60.835 113.214)" fill="#67576a"/>
            <path id="Trazado_885515" data-name="Trazado 885515" d="M49.822,92.732a.567.567,0,1,0,.568-.566.566.566,0,0,0-.568.566" transform="translate(60.292 111.535)" fill="#67576a"/>
            <path id="Trazado_885516" data-name="Trazado 885516" d="M50.55,93.689a1.571,1.571,0,1,0,1.58-1.578,1.579,1.579,0,0,0-1.58,1.578m.506-.009a1.065,1.065,0,1,1,1.074,1.063,1.064,1.064,0,0,1-1.074-1.063" transform="translate(61.173 111.469)" fill="#67576a"/>
            <g id="Grupo_1111948" data-name="Grupo 1111948" transform="translate(94.869 186.725)" opacity="0.16" style="mix-blend-mode: multiply;isolation: isolate">
              <g id="Grupo_1111947" data-name="Grupo 1111947">
                <g id="Grupo_1111946" data-name="Grupo 1111946" clip-path="url(#clip-path-14)">
                  <path id="Trazado_885517" data-name="Trazado 885517" d="M42.925,102.913a18.432,18.432,0,1,0,18.43-18.428,18.427,18.427,0,0,0-18.43,18.428m6.591.044a13.372,13.372,0,0,1,.166-1.991,8.284,8.284,0,0,1,.278-1.229,7.264,7.264,0,0,1,.3-.946,11.592,11.592,0,0,1,.5-1.152,11.9,11.9,0,0,1,8.8-6.434,10.659,10.659,0,0,1,1.242-.1,4.2,4.2,0,0,1,.5-.027,4.8,4.8,0,0,1,.535.027,7.573,7.573,0,0,1,1.227.1,11.783,11.783,0,0,1,8.827,6.356,7.174,7.174,0,0,1,.533,1.154c.106.294.219.621.318.944a9.334,9.334,0,0,1,.263,1.216A11.61,11.61,0,0,1,69.7,111.292l-.04.04-.858.785-.033.02a8.359,8.359,0,0,1-.8.583l-1.092.654a11.764,11.764,0,0,1-10.945.053,7.719,7.719,0,0,1-1.094-.632c-.281-.186-.559-.387-.816-.59l-.926-.824a11.792,11.792,0,0,1-3.583-8.423" transform="translate(-42.923 -84.485)" fill="#4a4b50"/>
                </g>
              </g>
            </g>
            <path id="Trazado_885518" data-name="Trazado 885518" d="M12.614,106.333l-1.189.217.683,3.764,1.207-.217a17.854,17.854,0,0,0,1.136,3.059l-1.063.617,1.923,3.3,1.065-.621a19.106,19.106,0,0,0,2.1,2.5l-.776.946,2.942,2.442.78-.946a19.725,19.725,0,0,0,2.836,1.622l-.413,1.158,3.607,1.293.413-1.16a21.813,21.813,0,0,0,3.216.555v1.22l3.826-.024V124.83a19.054,19.054,0,0,0,3.209-.592l.424,1.167,3.583-1.333-.416-1.149a20.391,20.391,0,0,0,2.818-1.64l.793.924,2.92-2.469-.791-.93a20.222,20.222,0,0,0,2.084-2.513l1.061.6.164-.3,1.739-3.019-1.068-.612c.223-.5.431-1,.61-1.512s.347-1.028.488-1.556l1.209.206.648-3.773-1.213-.206a18.215,18.215,0,0,0-.007-3.275l1.207-.212-.687-3.766-1.216.217a17.99,17.99,0,0,0-1.121-3.05l1.056-.621-1.925-3.3-1.072.625a18.578,18.578,0,0,0-2.1-2.5l.782-.948-2.948-2.44-.776.944a19.3,19.3,0,0,0-2.825-1.613l.409-1.145-3.6-1.293-.413,1.145a21.608,21.608,0,0,0-3.229-.559V83.1l-3.828.024.009,1.224a19.91,19.91,0,0,0-3.216.592l-.424-1.165-3.587,1.335.431,1.145c-.418.2-.842.418-1.251.652-.535.307-1.063.634-1.567.995l-.8-.93-2.926,2.462.793.939a20.512,20.512,0,0,0-2.078,2.511l-1.061-.6-.771,1.346L13.29,95.614l1.068.6c-.232.5-.435,1-.617,1.512s-.343,1.028-.484,1.556l-1.218-.206-.528,3.178-.1.6,1.2.21a20.43,20.43,0,0,0,.009,3.269m13.76,8.14c-.283-.186-.559-.387-.818-.592l-.926-.824a11.792,11.792,0,0,1-3.578-8.423,12.045,12.045,0,0,1,.168-1.991,7.241,7.241,0,0,1,.274-1.229,6.727,6.727,0,0,1,.307-.944,10.488,10.488,0,0,1,.5-1.154,11.9,11.9,0,0,1,8.8-6.434,11.58,11.58,0,0,1,1.24-.106,4.72,4.72,0,0,1,.5-.027c.181.009.356,0,.535.027a7.78,7.78,0,0,1,1.224.106,11.78,11.78,0,0,1,8.832,6.356,7.456,7.456,0,0,1,.533,1.151c.1.3.219.625.314.944a8.76,8.76,0,0,1,.263,1.218,11.246,11.246,0,0,1,.2,1.994,11.788,11.788,0,0,1-3.5,8.421l-.044.038-.858.787-.035.02a8.247,8.247,0,0,1-.793.586l-1.094.652a11.509,11.509,0,0,1-5.477,1.379,11.654,11.654,0,0,1-5.466-1.324,7.958,7.958,0,0,1-1.094-.63" transform="translate(13.807 100.564)" fill="#4a4b50"/>
            <path id="Trazado_885519" data-name="Trazado 885519" d="M19.688,93.783a.567.567,0,1,0,.568-.566.565.565,0,0,0-.568.566m.992,3.065a.567.567,0,1,0,.568-.566.563.563,0,0,0-.568.566m2.2-.6a1.577,1.577,0,1,0-1.58-1.574,1.577,1.577,0,0,0,1.58,1.574M21.8,94.665a1.068,1.068,0,1,1,1.074,1.063A1.063,1.063,0,0,1,21.8,94.665m1.638-2.8a.567.567,0,1,0-.564.57.57.57,0,0,0,.564-.57m.482,4.984a.565.565,0,1,0,.566-.566.563.563,0,0,0-.566.566m.984-3.065a.566.566,0,1,0,.568-.566.565.565,0,0,0-.568.566" transform="translate(23.826 110.484)" fill="#fff"/>
            <path id="Trazado_885520" data-name="Trazado 885520" d="M15.772,99.348a11.792,11.792,0,0,0,3.578,8.423l.926.824c.259.206.533.407.818.592a7.934,7.934,0,0,0,1.092.63,11.7,11.7,0,0,0,5.468,1.326,11.543,11.543,0,0,0,5.477-1.381l1.092-.652a8.015,8.015,0,0,0,.8-.586l.033-.018.858-.787.044-.04a11.788,11.788,0,0,0,3.5-8.421,11.245,11.245,0,0,0-.194-1.994,8.829,8.829,0,0,0-.263-1.218c-.1-.318-.214-.645-.314-.942a7.788,7.788,0,0,0-.533-1.151A11.788,11.788,0,0,0,29.316,87.6a7.8,7.8,0,0,0-1.224-.106c-.181-.024-.354-.018-.535-.024a4.714,4.714,0,0,0-.5.024,11.67,11.67,0,0,0-1.242.106,11.891,11.891,0,0,0-8.8,6.434,10.94,10.94,0,0,0-.5,1.154,7.021,7.021,0,0,0-.305.944,7.219,7.219,0,0,0-.274,1.231,12,12,0,0,0-.168,1.989" transform="translate(19.087 105.848)" fill="#fff"/>
            <path id="Trazado_885521" data-name="Trazado 885521" d="M17.559,97.142a7.892,7.892,0,1,1,7.89,7.89,7.888,7.888,0,0,1-7.89-7.89" transform="translate(21.249 108.009)" fill="#dfe4e4"/>
            <path id="Trazado_885522" data-name="Trazado 885522" d="M19.3,95.033a4.039,4.039,0,1,1,4.038,4.04,4.039,4.039,0,0,1-4.038-4.04" transform="translate(23.358 110.118)" fill="#fff"/>
            <path id="Trazado_885523" data-name="Trazado 885523" d="M20.873,91.865a.567.567,0,1,0,.57-.568.567.567,0,0,0-.57.568" transform="translate(25.26 110.484)" fill="#67576a"/>
            <path id="Trazado_885524" data-name="Trazado 885524" d="M22.049,92.732a.566.566,0,1,0,.568-.566.565.565,0,0,0-.568.566" transform="translate(26.683 111.535)" fill="#67576a"/>
            <path id="Trazado_885525" data-name="Trazado 885525" d="M21.6,94.119a.565.565,0,1,0,.566-.566.563.563,0,0,0-.566.566" transform="translate(26.144 113.214)" fill="#67576a"/>
            <path id="Trazado_885526" data-name="Trazado 885526" d="M20.137,94.119a.567.567,0,1,0,.568-.566.563.563,0,0,0-.568.566" transform="translate(24.369 113.214)" fill="#67576a"/>
            <path id="Trazado_885527" data-name="Trazado 885527" d="M19.688,92.732a.567.567,0,1,0,.566-.566.565.565,0,0,0-.566.566" transform="translate(23.826 111.535)" fill="#67576a"/>
            <path id="Trazado_885528" data-name="Trazado 885528" d="M20.416,93.689A1.571,1.571,0,1,0,22,92.111a1.577,1.577,0,0,0-1.58,1.578m.506-.009A1.066,1.066,0,1,1,22,94.743a1.064,1.064,0,0,1-1.074-1.063" transform="translate(24.707 111.469)" fill="#67576a"/>
            <g id="Grupo_1111951" data-name="Grupo 1111951" transform="translate(28.268 186.725)" opacity="0.16" style="mix-blend-mode: multiply;isolation: isolate">
              <g id="Grupo_1111950" data-name="Grupo 1111950">
                <g id="Grupo_1111949" data-name="Grupo 1111949" clip-path="url(#clip-path-14)">
                  <path id="Trazado_885529" data-name="Trazado 885529" d="M12.79,102.913A18.432,18.432,0,1,0,31.22,84.485a18.427,18.427,0,0,0-18.43,18.428m6.593.044a12.288,12.288,0,0,1,.17-1.991,7.991,7.991,0,0,1,.272-1.229,7.623,7.623,0,0,1,.307-.946,11.1,11.1,0,0,1,.5-1.152,11.9,11.9,0,0,1,8.8-6.434,10.661,10.661,0,0,1,1.24-.1,4.232,4.232,0,0,1,.5-.027,4.755,4.755,0,0,1,.533.027,7.649,7.649,0,0,1,1.231.1,11.783,11.783,0,0,1,8.825,6.356,7.381,7.381,0,0,1,.535,1.154c.1.294.217.621.316.944a8.982,8.982,0,0,1,.261,1.216,11.062,11.062,0,0,1,.194,1.994,11.784,11.784,0,0,1-3.5,8.423l-.042.04-.858.785-.033.02a8.65,8.65,0,0,1-.8.583l-1.092.654a11.764,11.764,0,0,1-10.945.053,7.845,7.845,0,0,1-1.094-.632c-.283-.186-.559-.387-.816-.59l-.928-.824a11.79,11.79,0,0,1-3.58-8.423" transform="translate(-12.79 -84.485)" fill="#4a4b50"/>
                </g>
              </g>
            </g>
            <path id="Rectángulo_408114" data-name="Rectángulo 408114" d="M1.362,0H18.468A1.362,1.362,0,0,1,19.83,1.362V13.948a1.364,1.364,0,0,1-1.364,1.364H1.363A1.363,1.363,0,0,1,0,13.949V1.362A1.362,1.362,0,0,1,1.362,0Z" transform="translate(70.219 193.339)" fill="#007cbe"/>
            <path id="Trazado_885530" data-name="Trazado 885530" d="M76.383,97.815h-12.3l-1.945-6.226H76.383Z" transform="translate(75.195 110.837)" fill="#006b85"/>
            <rect id="Rectángulo_408115" data-name="Rectángulo 408115" width="5.928" height="3.828" transform="translate(137.341 138.997)" fill="#fefefe"/>
            <g id="Grupo_1111954" data-name="Grupo 1111954" transform="translate(110.592 156.995)" opacity="0.87">
              <g id="Grupo_1111953" data-name="Grupo 1111953">
                <g id="Grupo_1111952" data-name="Grupo 1111952" clip-path="url(#clip-path-16)">
                  <rect id="Rectángulo_408116" data-name="Rectángulo 408116" width="11.519" height="13.721" transform="translate(0 -0.001)" fill="#99cae5"/>
                </g>
              </g>
            </g>
            <g id="Grupo_1111957" data-name="Grupo 1111957" transform="translate(125.137 156.995)" opacity="0.87">
              <g id="Grupo_1111956" data-name="Grupo 1111956">
                <g id="Grupo_1111955" data-name="Grupo 1111955" clip-path="url(#clip-path-17)">
                  <path id="Trazado_885531" data-name="Trazado 885531" d="M56.619,71.033V84.754h9.294L62.569,71.033Z" transform="translate(-56.619 -71.033)" fill="#99cae5"/>
                </g>
              </g>
            </g>
            <g id="Grupo_1111960" data-name="Grupo 1111960" transform="translate(105.783 154.691)" opacity="0.36" style="mix-blend-mode: multiply;isolation: isolate">
              <g id="Grupo_1111959" data-name="Grupo 1111959">
                <g id="Grupo_1111958" data-name="Grupo 1111958" clip-path="url(#clip-path-18)">
                  <path id="Trazado_885532" data-name="Trazado 885532" d="M47.862,77.865l4.8-.541,11.522-1.28,3.026-.347,6.6-.738L73.164,72.3h-.015l-.557-2.305H49.062Z" transform="translate(-47.862 -69.992)" fill="#e6af88"/>
                </g>
              </g>
            </g>
            <rect id="Rectángulo_408120" data-name="Rectángulo 408120" width="7.15" height="5.711" transform="translate(140.305 183.173)" fill="#99cae5"/>
            <path id="Trazado_885533" data-name="Trazado 885533" d="M91.031,75.795l-5.457-5.3-2.738,2.65-4.518-5.819L74.74,69.18l-5.459-3.764-5.93-.661-5.083,1.224L52.3,62.211l-5.422,3.2L39.331,60.8l-6.2,3.859L27.2,65.7l-6.684,7.059-2.73.473-4.61,5.74L9.035,80.288,5.156,86.512l65.664.236Z" transform="translate(6.239 73.581)" fill="#f7bf28"/>
            <g id="Grupo_1111963" data-name="Grupo 1111963" transform="translate(45.57 134.384)" opacity="0.39" style="mix-blend-mode: multiply;isolation: isolate">
              <g id="Grupo_1111962" data-name="Grupo 1111962">
                <g id="Grupo_1111961" data-name="Grupo 1111961" clip-path="url(#clip-path-19)">
                  <path id="Trazado_885534" data-name="Trazado 885534" d="M20.619,60.8l3.592,7.718,3.956-3.105Z" transform="translate(-20.619 -60.803)" fill="#af9474"/>
                </g>
              </g>
            </g>
            <g id="Grupo_1111966" data-name="Grupo 1111966" transform="translate(56.505 135.794)" opacity="0.39" style="mix-blend-mode: multiply;isolation: isolate">
              <g id="Grupo_1111965" data-name="Grupo 1111965">
                <g id="Grupo_1111964" data-name="Grupo 1111964" clip-path="url(#clip-path-20)">
                  <path id="Trazado_885535" data-name="Trazado 885535" d="M27.6,61.441l2.013,7.53,4.613,1.319L32.72,73.773H27.6l-2.036,4.8,5.556,1.883,6.588-1.412,2.984,3.3.687,3.638H46.12L66.332,75.024l-5.457-5.3-1.7,4.61-1.037-1.96-4.515-5.822-1.79,5.052-1.788-3.2-5.459-3.764-5.861-.661-5.152,1.224Z" transform="translate(-25.566 -61.441)" fill="#af9474"/>
                </g>
              </g>
            </g>
            <path id="Trazado_885536" data-name="Trazado 885536" d="M25.1,125.818l7.91-14.8,17.157,9.17-7.912,14.8-11.968,1.757Z" transform="translate(30.375 134.352)" fill="#3d4146"/>
            <path id="Trazado_885537" data-name="Trazado 885537" d="M29.209,125.486l7.976-14.921,4.177,2.234L33.384,127.72a2.237,2.237,0,0,1-3.068.712,2.527,2.527,0,0,1-1.187-1.324,1.945,1.945,0,0,1,.08-1.622" transform="translate(35.082 133.801)" fill="#575c64"/>
            <g id="Grupo_1111969" data-name="Grupo 1111969" transform="translate(65.746 246.135)" opacity="0.38">
              <g id="Grupo_1111968" data-name="Grupo 1111968">
                <g id="Grupo_1111967" data-name="Grupo 1111967" clip-path="url(#clip-path-21)">
                  <path id="Trazado_885538" data-name="Trazado 885538" d="M29.747,126.814l8.262-15.449,1.348.721-7.629,14.269a1.447,1.447,0,0,1-1.98.46" transform="translate(-29.747 -111.366)" fill="#f2f2f2"/>
                </g>
              </g>
            </g>
            <rect id="Rectángulo_408124" data-name="Rectángulo 408124" width="35.78" height="3.985" transform="matrix(0.472, -0.882, 0.882, 0.472, 72.592, 244.541)" fill="#f9cc90"/>
            <path id="Trazado_885539" data-name="Trazado 885539" d="M43.068,99.568l-.8,1.507,0,0-3.05,5.7,5.459,2.917,3.05-5.7.8-1.507,5.517-.835,2.318-4.334-1.063-.568-2.042,3.821-5.685.787L46.5,103.343l-3.026-1.618,1.061-1.989-2.5-5.165,2.042-3.824-1.059-.568L40.7,94.518Z" transform="translate(47.449 109.131)" fill="#cf5f50"/>
            <rect id="Rectángulo_408125" data-name="Rectángulo 408125" width="2.614" height="12.719" transform="translate(90.052 202.641) rotate(-61.872)" fill="#f9cc90"/>
            <g id="Grupo_1111972" data-name="Grupo 1111972" transform="translate(56.276 260.285)" opacity="0.38">
              <g id="Grupo_1111971" data-name="Grupo 1111971">
                <g id="Grupo_1111970" data-name="Grupo 1111970" clip-path="url(#clip-path-22)">
                  <path id="Trazado_885540" data-name="Trazado 885540" d="M41.257,126.211l-11,1.6-4.8-10.039,1.578,1.887.955-.274-.015,2.031,1.426-1.145-.535,3.4,2.263-2.135L30,125.654l2.851-3.178-.946,3.284s2.338-1.784,2.425-1.9-.13.977-.13.977l1.538-.771-.385,1.938,2.579-.866-.164,1.087Z" transform="translate(-25.462 -117.768)" fill="#f2f2f2"/>
                </g>
              </g>
            </g>
            <rect id="Rectángulo_408127" data-name="Rectángulo 408127" width="1.659" height="8.267" transform="translate(73.011 252.398) rotate(-61.866)" fill="#828995"/>
            <rect id="Rectángulo_408128" data-name="Rectángulo 408128" width="1.659" height="8.268" transform="translate(62.062 246.544) rotate(-61.866)" fill="#828995"/>
            <g id="Grupo_1111975" data-name="Grupo 1111975" transform="translate(72.598 242.956)" opacity="0.24" style="mix-blend-mode: multiply;isolation: isolate">
              <g id="Grupo_1111974" data-name="Grupo 1111974">
                <g id="Grupo_1111973" data-name="Grupo 1111973" clip-path="url(#clip-path-23)">
                  <path id="Trazado_885541" data-name="Trazado 885541" d="M36.362,113.4l-3.514-1.879.849-1.589,3.09,2.672Z" transform="translate(-32.848 -109.927)" fill="#916f5d"/>
                </g>
              </g>
            </g>
            <path id="Trazado_885542" data-name="Trazado 885542" d="M170.1,61.205l-29.548,7.528-1.037-4.045,29.559-7.534Z" transform="translate(168.836 69.165)" fill="#b3b3b3"/>
            <rect id="Rectángulo_408130" data-name="Rectángulo 408130" width="26.497" height="7.1" transform="translate(282.268 138.782) rotate(-14.313)" fill="#f7bf28"/>
            <path id="Trazado_885543" data-name="Trazado 885543" d="M153.167,151.806c-1.357,4.743-4.159,7.917-9.5,6.394-4.75-1.357-5.576-5.751-4.219-10.5l22.009-77.084c1.359-4.75,4.48-15.685,9.725-14.189,9.944,2.84,8.841,14.351,7.486,19.1Z" transform="translate(168.037 68.111)" fill="#f9cc51"/>
            <path id="Trazado_885544" data-name="Trazado 885544" d="M104.116,143.659a8.783,8.783,0,0,1-7.857-12.669L125.172,72.6c1.859-4.179,7.906-10.306,16.262-10.306h74.774a8.772,8.772,0,1,1,0,17.544l-70.181,5.068-34.041,53.864a8.783,8.783,0,0,1-7.87,4.884" transform="translate(115.386 75.392)" fill="#f3ba27"/>
            <g id="Grupo_1111978" data-name="Grupo 1111978" transform="translate(215.747 142.702)" opacity="0.8" style="mix-blend-mode: multiply;isolation: isolate">
              <g id="Grupo_1111977" data-name="Grupo 1111977">
                <g id="Grupo_1111976" data-name="Grupo 1111976" clip-path="url(#clip-path-24)">
                  <path id="Trazado_885545" data-name="Trazado 885545" d="M101.37,135.9a3.761,3.761,0,0,1-3.362-5.43l28.909-58.386c1.151-2.579,5.408-7.519,11.771-7.519h74.774a3.759,3.759,0,0,1,0,7.519l-.362.011L140.4,77.35l-35.537,56.224-.113.234a3.754,3.754,0,0,1-3.379,2.093" transform="translate(-97.616 -64.567)" fill="#e9dce3"/>
                </g>
              </g>
            </g>
            <path id="Trazado_885546" data-name="Trazado 885546" d="M207.083,121.459a15.23,15.23,0,0,1-15.237,15.232H74.789a15.235,15.235,0,0,1,0-30.469H191.846a15.234,15.234,0,0,1,15.237,15.237" transform="translate(72.073 128.545)" fill="#403336"/>
            <path id="Trazado_885547" data-name="Trazado 885547" d="M72.439,130.049a10.941,10.941,0,1,1,0-21.883H189.5a10.941,10.941,0,1,1,0,21.883Z" transform="translate(74.421 130.898)" fill="#775f64"/>
            <path id="Trazado_885548" data-name="Trazado 885548" d="M69.695,122.293a5.93,5.93,0,1,1,0-11.86H186.751a5.93,5.93,0,0,1,0,11.86Z" transform="translate(77.166 133.641)" fill="#403336"/>
            <rect id="Rectángulo_408132" data-name="Rectángulo 408132" width="44.04" height="9.192" transform="translate(183.37 225.575)" fill="#3a2e30"/>
            <path id="Trazado_885549" data-name="Trazado 885549" d="M148.487,109.91a4.544,4.544,0,0,1-8.571-3.019l4.274-12.143a4.541,4.541,0,1,1,8.567,3.015Z" transform="translate(169.006 110.987)" fill="#564448"/>
            <path id="Trazado_885550" data-name="Trazado 885550" d="M124.485,107.159c1.222-3.037,11.3-28.213,14.07-24.639,1.233,1.6-.676,4.073-.6,5.366.526,2.685,3.412,5.682,5.039,7.689,5.875,7.227,11.522,13.2,18.024,20.325a4.422,4.422,0,0,1,4.144.842,4.5,4.5,0,0,1-2.212,7.906,1.688,1.688,0,0,1-.256.04c-2.86.513-6.443,1.023-9.413,1.624-4.259.873-7.046,1.731-10.987,2.1-4.038.371-19.467-17.115-17.809-21.257" transform="translate(150.496 99.442)" fill="#403336"/>
            <path id="Trazado_885551" data-name="Trazado 885551" d="M180.734,91.376v25.916a5.07,5.07,0,0,1-1.125,3.183,8.952,8.952,0,0,1-5.466,1.83H70.83a5.011,5.011,0,0,1-5.013-5.013V91.376a5.013,5.013,0,0,1,5.013-5.015h104.9a5.063,5.063,0,0,1,4.683,3.185,5.512,5.512,0,0,1,.325,1.83" transform="translate(79.649 104.51)" fill="#f7bf28"/>
            <path id="Trazado_885552" data-name="Trazado 885552" d="M139.789,107.427v-.3c-.051-1.527-.128-3.209-.228-4.986-.725-9.577-3.386-25.642-12.96-25.642H99.608v32.107c0,5.614,38.6,16.318,39.478,10.074.022-.022.022-.022.022-.049a54.119,54.119,0,0,0,.681-6.341h.022c.024-.4.024-1.808.024-1.808,0-.877-.024-1.9-.046-3.057m-4.542-.347h-.027a39.946,39.946,0,0,1-.522,4.887c0,.024,0,.024-.024.049-.679,4.814-30.478-3.459-30.478-7.8V79.433h20.853c7.391,0,9.422,12.408,10,19.8.08,1.377.126,2.679.175,3.857v.23c.027.875.027,1.677.027,2.356Z" transform="translate(120.541 92.577)" fill="#5e4a4f"/>
            <path id="Trazado_885553" data-name="Trazado 885553" d="M147.54,109.7c-.046-1.58-.122-3.311-.25-5.192-.955-12.532-4.584-30.275-17.946-30.275H102.351a5.005,5.005,0,0,0-5.01,5.013v47.722a5.01,5.01,0,0,0,5.01,5.013h40.181a4.611,4.611,0,0,0,1.675-.3,51.113,51.113,0,0,0,3.333-16.413v1.273c0-.374.049-1.43.049-2.931v-.378c0-1-.022-2.206-.049-3.53m-4.986,5.338h-.022a54.132,54.132,0,0,1-.681,6.339c0,.027,0,.027-.022.051-.877,6.244-39.478-4.462-39.478-10.074V84.18a4.93,4.93,0,0,1,4.935-4.935h22.057c.3,0,.6.022.877.046a6.968,6.968,0,0,1,1.006.177c.2.053.4.1.6.175.175.053.349.128.5.177.2.077.376.175.579.274a6.915,6.915,0,0,1,.625.356,5.425,5.425,0,0,1,.5.349,4.66,4.66,0,0,1,.579.449c2.882,2.458,4.71,6.918,5.864,11.656a16.455,16.455,0,0,1,.376,1.6c.2.8.351,1.6.473,2.4.128.7.228,1.379.329,2.055.3,2.1.524,4.111.652,5.917.1,1.777.177,3.461.228,4.988v.3c.022,1.154.046,2.179.046,3.057,0,0,0,1.4-.024,1.808" transform="translate(117.798 89.832)" fill="#564448"/>
            <g id="Grupo_1111981" data-name="Grupo 1111981" transform="translate(220.15 169.076)" opacity="0.78">
              <g id="Grupo_1111980" data-name="Grupo 1111980">
                <g id="Grupo_1111979" data-name="Grupo 1111979" clip-path="url(#clip-path-25)">
                  <path id="Trazado_885554" data-name="Trazado 885554" d="M139.835,110.483s0,1.4-.024,1.808h-.022a54.132,54.132,0,0,1-.681,6.339c0,.027,0,.027-.022.051-.877,6.244-39.478-4.462-39.478-10.074V81.435a4.93,4.93,0,0,1,4.935-4.935H126.6c.3,0,.6.022.877.046a6.992,6.992,0,0,1,1,.177,6.125,6.125,0,0,1,.6.175c.175.053.349.128.5.177a4.5,4.5,0,0,1,.579.274,4.672,4.672,0,0,1,.625.356,5.14,5.14,0,0,1,.5.349,3.2,3.2,0,0,1,.579.449c2.882,2.458,4.71,6.918,5.864,11.656.15.526.276,1.079.376,1.6.2.8.351,1.6.473,2.4.128.679.228,1.379.332,2.055.3,2.1.522,4.111.65,5.917.1,1.777.177,3.459.228,4.988v.3c.022,1.154.046,2.179.046,3.057" transform="translate(-99.609 -76.5)" fill="#7dbcd4"/>
                </g>
              </g>
            </g>
            <g id="Grupo_1111984" data-name="Grupo 1111984" transform="translate(222.98 171.035)" opacity="0.4">
              <g id="Grupo_1111983" data-name="Grupo 1111983">
                <g id="Grupo_1111982" data-name="Grupo 1111982" clip-path="url(#clip-path-26)">
                  <path id="Trazado_885555" data-name="Trazado 885555" d="M135.405,100.944v.108c-6.772-5.464-15.434-9.276-22.975-12.182a92.075,92.075,0,0,0-11.541-3.808V79.919c0-1.985,1.651-2.533,2.856-2.533h21.878c.183,0,.374.027.561.027.21.024.371.082.53.1l.159.082.3.08.318.108.61.371.374.265c1.549,1.335,3.545,4.082,5.092,10.423.161.614.272,1.092.349,1.518a24.194,24.194,0,0,1,.48,2.427c.133.716.212,1.333.32,1.921.345,2.425.561,4.445.692,6.233" transform="translate(-100.889 -77.386)" fill="#fff"/>
                </g>
              </g>
            </g>
            <path id="Trazado_885556" data-name="Trazado 885556" d="M147.545,95.013v5.561a51.194,51.194,0,0,1-3.335,16.415,7.889,7.889,0,0,1-2.754,3.488,8.954,8.954,0,0,1-5.468,1.83H97.344V86.362h5.013v10.3c0,5.614,38.6,16.32,39.473,10.076.022-.024.022-.024.022-.051a53.547,53.547,0,0,0,.679-6.339h.029c.022-.4.022-1.806.022-1.806,0-.877-.022-1.907-.051-3.057v-.3c-.049-1.529-.124-3.209-.225-4.988-.024-.225-.024-.429-.051-.654-.1-1-.2-2.082-.32-3.183h.6a5.028,5.028,0,0,1,4.763,3.461c.126,1.881.2,3.607.252,5.189" transform="translate(117.801 104.512)" fill="#564448"/>
            <g id="Grupo_1111987" data-name="Grupo 1111987" transform="translate(322.007 140.858)" opacity="0.8" style="mix-blend-mode: multiply;isolation: isolate">
              <g id="Grupo_1111986" data-name="Grupo 1111986">
                <g id="Grupo_1111985" data-name="Grupo 1111985" clip-path="url(#clip-path-27)">
                  <path id="Trazado_885557" data-name="Trazado 885557" d="M168.981,70.652,163.77,86.291,145.693,87.82l2.635-9.225,6.944-.5a8.782,8.782,0,0,0,6.768-14.364Z" transform="translate(-145.695 -63.732)" fill="#dabf9d"/>
                </g>
              </g>
            </g>
            <path id="Trazado_885558" data-name="Trazado 885558" d="M65.813,93.58H129.9v16.448L65.813,105.8l55-4V98.436l-55-2.833Z" transform="translate(79.644 113.247)" fill="#775f64"/>
            <path id="Trazado_885559" data-name="Trazado 885559" d="M67.945,89.847A1.758,1.758,0,0,0,69.7,91.6h57.051a1.755,1.755,0,1,0,0-3.51H69.7a1.754,1.754,0,0,0-1.759,1.753" transform="translate(82.224 106.608)" fill="#f8e618"/>
            <path id="Trazado_885560" data-name="Trazado 885560" d="M146.911,94.951a2.116,2.116,0,1,1-2.117-2.113,2.114,2.114,0,0,1,2.117,2.113" transform="translate(172.664 112.348)" fill="#e5e5e5"/>
            <path id="Trazado_885561" data-name="Trazado 885561" d="M145,100.339a2.114,2.114,0,1,1-2.113-2.115A2.107,2.107,0,0,1,145,100.339" transform="translate(170.35 118.866)" fill="#e5e5e5"/>
            <path id="Trazado_885562" data-name="Trazado 885562" d="M97.136,112.047l-.009-17.208,34.012,9.638v7.645Z" transform="translate(117.539 114.769)" fill="#f7bf28"/>
            <path id="Trazado_885563" data-name="Trazado 885563" d="M12.782,144.461l29.574-19.889,11.924,9.853,16.472-18.2,11.5,2.842,7.488-7.477,13.1-4.957,19.887,15,3.412,12.795,16.47,10.036Z" transform="translate(15.468 129.042)" fill="#d79266"/>
            <g id="Grupo_1111990" data-name="Grupo 1111990" transform="translate(57.824 253.614)" opacity="0.39" style="mix-blend-mode: multiply;isolation: isolate">
              <g id="Grupo_1111989" data-name="Grupo 1111989">
                <g id="Grupo_1111988" data-name="Grupo 1111988" clip-path="url(#clip-path-28)">
                  <path id="Trazado_885564" data-name="Trazado 885564" d="M26.163,114.749,33.47,131.9l4.619-7.3Z" transform="translate(-26.163 -114.749)" fill="#af9474"/>
                </g>
              </g>
            </g>
            <g id="Grupo_1111993" data-name="Grupo 1111993" transform="translate(86.221 245.266)" opacity="0.39" style="mix-blend-mode: multiply;isolation: isolate">
              <g id="Grupo_1111992" data-name="Grupo 1111992">
                <g id="Grupo_1111991" data-name="Grupo 1111991" clip-path="url(#clip-path-29)">
                  <path id="Trazado_885565" data-name="Trazado 885565" d="M39.011,110.972l8.648,13.869-3.631,14.368H54.252V121.641l-3.744-7.826Z" transform="translate(-39.011 -110.972)" fill="#af9474"/>
                </g>
              </g>
            </g>
            <g id="Grupo_1111996" data-name="Grupo 1111996" transform="translate(112.241 235.675)" opacity="0.39" style="mix-blend-mode: multiply;isolation: isolate">
              <g id="Grupo_1111995" data-name="Grupo 1111995">
                <g id="Grupo_1111994" data-name="Grupo 1111994" clip-path="url(#clip-path-30)">
                  <path id="Trazado_885566" data-name="Trazado 885566" d="M56.845,106.633l4.7,12.828-3.121,8.933,4.54,8.507-12.176,7.561h45.83l-16.47-10.036-3.412-12.795Z" transform="translate(-50.784 -106.633)" fill="#af9474"/>
                </g>
              </g>
            </g>
            <path id="Trazado_885567" data-name="Trazado 885567" d="M108.1,158.493H48.312l-2.606-38.857H110.6Z" transform="translate(55.312 144.778)" fill="#006398"/>
            <rect id="Rectángulo_408139" data-name="Rectángulo 408139" width="69.306" height="5.207" transform="translate(98.814 262.613)" fill="#004b72"/>
            <rect id="Rectángulo_408140" data-name="Rectángulo 408140" width="68.504" height="6.157" transform="translate(99.415 300.192)" fill="#b3bebf"/>
            <path id="Trazado_885568" data-name="Trazado 885568" d="M69.121,142.591a9.815,9.815,0,1,1-9.815-9.815,9.814,9.814,0,0,1,9.815,9.815" transform="translate(59.891 160.68)" fill="#ddecf4"/>
            <path id="Trazado_885569" data-name="Trazado 885569" d="M64.781,141.056a7.012,7.012,0,1,1-7.011-7.011,7.007,7.007,0,0,1,7.011,7.011" transform="translate(61.425 162.215)" fill="#becacb"/>
            <path id="Trazado_885570" data-name="Trazado 885570" d="M63.075,140.452a5.909,5.909,0,1,1-5.908-5.908,5.909,5.909,0,0,1,5.908,5.908" transform="translate(62.029 162.819)" fill="#a7b1b4"/>
            <path id="Trazado_885571" data-name="Trazado 885571" d="M57.8,138.587a2.5,2.5,0,1,1-2.5-2.5,2.5,2.5,0,0,1,2.5,2.5" transform="translate(63.894 164.684)" fill="#ddecf4"/>
            <path id="Trazado_885572" data-name="Trazado 885572" d="M82.216,142.591a9.815,9.815,0,1,1-9.815-9.815,9.814,9.814,0,0,1,9.815,9.815" transform="translate(75.738 160.68)" fill="#ddecf4"/>
            <path id="Trazado_885573" data-name="Trazado 885573" d="M77.877,141.056a7.012,7.012,0,1,1-7.011-7.011,7.008,7.008,0,0,1,7.011,7.011" transform="translate(77.273 162.215)" fill="#becacb"/>
            <path id="Trazado_885574" data-name="Trazado 885574" d="M76.17,140.452a5.909,5.909,0,1,1-5.908-5.908,5.909,5.909,0,0,1,5.908,5.908" transform="translate(77.876 162.819)" fill="#a7b1b4"/>
            <path id="Trazado_885575" data-name="Trazado 885575" d="M70.9,138.587a2.5,2.5,0,1,1-2.5-2.5,2.5,2.5,0,0,1,2.5,2.5" transform="translate(79.742 164.684)" fill="#ddecf4"/>
            <g id="Grupo_1111999" data-name="Grupo 1111999" transform="translate(113.286 297.363)" style="mix-blend-mode: multiply;isolation: isolate">
              <g id="Grupo_1111998" data-name="Grupo 1111998">
                <g id="Grupo_1111997" data-name="Grupo 1111997" clip-path="url(#clip-path-31)">
                  <path id="Trazado_885576" data-name="Trazado 885576" d="M61.709,136.672a5.912,5.912,0,0,0-8.332,8.306,5.906,5.906,0,1,1,8.332-8.306" transform="translate(-51.257 -134.543)" fill="#ccd8d9"/>
                </g>
              </g>
            </g>
            <g id="Grupo_1112002" data-name="Grupo 1112002" transform="translate(142.233 297.363)" style="mix-blend-mode: multiply;isolation: isolate">
              <g id="Grupo_1112001" data-name="Grupo 1112001">
                <g id="Grupo_1112000" data-name="Grupo 1112000" clip-path="url(#clip-path-32)">
                  <path id="Trazado_885577" data-name="Trazado 885577" d="M74.789,136.656a5.916,5.916,0,0,0-8.323,8.323,5.908,5.908,0,1,1,8.323-8.323" transform="translate(-64.354 -134.545)" fill="#ccd8d9"/>
                </g>
              </g>
            </g>
            <g id="Grupo_1112005" data-name="Grupo 1112005" transform="translate(117.734 301.803)" style="mix-blend-mode: multiply;isolation: isolate">
              <g id="Grupo_1112004" data-name="Grupo 1112004">
                <g id="Grupo_1112003" data-name="Grupo 1112003" clip-path="url(#clip-path-33)">
                  <path id="Trazado_885578" data-name="Trazado 885578" d="M57.8,138.582a2.506,2.506,0,0,1-2.509,2.5,2.479,2.479,0,0,1-2.02-1.041,2.391,2.391,0,0,0,1.465.484,2.507,2.507,0,0,0,2.5-2.509,2.44,2.44,0,0,0-.475-1.463,2.508,2.508,0,0,1,1.041,2.029" transform="translate(-53.269 -136.553)" fill="#ccd8d9"/>
                </g>
              </g>
            </g>
            <g id="Grupo_1112008" data-name="Grupo 1112008" transform="translate(146.692 301.818)" style="mix-blend-mode: multiply;isolation: isolate">
              <g id="Grupo_1112007" data-name="Grupo 1112007">
                <g id="Grupo_1112006" data-name="Grupo 1112006" clip-path="url(#clip-path-34)">
                  <path id="Trazado_885579" data-name="Trazado 885579" d="M70.883,138.573a2.506,2.506,0,0,1-2.506,2.5,2.466,2.466,0,0,1-2-1.026,2.447,2.447,0,0,0,1.448.469,2.5,2.5,0,0,0,2.04-3.956,2.49,2.49,0,0,1,1.023,2.013" transform="translate(-66.372 -136.56)" fill="#ccd8d9"/>
                </g>
              </g>
            </g>
            <path id="Trazado_885580" data-name="Trazado 885580" d="M79.868,135.142a3.921,3.921,0,0,1-3.892,3.508v2.4a6.313,6.313,0,0,0,6.295-5.91Z" transform="translate(91.943 163.543)" fill="#a7b1b4"/>
            <path id="Trazado_885581" data-name="Trazado 885581" d="M81.414,136.248a2.021,2.021,0,1,1-2.02-2.02,2.02,2.02,0,0,1,2.02,2.02" transform="translate(93.632 162.437)" fill="#878f91"/>
            <g id="Grupo_1112011" data-name="Grupo 1112011" transform="translate(114.543 298.805)" style="mix-blend-mode: multiply;isolation: isolate">
              <g id="Grupo_1112010" data-name="Grupo 1112010">
                <g id="Grupo_1112009" data-name="Grupo 1112009" clip-path="url(#clip-path-35)">
                  <path id="Trazado_885582" data-name="Trazado 885582" d="M66.3,139.6v.064a9.65,9.65,0,0,1-.493,3.072,9.817,9.817,0,0,1-2.453,3.936,10.109,10.109,0,0,1-6.88,2.8l-2.882-2.8-1.77-1.768a7.02,7.02,0,0,0,10.965-2.168A7.034,7.034,0,0,0,61.9,135.2Z" transform="translate(-51.826 -135.197)" fill="#ccd8d9"/>
                </g>
              </g>
            </g>
            <g id="Grupo_1112014" data-name="Grupo 1112014" transform="translate(143.842 299.076)" style="mix-blend-mode: multiply;isolation: isolate">
              <g id="Grupo_1112013" data-name="Grupo 1112013">
                <g id="Grupo_1112012" data-name="Grupo 1112012" clip-path="url(#clip-path-36)">
                  <path id="Trazado_885583" data-name="Trazado 885583" d="M79.2,139.516a9.812,9.812,0,0,1-9.822,9.811l-2.814-2.8-1.483-1.481a6.926,6.926,0,0,0,4.305,1.481,7,7,0,0,0,6.3-3.936,7.01,7.01,0,0,0,0-6.155A6.055,6.055,0,0,0,75,135.319l1.114,1.114Z" transform="translate(-65.082 -135.319)" fill="#ccd8d9"/>
                </g>
              </g>
            </g>
            <g id="Grupo_1112017" data-name="Grupo 1112017" transform="translate(155.735 297.027)" style="mix-blend-mode: multiply;isolation: isolate">
              <g id="Grupo_1112016" data-name="Grupo 1112016">
                <g id="Grupo_1112015" data-name="Grupo 1112015" clip-path="url(#clip-path-37)">
                  <path id="Trazado_885584" data-name="Trazado 885584" d="M79.8,143.712H72.212a9.806,9.806,0,0,0-1.748-9.32L72.7,136.62l.933.937,3.085,3.083Z" transform="translate(-70.462 -134.392)" fill="#ccd8d9"/>
                </g>
              </g>
            </g>
            <g id="Grupo_1112020" data-name="Grupo 1112020" transform="translate(127.086 297.404)" style="mix-blend-mode: multiply;isolation: isolate">
              <g id="Grupo_1112019" data-name="Grupo 1112019">
                <g id="Grupo_1112018" data-name="Grupo 1112018" clip-path="url(#clip-path-38)">
                  <path id="Trazado_885585" data-name="Trazado 885585" d="M66.45,143.505H58.955a9.662,9.662,0,0,0,.5-3.072h.064l-.064-.064a9.887,9.887,0,0,0-.5-3.019,9.627,9.627,0,0,0-1.454-2.787l2.785,2.787,3.092,3.083Z" transform="translate(-57.501 -134.561)" fill="#ccd8d9"/>
                </g>
              </g>
            </g>
            <g id="Grupo_1112023" data-name="Grupo 1112023" transform="translate(101.258 267.818)" opacity="0.15" style="mix-blend-mode: multiply;isolation: isolate">
              <g id="Grupo_1112022" data-name="Grupo 1112022">
                <g id="Grupo_1112021" data-name="Grupo 1112021" clip-path="url(#clip-path-39)">
                  <path id="Trazado_885586" data-name="Trazado 885586" d="M110.267,121.176l-.208,3.183-1.879,29.192h-4.728l-.935-.937V124.359H46.033l-.219-3.183Z" transform="translate(-45.815 -121.176)" fill="#916f5d"/>
                </g>
              </g>
            </g>
            <path id="Trazado_885587" data-name="Trazado 885587" d="M46.792,128.97l4.045-5.954,4.723,1.574,4.94-5.954H62.97l7.49-4.606,4.476,1.348,5.671-4.944,7.528,3.709,3.379-1.463,3.923,2.586,1.985,5.954,3.908-1.516,3.881,4.887,2.807,4.381Z" transform="translate(56.625 133.641)" fill="#f7bf28"/>
            <g id="Grupo_1112026" data-name="Grupo 1112026" transform="translate(135.097 244.075)" opacity="0.32" style="mix-blend-mode: multiply;isolation: isolate">
              <g id="Grupo_1112025" data-name="Grupo 1112025">
                <g id="Grupo_1112024" data-name="Grupo 1112024" clip-path="url(#clip-path-40)">
                  <path id="Trazado_885588" data-name="Trazado 885588" d="M63.261,110.433l5.167,8.763,5.74-.787-1.244,4.834-9.663,1.569-2.135,4.157H90.671l-2.807-4.381L83.981,119.7l-3.908,1.516-1.982-5.952-3.923-2.586-3.382,1.463Z" transform="translate(-61.125 -110.433)" fill="#8a8b95"/>
                </g>
              </g>
            </g>
            <rect id="Rectángulo_408151" data-name="Rectángulo 408151" width="70.281" height="3.169" transform="translate(86.22 313.086)" fill="#e7f0f6"/>
            <path id="Trazado_885589" data-name="Trazado 885589" d="M64.307,161.415,95.8,136.5h18.625l8.235,7.831,19.865-16.377,20.954,7.121,6.295-7.121,36.62,33.464Z" transform="translate(77.822 154.841)" fill="#fdb437"/>
            <g id="Grupo_1112029" data-name="Grupo 1112029" transform="translate(243.946 282.793)" opacity="0.39" style="mix-blend-mode: multiply;isolation: isolate">
              <g id="Grupo_1112028" data-name="Grupo 1112028">
                <g id="Grupo_1112027" data-name="Grupo 1112027" clip-path="url(#clip-path-41)">
                  <path id="Trazado_885590" data-name="Trazado 885590" d="M114.028,127.951l11.093,21.454-5.547,8.931-9.2.709v2.369h40.273Z" transform="translate(-110.375 -127.951)" fill="#af9474"/>
                </g>
              </g>
            </g>
            <g id="Grupo_1112032" data-name="Grupo 1112032" transform="translate(220.351 282.793)" opacity="0.39" style="mix-blend-mode: multiply;isolation: isolate">
              <g id="Grupo_1112031" data-name="Grupo 1112031">
                <g id="Grupo_1112030" data-name="Grupo 1112030" clip-path="url(#clip-path-42)">
                  <path id="Trazado_885591" data-name="Trazado 885591" d="M99.7,127.951l6.723,15.924-2.27,8.792,16.5-17.6Z" transform="translate(-99.699 -127.951)" fill="#af9474"/>
                </g>
              </g>
            </g>
            <g id="Grupo_1112035" data-name="Grupo 1112035" transform="translate(179.432 291.337)" opacity="0.39" style="mix-blend-mode: multiply;isolation: isolate">
              <g id="Grupo_1112034" data-name="Grupo 1112034">
                <g id="Grupo_1112033" data-name="Grupo 1112033" clip-path="url(#clip-path-43)">
                  <path id="Trazado_885592" data-name="Trazado 885592" d="M94,131.818l-8.991,11.208L87.849,153.8l-6.664,2.933H98.058l4.182-17.085Z" transform="translate(-81.185 -131.818)" fill="#af9474"/>
                </g>
              </g>
            </g>
            <path id="Trazado_885593" data-name="Trazado 885593" d="M100.643,135.621l33.946-14.18,10.211,7.09,13.688-15.6h14.1l32.9,19.284v3.4Z" transform="translate(121.794 136.668)" fill="#d79266"/>
            <g id="Grupo_1112038" data-name="Grupo 1112038" transform="translate(256.385 258.11)" opacity="0.39" style="mix-blend-mode: multiply;isolation: isolate">
              <g id="Grupo_1112037" data-name="Grupo 1112037">
                <g id="Grupo_1112036" data-name="Grupo 1112036" clip-path="url(#clip-path-44)">
                  <path id="Trazado_885594" data-name="Trazado 885594" d="M116,116.783l7.086,12.795,3.123-5.7Z" transform="translate(-116.003 -116.783)" fill="#af9474"/>
                </g>
              </g>
            </g>
            <g id="Grupo_1112041" data-name="Grupo 1112041" transform="translate(290.834 249.602)" opacity="0.39" style="mix-blend-mode: multiply;isolation: isolate">
              <g id="Grupo_1112040" data-name="Grupo 1112040">
                <g id="Grupo_1112039" data-name="Grupo 1112039" clip-path="url(#clip-path-45)">
                  <path id="Trazado_885595" data-name="Trazado 885595" d="M135.138,112.934l7.086,11.343-10.633,7.691,9.641,3.653h26.8v-3.4Z" transform="translate(-131.589 -112.934)" fill="#af9474"/>
                </g>
              </g>
            </g>
          </g>
        </g>
      </g>
    </g>
  </g>
</svg>
