<svg xmlns="http://www.w3.org/2000/svg" xmlns:xlink="http://www.w3.org/1999/xlink" width="521.058" height="394.805" viewBox="0 0 521.058 394.805">
  <defs>
    <clipPath id="clip-path">
      <rect id="Rectángulo_408260" data-name="Rectángulo 408260" width="452.897" height="249.057" fill="none"/>
    </clipPath>
    <clipPath id="clip-path-3">
      <rect id="Rectángulo_408159" data-name="Rectángulo 408159" width="252.242" height="92.264" fill="none"/>
    </clipPath>
    <clipPath id="clip-path-4">
      <rect id="Rectángulo_408160" data-name="Rectángulo 408160" width="200.563" height="65.715" fill="none"/>
    </clipPath>
    <clipPath id="clip-path-6">
      <rect id="Rectángulo_408165" data-name="Rectángulo 408165" width="9.34" height="9.333" fill="none"/>
    </clipPath>
    <clipPath id="clip-path-8">
      <rect id="Rectángulo_408169" data-name="Rectángulo 408169" width="9.34" height="9.342" fill="none"/>
    </clipPath>
    <clipPath id="clip-path-10">
      <rect id="Rectángulo_408179" data-name="Rectángulo 408179" width="9.336" height="9.339" fill="none"/>
    </clipPath>
    <clipPath id="clip-path-11">
      <rect id="Rectángulo_408181" data-name="Rectángulo 408181" width="9.332" height="9.339" fill="none"/>
    </clipPath>
    <clipPath id="clip-path-13">
      <rect id="Rectángulo_408190" data-name="Rectángulo 408190" width="9.343" height="9.333" fill="none"/>
    </clipPath>
    <clipPath id="clip-path-15">
      <rect id="Rectángulo_408196" data-name="Rectángulo 408196" width="9.343" height="9.339" fill="none"/>
    </clipPath>
    <clipPath id="clip-path-17">
      <rect id="Rectángulo_408202" data-name="Rectángulo 408202" width="9.105" height="22.105" fill="none"/>
    </clipPath>
    <clipPath id="clip-path-18">
      <rect id="Rectángulo_408204" data-name="Rectángulo 408204" width="9.121" height="22.105" fill="none"/>
    </clipPath>
    <clipPath id="clip-path-19">
      <rect id="Rectángulo_408206" data-name="Rectángulo 408206" width="9.117" height="22.105" fill="none"/>
    </clipPath>
    <clipPath id="clip-path-20">
      <rect id="Rectángulo_408208" data-name="Rectángulo 408208" width="9.128" height="22.105" fill="none"/>
    </clipPath>
    <clipPath id="clip-path-21">
      <rect id="Rectángulo_408210" data-name="Rectángulo 408210" width="9.124" height="22.105" fill="none"/>
    </clipPath>
    <clipPath id="clip-path-22">
      <rect id="Rectángulo_408211" data-name="Rectángulo 408211" width="9.097" height="22.105" fill="none"/>
    </clipPath>
    <clipPath id="clip-path-23">
      <rect id="Rectángulo_408213" data-name="Rectángulo 408213" width="5.883" height="5.862" fill="none"/>
    </clipPath>
    <clipPath id="clip-path-24">
      <rect id="Rectángulo_408214" data-name="Rectángulo 408214" width="2.547" height="2.544" fill="none"/>
    </clipPath>
    <clipPath id="clip-path-25">
      <rect id="Rectángulo_408215" data-name="Rectángulo 408215" width="5.887" height="5.862" fill="none"/>
    </clipPath>
    <clipPath id="clip-path-26">
      <rect id="Rectángulo_408216" data-name="Rectángulo 408216" width="2.546" height="2.544" fill="none"/>
    </clipPath>
    <clipPath id="clip-path-27">
      <rect id="Rectángulo_408218" data-name="Rectángulo 408218" width="5.884" height="5.862" fill="none"/>
    </clipPath>
    <clipPath id="clip-path-28">
      <rect id="Rectángulo_408219" data-name="Rectángulo 408219" width="2.55" height="2.544" fill="none"/>
    </clipPath>
    <clipPath id="clip-path-31">
      <rect id="Rectángulo_408222" data-name="Rectángulo 408222" width="41.707" height="20.296" fill="none"/>
    </clipPath>
    <clipPath id="clip-path-35">
      <rect id="Rectángulo_408231" data-name="Rectángulo 408231" width="9.127" height="22.105" fill="none"/>
    </clipPath>
    <clipPath id="clip-path-36">
      <rect id="Rectángulo_408233" data-name="Rectángulo 408233" width="9.125" height="22.105" fill="none"/>
    </clipPath>
    <clipPath id="clip-path-41">
      <rect id="Rectángulo_408239" data-name="Rectángulo 408239" width="2.544" height="2.544" fill="none"/>
    </clipPath>
    <clipPath id="clip-path-44">
      <rect id="Rectángulo_408243" data-name="Rectángulo 408243" width="5.886" height="5.862" fill="none"/>
    </clipPath>
    <clipPath id="clip-path-47">
      <rect id="Rectángulo_408249" data-name="Rectángulo 408249" width="8.309" height="53.271" fill="none"/>
    </clipPath>
    <clipPath id="clip-path-48">
      <rect id="Rectángulo_408252" data-name="Rectángulo 408252" width="66.155" height="8.031" fill="none"/>
    </clipPath>
    <clipPath id="clip-path-49">
      <rect id="Rectángulo_408253" data-name="Rectángulo 408253" width="37.04" height="8.031" fill="none"/>
    </clipPath>
    <clipPath id="clip-path-50">
      <rect id="Rectángulo_408254" data-name="Rectángulo 408254" width="30.441" height="84.604" fill="none"/>
    </clipPath>
    <clipPath id="clip-path-51">
      <rect id="Rectángulo_408255" data-name="Rectángulo 408255" width="73.403" height="43.557" fill="none"/>
    </clipPath>
    <clipPath id="clip-path-52">
      <rect id="Rectángulo_408256" data-name="Rectángulo 408256" width="30.962" height="34.559" fill="none"/>
    </clipPath>
    <clipPath id="clip-path-53">
      <rect id="Rectángulo_408257" data-name="Rectángulo 408257" width="13.149" height="22.409" fill="none"/>
    </clipPath>
    <clipPath id="clip-path-54">
      <rect id="Rectángulo_408258" data-name="Rectángulo 408258" width="19.386" height="23.276" fill="none"/>
    </clipPath>
  </defs>
  <g id="Grupo_1112266" data-name="Grupo 1112266" transform="translate(-228.29 -5032.488)">
    <rect id="Rectángulo_406944" data-name="Rectángulo 406944" width="521.058" height="394.804" rx="20" transform="translate(228.29 5032.488)" fill="#fbfbfb"/>
    <rect id="Ilustración" width="438" height="292" rx="20" transform="translate(270.29 5083.488)" fill="#cce5f2"/>
    <g id="Grupo_1112199" data-name="Grupo 1112199" transform="translate(265 5126.814)">
      <g id="Grupo_1112198" data-name="Grupo 1112198" clip-path="url(#clip-path)">
        <g id="Grupo_1112053" data-name="Grupo 1112053" transform="translate(0 0)">
          <g id="Grupo_1112052" data-name="Grupo 1112052" clip-path="url(#clip-path)">
            <g id="Grupo_1112048" data-name="Grupo 1112048" transform="translate(72.626 15.395)" opacity="0.62">
              <g id="Grupo_1112047" data-name="Grupo 1112047">
                <g id="Grupo_1112046" data-name="Grupo 1112046" clip-path="url(#clip-path-3)">
                  <path id="Trazado_885596" data-name="Trazado 885596" d="M272.91,46.326c-38.3-49.1-98.947-7.29-139.557,15.61-10.988,6.2-21.811,12.127-34.455,12.991C84.125,75.94,70.649,72.859,61.025,63.681c-8.08-7.707-18.048-27.629-2.94-37.174C70.2,18.849,87.963,30.915,78.206,45.262c-6.931,10.195,9.619,3.839,12.811-4.212C102.146,12.981,65.245-2.767,43.81,9.395,4.654,31.611,33.757,79.7,59.9,90.34c32.008,13.029,58.386,7.707,83.58-11.246C171.434,58.065,234,10.681,261.8,46.326c5.372,6.887,19.887,7.727,13.628-.3Z" transform="translate(-24.727 -5.241)" fill="#99d1de"/>
                </g>
              </g>
            </g>
            <g id="Grupo_1112051" data-name="Grupo 1112051" transform="translate(166.696)" opacity="0.62">
              <g id="Grupo_1112050" data-name="Grupo 1112050">
                <g id="Grupo_1112049" data-name="Grupo 1112049" clip-path="url(#clip-path-4)">
                  <path id="Trazado_885597" data-name="Trazado 885597" d="M255.995,56.76C215.643-31,125.842-4.2,63.133,51.132c-13.108,11.566-3.7,14.113,7.5,6.456,49.155-33.6,132.908-64.169,173.98-.273,7.155,11.131,16.124,11.457,11.384-.555" transform="translate(-56.757 -0.001)" fill="#99d1de"/>
                </g>
              </g>
            </g>
          </g>
        </g>
        <rect id="Rectángulo_408162" data-name="Rectángulo 408162" width="96.024" height="123.812" transform="translate(101.326 115.033)" fill="#006398"/>
        <rect id="Rectángulo_408163" data-name="Rectángulo 408163" width="9.337" height="9.334" transform="translate(122.634 121.838)" fill="#e5e5e5"/>
        <g id="Grupo_1112058" data-name="Grupo 1112058" transform="translate(0 0)">
          <g id="Grupo_1112057" data-name="Grupo 1112057" clip-path="url(#clip-path)">
            <g id="Grupo_1112056" data-name="Grupo 1112056" transform="translate(167.123 121.84)" opacity="0.6">
              <g id="Grupo_1112055" data-name="Grupo 1112055">
                <g id="Grupo_1112054" data-name="Grupo 1112054" clip-path="url(#clip-path-6)">
                  <rect id="Rectángulo_408164" data-name="Rectángulo 408164" width="9.34" height="9.334" transform="translate(-0.001 -0.002)" fill="#e5e5e5"/>
                </g>
              </g>
            </g>
          </g>
        </g>
        <rect id="Rectángulo_408167" data-name="Rectángulo 408167" width="9.343" height="9.334" transform="translate(181.951 121.838)" fill="#e5e5e5"/>
        <g id="Grupo_1112063" data-name="Grupo 1112063" transform="translate(0 0)">
          <g id="Grupo_1112062" data-name="Grupo 1112062" clip-path="url(#clip-path)">
            <g id="Grupo_1112061" data-name="Grupo 1112061" transform="translate(107.801 136.118)" opacity="0.6">
              <g id="Grupo_1112060" data-name="Grupo 1112060">
                <g id="Grupo_1112059" data-name="Grupo 1112059" clip-path="url(#clip-path-8)">
                  <rect id="Rectángulo_408168" data-name="Rectángulo 408168" width="9.34" height="9.343" transform="translate(0.001 0)" fill="#e5e5e5"/>
                </g>
              </g>
            </g>
          </g>
        </g>
        <rect id="Rectángulo_408171" data-name="Rectángulo 408171" width="9.331" height="9.343" transform="translate(137.466 136.118)" fill="#e5e5e5"/>
        <rect id="Rectángulo_408172" data-name="Rectángulo 408172" width="9.343" height="9.343" transform="translate(181.951 136.118)" fill="#e5e5e5"/>
        <rect id="Rectángulo_408173" data-name="Rectángulo 408173" width="9.337" height="9.34" transform="translate(122.634 150.404)" fill="#e5e5e5"/>
        <rect id="Rectángulo_408174" data-name="Rectángulo 408174" width="9.331" height="9.34" transform="translate(137.466 150.404)" fill="#e5e5e5"/>
        <rect id="Rectángulo_408175" data-name="Rectángulo 408175" width="9.34" height="9.34" transform="translate(107.802 164.687)" fill="#e5e5e5"/>
        <rect id="Rectángulo_408176" data-name="Rectángulo 408176" width="9.337" height="9.34" transform="translate(122.634 164.687)" fill="#e5e5e5"/>
        <rect id="Rectángulo_408177" data-name="Rectángulo 408177" width="9.34" height="9.34" transform="translate(167.121 164.687)" fill="#e5e5e5"/>
        <g id="Grupo_1112071" data-name="Grupo 1112071" transform="translate(0 0)">
          <g id="Grupo_1112070" data-name="Grupo 1112070" clip-path="url(#clip-path)">
            <g id="Grupo_1112066" data-name="Grupo 1112066" transform="translate(122.634 178.972)" opacity="0.6">
              <g id="Grupo_1112065" data-name="Grupo 1112065">
                <g id="Grupo_1112064" data-name="Grupo 1112064" clip-path="url(#clip-path-10)">
                  <rect id="Rectángulo_408178" data-name="Rectángulo 408178" width="9.337" height="9.34" transform="translate(0 -0.002)" fill="#e5e5e5"/>
                </g>
              </g>
            </g>
            <g id="Grupo_1112069" data-name="Grupo 1112069" transform="translate(137.467 178.972)" opacity="0.6">
              <g id="Grupo_1112068" data-name="Grupo 1112068">
                <g id="Grupo_1112067" data-name="Grupo 1112067" clip-path="url(#clip-path-11)">
                  <rect id="Rectángulo_408180" data-name="Rectángulo 408180" width="9.331" height="9.34" transform="translate(-0.001 -0.002)" fill="#e5e5e5"/>
                </g>
              </g>
            </g>
          </g>
        </g>
        <rect id="Rectángulo_408183" data-name="Rectángulo 408183" width="9.334" height="9.34" transform="translate(152.292 178.97)" fill="#e5e5e5"/>
        <rect id="Rectángulo_408184" data-name="Rectángulo 408184" width="9.34" height="9.343" transform="translate(107.802 193.258)" fill="#e5e5e5"/>
        <rect id="Rectángulo_408185" data-name="Rectángulo 408185" width="9.334" height="9.343" transform="translate(152.292 193.258)" fill="#e5e5e5"/>
        <rect id="Rectángulo_408186" data-name="Rectángulo 408186" width="9.34" height="9.343" transform="translate(167.121 193.258)" fill="#e5e5e5"/>
        <rect id="Rectángulo_408187" data-name="Rectángulo 408187" width="9.337" height="9.334" transform="translate(122.634 207.538)" fill="#e5e5e5"/>
        <rect id="Rectángulo_408188" data-name="Rectángulo 408188" width="9.331" height="9.334" transform="translate(137.466 207.538)" fill="#e5e5e5"/>
        <g id="Grupo_1112076" data-name="Grupo 1112076" transform="translate(0 0)">
          <g id="Grupo_1112075" data-name="Grupo 1112075" clip-path="url(#clip-path)">
            <g id="Grupo_1112074" data-name="Grupo 1112074" transform="translate(181.95 207.539)" opacity="0.6">
              <g id="Grupo_1112073" data-name="Grupo 1112073">
                <g id="Grupo_1112072" data-name="Grupo 1112072" clip-path="url(#clip-path-13)">
                  <rect id="Rectángulo_408189" data-name="Rectángulo 408189" width="9.343" height="9.334" transform="translate(0.001 -0.001)" fill="#e5e5e5"/>
                </g>
              </g>
            </g>
          </g>
        </g>
        <rect id="Rectángulo_408192" data-name="Rectángulo 408192" width="9.34" height="9.34" transform="translate(107.802 221.83)" fill="#e5e5e5"/>
        <rect id="Rectángulo_408193" data-name="Rectángulo 408193" width="9.331" height="9.34" transform="translate(137.466 221.83)" fill="#e5e5e5"/>
        <rect id="Rectángulo_408194" data-name="Rectángulo 408194" width="9.34" height="9.34" transform="translate(167.121 221.83)" fill="#e5e5e5"/>
        <g id="Grupo_1112081" data-name="Grupo 1112081" transform="translate(0 0)">
          <g id="Grupo_1112080" data-name="Grupo 1112080" clip-path="url(#clip-path)">
            <g id="Grupo_1112079" data-name="Grupo 1112079" transform="translate(181.95 221.831)" opacity="0.6">
              <g id="Grupo_1112078" data-name="Grupo 1112078">
                <g id="Grupo_1112077" data-name="Grupo 1112077" clip-path="url(#clip-path-15)">
                  <rect id="Rectángulo_408195" data-name="Rectángulo 408195" width="9.343" height="9.34" transform="translate(0.001 -0.001)" fill="#e5e5e5"/>
                </g>
              </g>
            </g>
          </g>
        </g>
        <rect id="Rectángulo_408198" data-name="Rectángulo 408198" width="20.583" height="95.214" transform="translate(305.002 56.406)" fill="#78c3d5"/>
        <g id="Grupo_1112197" data-name="Grupo 1112197" transform="translate(0 0)">
          <g id="Grupo_1112196" data-name="Grupo 1112196" clip-path="url(#clip-path)">
            <path id="Trazado_885598" data-name="Trazado 885598" d="M132.772,66.017a1.339,1.339,0,0,0,0-2.679h-1.257V29.786h1.257a1.328,1.328,0,0,0,0-2.655h-1.257V20.067h-1.6v7.064H106.139V20.067h-1.6v7.064h-1.474a1.328,1.328,0,0,0,0,2.655h1.474V63.339h-1.474a1.339,1.339,0,0,0,0,2.679h1.474V99.564h-1.474a1.336,1.336,0,0,0,0,2.673h1.474v10.512h1.6V102.237h23.773v10.512h1.6V102.237h1.257a1.336,1.336,0,0,0,0-2.673h-1.257V66.017Zm-2.861,33.547H106.136V66.017h23.775Zm0-36.226H106.136V29.786h23.775Z" transform="translate(197.074 38.871)" fill="#fff"/>
            <rect id="Rectángulo_408199" data-name="Rectángulo 408199" width="20.586" height="95.214" transform="translate(349.533 56.406)" fill="#78c3d5"/>
            <path id="Trazado_885599" data-name="Trazado 885599" d="M147.938,66.017a1.339,1.339,0,0,0,0-2.679h-1.263V29.786h1.263a1.328,1.328,0,0,0,0-2.655h-1.263V20.067H145.08v7.064H121.3V20.067h-1.6v7.064h-1.471a1.328,1.328,0,0,0,0,2.655H119.7V63.339h-1.471a1.339,1.339,0,0,0,0,2.679H119.7V99.564h-1.471a1.336,1.336,0,0,0,0,2.673H119.7v10.512h1.6V102.237H145.08v10.512h1.595V102.237h1.263a1.336,1.336,0,0,0,0-2.673h-1.263V66.017ZM145.08,99.564H121.3V66.017H145.08Zm0-36.226H121.3V29.786H145.08Z" transform="translate(226.446 38.871)" fill="#fff"/>
            <path id="Trazado_885600" data-name="Trazado 885600" d="M123.317,101.206H38.933L35.267,67.089h91.589Z" transform="translate(68.314 129.956)" fill="#87a771"/>
            <rect id="Rectángulo_408200" data-name="Rectángulo 408200" width="97.804" height="4.57" transform="translate(100.471 195.464)" fill="#9ebfb6"/>
            <rect id="Rectángulo_408201" data-name="Rectángulo 408201" width="86.793" height="4.491" transform="translate(106.26 228.394)" fill="#b3bebf"/>
            <g id="Grupo_1112084" data-name="Grupo 1112084" transform="translate(182.276 203.05)" opacity="0.45" style="mix-blend-mode: multiply;isolation: isolate">
              <g id="Grupo_1112083" data-name="Grupo 1112083">
                <g id="Grupo_1112082" data-name="Grupo 1112082" clip-path="url(#clip-path-17)">
                  <path id="Trazado_885601" data-name="Trazado 885601" d="M71.165,69.134l-2.288,22.1H62.061v-22.1Z" transform="translate(-62.061 -69.134)" fill="#8a8b95"/>
                </g>
              </g>
            </g>
            <g id="Grupo_1112087" data-name="Grupo 1112087" transform="translate(167.284 203.05)" opacity="0.45" style="mix-blend-mode: multiply;isolation: isolate">
              <g id="Grupo_1112086" data-name="Grupo 1112086">
                <g id="Grupo_1112085" data-name="Grupo 1112085" clip-path="url(#clip-path-18)">
                  <rect id="Rectángulo_408203" data-name="Rectángulo 408203" width="9.12" height="22.104" transform="translate(0.001)" fill="#8a8b95"/>
                </g>
              </g>
            </g>
            <g id="Grupo_1112090" data-name="Grupo 1112090" transform="translate(152.311 203.05)" opacity="0.45" style="mix-blend-mode: multiply;isolation: isolate">
              <g id="Grupo_1112089" data-name="Grupo 1112089">
                <g id="Grupo_1112088" data-name="Grupo 1112088" clip-path="url(#clip-path-19)">
                  <rect id="Rectángulo_408205" data-name="Rectángulo 408205" width="9.117" height="22.104" transform="translate(-0.001)" fill="#8a8b95"/>
                </g>
              </g>
            </g>
            <g id="Grupo_1112093" data-name="Grupo 1112093" transform="translate(137.319 203.05)" opacity="0.45" style="mix-blend-mode: multiply;isolation: isolate">
              <g id="Grupo_1112092" data-name="Grupo 1112092">
                <g id="Grupo_1112091" data-name="Grupo 1112091" clip-path="url(#clip-path-20)">
                  <rect id="Rectángulo_408207" data-name="Rectángulo 408207" width="9.128" height="22.104" transform="translate(0)" fill="#8a8b95"/>
                </g>
              </g>
            </g>
            <g id="Grupo_1112096" data-name="Grupo 1112096" transform="translate(122.337 203.05)" opacity="0.45" style="mix-blend-mode: multiply;isolation: isolate">
              <g id="Grupo_1112095" data-name="Grupo 1112095">
                <g id="Grupo_1112094" data-name="Grupo 1112094" clip-path="url(#clip-path-21)">
                  <rect id="Rectángulo_408209" data-name="Rectángulo 408209" width="9.122" height="22.104" transform="translate(0.001)" fill="#8a8b95"/>
                </g>
              </g>
            </g>
            <g id="Grupo_1112099" data-name="Grupo 1112099" transform="translate(107.373 203.05)" opacity="0.45" style="mix-blend-mode: multiply;isolation: isolate">
              <g id="Grupo_1112098" data-name="Grupo 1112098">
                <g id="Grupo_1112097" data-name="Grupo 1112097" clip-path="url(#clip-path-22)">
                  <path id="Trazado_885602" data-name="Trazado 885602" d="M45.654,69.134v22.1H38.943l-2.385-22.1Z" transform="translate(-36.558 -69.134)" fill="#8a8b95"/>
                </g>
              </g>
            </g>
            <rect id="Rectángulo_408212" data-name="Rectángulo 408212" width="7.704" height="6.45" transform="translate(120.593 229.866)" fill="#a7b1b4"/>
            <path id="Trazado_885603" data-name="Trazado 885603" d="M49.173,83a5.522,5.522,0,1,1-5.522-5.525A5.515,5.515,0,0,1,49.173,83" transform="translate(73.86 150.083)" fill="#cad6d6"/>
            <path id="Trazado_885604" data-name="Trazado 885604" d="M46.556,81.961a3.944,3.944,0,1,1-3.944-3.942,3.942,3.942,0,0,1,3.944,3.942" transform="translate(74.9 151.127)" fill="#becacb"/>
            <path id="Trazado_885605" data-name="Trazado 885605" d="M45.526,81.55A3.325,3.325,0,1,1,42.2,78.231a3.327,3.327,0,0,1,3.322,3.319" transform="translate(75.307 151.538)" fill="#a7b1b4"/>
            <path id="Trazado_885606" data-name="Trazado 885606" d="M42.344,80.293a1.407,1.407,0,1,1-1.407-1.413,1.4,1.4,0,0,1,1.407,1.413" transform="translate(76.572 152.795)" fill="#becacb"/>
            <g id="Grupo_1112102" data-name="Grupo 1112102" transform="translate(114.184 229.768)" style="mix-blend-mode: multiply;isolation: isolate">
              <g id="Grupo_1112101" data-name="Grupo 1112101">
                <g id="Grupo_1112100" data-name="Grupo 1112100" clip-path="url(#clip-path-23)">
                  <path id="Trazado_885607" data-name="Trazado 885607" d="M44.76,79.423a3.323,3.323,0,0,0-5.442,2.57,3.278,3.278,0,0,0,.755,2.1,3.321,3.321,0,1,1,4.688-4.67" transform="translate(-38.877 -78.23)" fill="#ccd8d9"/>
                </g>
              </g>
            </g>
            <g id="Grupo_1112105" data-name="Grupo 1112105" transform="translate(116.688 232.26)" style="mix-blend-mode: multiply;isolation: isolate">
              <g id="Grupo_1112104" data-name="Grupo 1112104">
                <g id="Grupo_1112103" data-name="Grupo 1112103" clip-path="url(#clip-path-24)">
                  <path id="Trazado_885608" data-name="Trazado 885608" d="M42.276,80.224a1.408,1.408,0,0,1-2.546.822,1.331,1.331,0,0,0,.822.264,1.406,1.406,0,0,0,1.407-1.4,1.367,1.367,0,0,0-.273-.828,1.41,1.41,0,0,1,.59,1.145" transform="translate(-39.729 -79.08)" fill="#ccd8d9"/>
                </g>
              </g>
            </g>
            <path id="Trazado_885609" data-name="Trazado 885609" d="M53.872,83a5.525,5.525,0,1,1-5.516-5.525A5.516,5.516,0,0,1,53.872,83" transform="translate(82.951 150.083)" fill="#cad6d6"/>
            <path id="Trazado_885610" data-name="Trazado 885610" d="M51.257,81.961a3.947,3.947,0,1,1-3.944-3.942,3.952,3.952,0,0,1,3.944,3.942" transform="translate(83.995 151.127)" fill="#becacb"/>
            <path id="Trazado_885611" data-name="Trazado 885611" d="M50.22,81.55a3.325,3.325,0,1,1-3.31-3.319,3.321,3.321,0,0,1,3.31,3.319" transform="translate(84.4 151.538)" fill="#a7b1b4"/>
            <path id="Trazado_885612" data-name="Trazado 885612" d="M47.043,80.293a1.408,1.408,0,1,1-1.4-1.413,1.4,1.4,0,0,1,1.4,1.413" transform="translate(85.668 152.795)" fill="#becacb"/>
            <g id="Grupo_1112108" data-name="Grupo 1112108" transform="translate(127.973 229.768)" style="mix-blend-mode: multiply;isolation: isolate">
              <g id="Grupo_1112107" data-name="Grupo 1112107">
                <g id="Grupo_1112106" data-name="Grupo 1112106" clip-path="url(#clip-path-25)">
                  <path id="Trazado_885613" data-name="Trazado 885613" d="M49.458,79.423a3.375,3.375,0,0,0-2.118-.764,3.332,3.332,0,0,0-2.579,5.434,3.324,3.324,0,1,1,4.7-4.67" transform="translate(-43.571 -78.23)" fill="#ccd8d9"/>
                </g>
              </g>
            </g>
            <g id="Grupo_1112111" data-name="Grupo 1112111" transform="translate(130.483 232.26)" style="mix-blend-mode: multiply;isolation: isolate">
              <g id="Grupo_1112110" data-name="Grupo 1112110">
                <g id="Grupo_1112109" data-name="Grupo 1112109" clip-path="url(#clip-path-26)">
                  <path id="Trazado_885614" data-name="Trazado 885614" d="M46.972,80.224a1.408,1.408,0,0,1-2.546.822,1.333,1.333,0,0,0,.825.264,1.41,1.41,0,0,0,1.4-1.4,1.367,1.367,0,0,0-.273-.828,1.4,1.4,0,0,1,.59,1.145" transform="translate(-44.427 -79.08)" fill="#ccd8d9"/>
                </g>
              </g>
            </g>
            <rect id="Rectángulo_408217" data-name="Rectángulo 408217" width="7.701" height="6.45" transform="translate(170.643 229.866)" fill="#a7b1b4"/>
            <path id="Trazado_885615" data-name="Trazado 885615" d="M66.216,83a5.523,5.523,0,1,1-5.525-5.525A5.522,5.522,0,0,1,66.216,83" transform="translate(106.867 150.083)" fill="#cad6d6"/>
            <path id="Trazado_885616" data-name="Trazado 885616" d="M63.6,81.961a3.944,3.944,0,1,1-3.944-3.942A3.942,3.942,0,0,1,63.6,81.961" transform="translate(107.908 151.127)" fill="#becacb"/>
            <path id="Trazado_885617" data-name="Trazado 885617" d="M62.569,81.55a3.326,3.326,0,1,1-3.325-3.319,3.325,3.325,0,0,1,3.325,3.319" transform="translate(108.314 151.538)" fill="#a7b1b4"/>
            <path id="Trazado_885618" data-name="Trazado 885618" d="M59.386,80.293a1.407,1.407,0,1,1-1.41-1.413,1.406,1.406,0,0,1,1.41,1.413" transform="translate(109.583 152.795)" fill="#becacb"/>
            <g id="Grupo_1112114" data-name="Grupo 1112114" transform="translate(164.23 229.768)" style="mix-blend-mode: multiply;isolation: isolate">
              <g id="Grupo_1112113" data-name="Grupo 1112113">
                <g id="Grupo_1112112" data-name="Grupo 1112112" clip-path="url(#clip-path-27)">
                  <path id="Trazado_885619" data-name="Trazado 885619" d="M61.8,79.423a3.319,3.319,0,0,0-5.436,2.57,3.26,3.26,0,0,0,.752,2.1,3.32,3.32,0,1,1,4.685-4.67" transform="translate(-55.916 -78.23)" fill="#ccd8d9"/>
                </g>
              </g>
            </g>
            <g id="Grupo_1112117" data-name="Grupo 1112117" transform="translate(166.735 232.26)" style="mix-blend-mode: multiply;isolation: isolate">
              <g id="Grupo_1112116" data-name="Grupo 1112116">
                <g id="Grupo_1112115" data-name="Grupo 1112115" clip-path="url(#clip-path-28)">
                  <path id="Trazado_885620" data-name="Trazado 885620" d="M59.319,80.224a1.41,1.41,0,0,1-2.549.822,1.337,1.337,0,0,0,.822.264,1.407,1.407,0,0,0,1.41-1.4,1.387,1.387,0,0,0-.273-.828,1.41,1.41,0,0,1,.59,1.145" transform="translate(-56.769 -79.08)" fill="#ccd8d9"/>
                </g>
              </g>
            </g>
            <path id="Trazado_885621" data-name="Trazado 885621" d="M70.925,83a5.532,5.532,0,1,1-5.533-5.525A5.525,5.525,0,0,1,70.925,83" transform="translate(115.954 150.083)" fill="#cad6d6"/>
            <path id="Trazado_885622" data-name="Trazado 885622" d="M68.3,81.961a3.947,3.947,0,1,1-3.95-3.942,3.951,3.951,0,0,1,3.95,3.942" transform="translate(117 151.127)" fill="#becacb"/>
            <path id="Trazado_885623" data-name="Trazado 885623" d="M67.262,81.55a3.325,3.325,0,1,1-3.328-3.319,3.326,3.326,0,0,1,3.328,3.319" transform="translate(117.411 151.538)" fill="#a7b1b4"/>
            <path id="Trazado_885624" data-name="Trazado 885624" d="M64.085,80.293a1.41,1.41,0,1,1-1.413-1.413,1.4,1.4,0,0,1,1.413,1.413" transform="translate(118.674 152.795)" fill="#becacb"/>
            <g id="Grupo_1112120" data-name="Grupo 1112120" transform="translate(178.019 229.768)" style="mix-blend-mode: multiply;isolation: isolate">
              <g id="Grupo_1112119" data-name="Grupo 1112119">
                <g id="Grupo_1112118" data-name="Grupo 1112118" clip-path="url(#clip-path-27)">
                  <path id="Trazado_885625" data-name="Trazado 885625" d="M66.5,79.423a3.319,3.319,0,0,0-5.436,2.57,3.276,3.276,0,0,0,.752,2.1,3.32,3.32,0,1,1,4.685-4.67" transform="translate(-60.612 -78.23)" fill="#ccd8d9"/>
                </g>
              </g>
            </g>
            <g id="Grupo_1112123" data-name="Grupo 1112123" transform="translate(180.527 232.26)" style="mix-blend-mode: multiply;isolation: isolate">
              <g id="Grupo_1112122" data-name="Grupo 1112122">
                <g id="Grupo_1112121" data-name="Grupo 1112121" clip-path="url(#clip-path-28)">
                  <path id="Trazado_885626" data-name="Trazado 885626" d="M64.014,80.224a1.41,1.41,0,0,1-2.549.822,1.328,1.328,0,0,0,.819.264,1.41,1.41,0,0,0,1.413-1.4,1.424,1.424,0,0,0-.27-.828,1.4,1.4,0,0,1,.587,1.145" transform="translate(-61.466 -79.08)" fill="#ccd8d9"/>
                </g>
              </g>
            </g>
            <path id="Trazado_885627" data-name="Trazado 885627" d="M35.737,79.936l5.707-6.523,6.667,1.724,6.973-6.52h3.489L69.14,63.568l6.318,1.483,8-5.41,10.629,4.05L98.854,62.1l5.536,2.831,2.8,6.514,5.516-1.659,5.481,5.351,3.968,4.8Z" transform="translate(69.224 115.528)" fill="#5e4b4e"/>
            <g id="Grupo_1112126" data-name="Grupo 1112126" transform="translate(149.674 175.168)" opacity="0.45" style="mix-blend-mode: multiply;isolation: isolate">
              <g id="Grupo_1112125" data-name="Grupo 1112125">
                <g id="Grupo_1112124" data-name="Grupo 1112124" clip-path="url(#clip-path-31)">
                  <path id="Trazado_885628" data-name="Trazado 885628" d="M53.971,59.641l7.293,9.589,8.1-.861-1.756,5.287-13.64,1.721-3.01,4.558H92.667l-3.968-4.8-5.481-5.351-5.513,1.662L74.9,64.93,69.367,62.1,64.6,63.691Z" transform="translate(-50.961 -59.641)" fill="#8a8b95"/>
                </g>
              </g>
            </g>
            <path id="Trazado_885629" data-name="Trazado 885629" d="M89.11,101.206H4.728L1.06,67.089H92.649Z" transform="translate(2.053 129.956)" fill="#87a771"/>
            <rect id="Rectángulo_408223" data-name="Rectángulo 408223" width="97.804" height="4.57" transform="translate(0 195.464)" fill="#9ebfb6"/>
            <rect id="Rectángulo_408224" data-name="Rectángulo 408224" width="86.793" height="4.491" transform="translate(5.792 228.394)" fill="#b3bebf"/>
            <g id="Grupo_1112129" data-name="Grupo 1112129" transform="translate(81.806 203.05)" opacity="0.45" style="mix-blend-mode: multiply;isolation: isolate">
              <g id="Grupo_1112128" data-name="Grupo 1112128">
                <g id="Grupo_1112127" data-name="Grupo 1112127" clip-path="url(#clip-path-17)">
                  <path id="Trazado_885630" data-name="Trazado 885630" d="M36.958,69.134l-2.288,22.1H27.853v-22.1Z" transform="translate(-27.853 -69.134)" fill="#8a8b95"/>
                </g>
              </g>
            </g>
            <g id="Grupo_1112132" data-name="Grupo 1112132" transform="translate(66.815 203.05)" opacity="0.45" style="mix-blend-mode: multiply;isolation: isolate">
              <g id="Grupo_1112131" data-name="Grupo 1112131">
                <g id="Grupo_1112130" data-name="Grupo 1112130" clip-path="url(#clip-path-18)">
                  <rect id="Rectángulo_408226" data-name="Rectángulo 408226" width="9.12" height="22.104" transform="translate(0.003)" fill="#8a8b95"/>
                </g>
              </g>
            </g>
            <g id="Grupo_1112135" data-name="Grupo 1112135" transform="translate(51.842 203.05)" opacity="0.45" style="mix-blend-mode: multiply;isolation: isolate">
              <g id="Grupo_1112134" data-name="Grupo 1112134">
                <g id="Grupo_1112133" data-name="Grupo 1112133" clip-path="url(#clip-path-19)">
                  <rect id="Rectángulo_408228" data-name="Rectángulo 408228" width="9.117" height="22.104" transform="translate(0)" fill="#8a8b95"/>
                </g>
              </g>
            </g>
            <g id="Grupo_1112138" data-name="Grupo 1112138" transform="translate(36.851 203.05)" opacity="0.45" style="mix-blend-mode: multiply;isolation: isolate">
              <g id="Grupo_1112137" data-name="Grupo 1112137">
                <g id="Grupo_1112136" data-name="Grupo 1112136" clip-path="url(#clip-path-35)">
                  <rect id="Rectángulo_408230" data-name="Rectángulo 408230" width="9.125" height="22.104" transform="translate(0)" fill="#8a8b95"/>
                </g>
              </g>
            </g>
            <g id="Grupo_1112141" data-name="Grupo 1112141" transform="translate(21.867 203.05)" opacity="0.45" style="mix-blend-mode: multiply;isolation: isolate">
              <g id="Grupo_1112140" data-name="Grupo 1112140">
                <g id="Grupo_1112139" data-name="Grupo 1112139" clip-path="url(#clip-path-36)">
                  <rect id="Rectángulo_408232" data-name="Rectángulo 408232" width="9.125" height="22.104" transform="translate(-0.001)" fill="#8a8b95"/>
                </g>
              </g>
            </g>
            <g id="Grupo_1112144" data-name="Grupo 1112144" transform="translate(6.904 203.05)" opacity="0.45" style="mix-blend-mode: multiply;isolation: isolate">
              <g id="Grupo_1112143" data-name="Grupo 1112143">
                <g id="Grupo_1112142" data-name="Grupo 1112142" clip-path="url(#clip-path-22)">
                  <path id="Trazado_885631" data-name="Trazado 885631" d="M11.447,69.134v22.1H4.736l-2.385-22.1Z" transform="translate(-2.35 -69.134)" fill="#8a8b95"/>
                </g>
              </g>
            </g>
            <rect id="Rectángulo_408235" data-name="Rectángulo 408235" width="7.701" height="6.45" transform="translate(20.128 229.866)" fill="#a7b1b4"/>
            <path id="Trazado_885632" data-name="Trazado 885632" d="M14.965,83A5.522,5.522,0,1,1,9.447,77.48,5.515,5.515,0,0,1,14.965,83" transform="translate(7.597 150.083)" fill="#cad6d6"/>
            <path id="Trazado_885633" data-name="Trazado 885633" d="M12.347,81.961A3.943,3.943,0,1,1,8.4,78.019a3.942,3.942,0,0,1,3.944,3.942" transform="translate(8.641 151.127)" fill="#becacb"/>
            <path id="Trazado_885634" data-name="Trazado 885634" d="M11.319,81.55A3.325,3.325,0,1,1,8,78.231a3.327,3.327,0,0,1,3.322,3.319" transform="translate(9.046 151.538)" fill="#a7b1b4"/>
            <path id="Trazado_885635" data-name="Trazado 885635" d="M8.139,80.293a1.408,1.408,0,0,1-2.817,0,1.408,1.408,0,1,1,2.817,0" transform="translate(10.309 152.795)" fill="#becacb"/>
            <g id="Grupo_1112147" data-name="Grupo 1112147" transform="translate(13.714 229.768)" style="mix-blend-mode: multiply;isolation: isolate">
              <g id="Grupo_1112146" data-name="Grupo 1112146">
                <g id="Grupo_1112145" data-name="Grupo 1112145" clip-path="url(#clip-path-23)">
                  <path id="Trazado_885636" data-name="Trazado 885636" d="M10.552,79.423a3.323,3.323,0,0,0-5.442,2.57,3.278,3.278,0,0,0,.755,2.1,3.321,3.321,0,1,1,4.688-4.67" transform="translate(-4.67 -78.23)" fill="#ccd8d9"/>
                </g>
              </g>
            </g>
            <g id="Grupo_1112150" data-name="Grupo 1112150" transform="translate(16.22 232.26)" style="mix-blend-mode: multiply;isolation: isolate">
              <g id="Grupo_1112149" data-name="Grupo 1112149">
                <g id="Grupo_1112148" data-name="Grupo 1112148" clip-path="url(#clip-path-26)">
                  <path id="Trazado_885637" data-name="Trazado 885637" d="M8.068,80.224a1.408,1.408,0,0,1-2.546.822,1.331,1.331,0,0,0,.822.264,1.406,1.406,0,0,0,1.407-1.4,1.367,1.367,0,0,0-.273-.828,1.41,1.41,0,0,1,.59,1.145" transform="translate(-5.523 -79.08)" fill="#ccd8d9"/>
                </g>
              </g>
            </g>
            <path id="Trazado_885638" data-name="Trazado 885638" d="M19.664,83a5.525,5.525,0,1,1-5.516-5.525A5.516,5.516,0,0,1,19.664,83" transform="translate(16.688 150.083)" fill="#cad6d6"/>
            <path id="Trazado_885639" data-name="Trazado 885639" d="M17.049,81.961A3.947,3.947,0,1,1,13.1,78.019a3.952,3.952,0,0,1,3.944,3.942" transform="translate(17.732 151.127)" fill="#becacb"/>
            <path id="Trazado_885640" data-name="Trazado 885640" d="M16.013,81.55A3.325,3.325,0,1,1,12.7,78.231a3.321,3.321,0,0,1,3.313,3.319" transform="translate(18.139 151.538)" fill="#a7b1b4"/>
            <path id="Trazado_885641" data-name="Trazado 885641" d="M12.835,80.293a1.408,1.408,0,1,1-1.4-1.413,1.4,1.4,0,0,1,1.4,1.413" transform="translate(19.405 152.795)" fill="#becacb"/>
            <g id="Grupo_1112153" data-name="Grupo 1112153" transform="translate(27.503 229.768)" style="mix-blend-mode: multiply;isolation: isolate">
              <g id="Grupo_1112152" data-name="Grupo 1112152">
                <g id="Grupo_1112151" data-name="Grupo 1112151" clip-path="url(#clip-path-25)">
                  <path id="Trazado_885642" data-name="Trazado 885642" d="M15.251,79.423a3.375,3.375,0,0,0-2.118-.764,3.327,3.327,0,0,0-3.325,3.334,3.29,3.29,0,0,0,.749,2.1,3.323,3.323,0,1,1,4.693-4.67" transform="translate(-9.363 -78.23)" fill="#ccd8d9"/>
                </g>
              </g>
            </g>
            <g id="Grupo_1112156" data-name="Grupo 1112156" transform="translate(30.014 232.26)" style="mix-blend-mode: multiply;isolation: isolate">
              <g id="Grupo_1112155" data-name="Grupo 1112155">
                <g id="Grupo_1112154" data-name="Grupo 1112154" clip-path="url(#clip-path-41)">
                  <path id="Trazado_885643" data-name="Trazado 885643" d="M12.762,80.224a1.406,1.406,0,0,1-2.543.822,1.319,1.319,0,0,0,.822.264,1.41,1.41,0,0,0,1.4-1.4,1.367,1.367,0,0,0-.273-.828,1.4,1.4,0,0,1,.59,1.145" transform="translate(-10.22 -79.08)" fill="#ccd8d9"/>
                </g>
              </g>
            </g>
            <rect id="Rectángulo_408240" data-name="Rectángulo 408240" width="7.701" height="6.45" transform="translate(70.175 229.866)" fill="#a7b1b4"/>
            <path id="Trazado_885644" data-name="Trazado 885644" d="M32.011,83a5.525,5.525,0,1,1-5.525-5.525A5.522,5.522,0,0,1,32.011,83" transform="translate(40.605 150.083)" fill="#cad6d6"/>
            <path id="Trazado_885645" data-name="Trazado 885645" d="M29.389,81.961a3.944,3.944,0,1,1-3.944-3.942,3.942,3.942,0,0,1,3.944,3.942" transform="translate(41.647 151.127)" fill="#becacb"/>
            <path id="Trazado_885646" data-name="Trazado 885646" d="M28.364,81.55a3.328,3.328,0,1,1-3.325-3.319,3.325,3.325,0,0,1,3.325,3.319" transform="translate(42.052 151.538)" fill="#a7b1b4"/>
            <path id="Trazado_885647" data-name="Trazado 885647" d="M25.178,80.293a1.407,1.407,0,1,1-1.407-1.413,1.405,1.405,0,0,1,1.407,1.413" transform="translate(43.32 152.795)" fill="#becacb"/>
            <g id="Grupo_1112159" data-name="Grupo 1112159" transform="translate(63.761 229.768)" style="mix-blend-mode: multiply;isolation: isolate">
              <g id="Grupo_1112158" data-name="Grupo 1112158">
                <g id="Grupo_1112157" data-name="Grupo 1112157" clip-path="url(#clip-path-27)">
                  <path id="Trazado_885648" data-name="Trazado 885648" d="M27.592,79.423a3.319,3.319,0,0,0-5.436,2.57,3.246,3.246,0,0,0,.755,2.1,3.319,3.319,0,1,1,4.682-4.67" transform="translate(-21.709 -78.23)" fill="#ccd8d9"/>
                </g>
              </g>
            </g>
            <g id="Grupo_1112162" data-name="Grupo 1112162" transform="translate(66.266 232.26)" style="mix-blend-mode: multiply;isolation: isolate">
              <g id="Grupo_1112161" data-name="Grupo 1112161">
                <g id="Grupo_1112160" data-name="Grupo 1112160" clip-path="url(#clip-path-28)">
                  <path id="Trazado_885649" data-name="Trazado 885649" d="M25.111,80.224a1.41,1.41,0,0,1-2.549.822,1.345,1.345,0,0,0,.825.264,1.4,1.4,0,0,0,1.137-2.232,1.415,1.415,0,0,1,.587,1.145" transform="translate(-22.562 -79.08)" fill="#ccd8d9"/>
                </g>
              </g>
            </g>
            <path id="Trazado_885650" data-name="Trazado 885650" d="M36.718,83a5.532,5.532,0,1,1-5.533-5.525A5.525,5.525,0,0,1,36.718,83" transform="translate(49.693 150.083)" fill="#cad6d6"/>
            <path id="Trazado_885651" data-name="Trazado 885651" d="M34.089,81.961a3.947,3.947,0,1,1-3.95-3.942,3.951,3.951,0,0,1,3.95,3.942" transform="translate(50.739 151.127)" fill="#becacb"/>
            <path id="Trazado_885652" data-name="Trazado 885652" d="M33.055,81.55a3.325,3.325,0,1,1-3.328-3.319,3.326,3.326,0,0,1,3.328,3.319" transform="translate(51.148 151.538)" fill="#a7b1b4"/>
            <path id="Trazado_885653" data-name="Trazado 885653" d="M29.876,80.293a1.408,1.408,0,1,1-1.413-1.413,1.4,1.4,0,0,1,1.413,1.413" transform="translate(52.415 152.795)" fill="#becacb"/>
            <g id="Grupo_1112165" data-name="Grupo 1112165" transform="translate(77.549 229.768)" style="mix-blend-mode: multiply;isolation: isolate">
              <g id="Grupo_1112164" data-name="Grupo 1112164">
                <g id="Grupo_1112163" data-name="Grupo 1112163" clip-path="url(#clip-path-44)">
                  <path id="Trazado_885654" data-name="Trazado 885654" d="M32.29,79.423a3.319,3.319,0,0,0-5.437,2.57,3.273,3.273,0,0,0,.749,2.1,3.321,3.321,0,1,1,4.688-4.67" transform="translate(-26.403 -78.23)" fill="#ccd8d9"/>
                </g>
              </g>
            </g>
            <g id="Grupo_1112168" data-name="Grupo 1112168" transform="translate(80.058 232.26)" style="mix-blend-mode: multiply;isolation: isolate">
              <g id="Grupo_1112167" data-name="Grupo 1112167">
                <g id="Grupo_1112166" data-name="Grupo 1112166" clip-path="url(#clip-path-28)">
                  <path id="Trazado_885655" data-name="Trazado 885655" d="M29.807,80.224a1.41,1.41,0,0,1-2.549.822,1.322,1.322,0,0,0,.819.264,1.4,1.4,0,0,0,1.143-2.232,1.407,1.407,0,0,1,.587,1.145" transform="translate(-27.257 -79.08)" fill="#ccd8d9"/>
                </g>
              </g>
            </g>
            <path id="Trazado_885656" data-name="Trazado 885656" d="M1.529,79.936l5.707-6.523L13.9,75.137l6.973-6.52h3.492l10.568-5.049,6.315,1.483,8-5.41,10.632,4.05L64.65,62.1l5.536,2.831,2.8,6.514L78.5,69.786l5.483,5.351,3.968,4.8Z" transform="translate(2.962 115.528)" fill="#5e4b4e"/>
            <g id="Grupo_1112171" data-name="Grupo 1112171" transform="translate(49.204 175.168)" opacity="0.45" style="mix-blend-mode: multiply;isolation: isolate">
              <g id="Grupo_1112170" data-name="Grupo 1112170">
                <g id="Grupo_1112169" data-name="Grupo 1112169" clip-path="url(#clip-path-31)">
                  <path id="Trazado_885657" data-name="Trazado 885657" d="M19.763,59.641l7.293,9.589,8.106-.861L33.4,73.656l-13.64,1.721-3.01,4.558H58.459l-3.968-4.8L49.01,69.785,43.5,71.448,40.7,64.93,35.162,62.1,30.4,63.691Z" transform="translate(-16.753 -59.641)" fill="#8a8b95"/>
                </g>
              </g>
            </g>
            <path id="Trazado_885658" data-name="Trazado 885658" d="M73.245,46.864V151.221H264.562V46.864H73.245Z" transform="translate(141.879 90.779)" fill="#f7ba28"/>
            <rect id="Rectángulo_408246" data-name="Rectángulo 408246" width="157.952" height="15.105" transform="translate(234.501 157.394)" fill="#006398"/>
            <rect id="Rectángulo_408247" data-name="Rectángulo 408247" width="157.952" height="15.102" transform="translate(234.501 186.527)" fill="#006398"/>
            <rect id="Rectángulo_408248" data-name="Rectángulo 408248" width="30.404" height="84.611" transform="translate(184.72 157.391)" fill="#f7bf28"/>
            <g id="Grupo_1112174" data-name="Grupo 1112174" transform="translate(176.368 185.325)" opacity="0.8" style="mix-blend-mode: multiply;isolation: isolate">
              <g id="Grupo_1112173" data-name="Grupo 1112173">
                <g id="Grupo_1112172" data-name="Grupo 1112172" clip-path="url(#clip-path-47)">
                  <path id="Trazado_885659" data-name="Trazado 885659" d="M68.358,65.822V115.17a5.251,5.251,0,0,1-3.392,1.2,5.416,5.416,0,0,1-4.458-2.291,2.755,2.755,0,0,1-.458-.749l1.386-48.99L65.571,63.1Z" transform="translate(-60.05 -63.098)" fill="#8a8b95"/>
                </g>
              </g>
            </g>
            <rect id="Rectángulo_408250" data-name="Rectángulo 408250" width="33.303" height="24.715" transform="translate(181.821 157.391)" fill="#87a771"/>
            <rect id="Rectángulo_408251" data-name="Rectángulo 408251" width="93.475" height="3.375" transform="translate(91.243 238.615)" fill="#7d6467"/>
            <g id="Grupo_1112177" data-name="Grupo 1112177" transform="translate(237.249 161.263)" opacity="0.37">
              <g id="Grupo_1112176" data-name="Grupo 1112176">
                <g id="Grupo_1112175" data-name="Grupo 1112175" clip-path="url(#clip-path-48)">
                  <path id="Trazado_885660" data-name="Trazado 885660" d="M146.935,54.906l-8.033,8.03H80.777v-8.03Z" transform="translate(-80.779 -54.906)" fill="#f2f2f2"/>
                </g>
              </g>
            </g>
            <g id="Grupo_1112180" data-name="Grupo 1112180" transform="translate(237.249 190.384)" opacity="0.37">
              <g id="Grupo_1112179" data-name="Grupo 1112179">
                <g id="Grupo_1112178" data-name="Grupo 1112178" clip-path="url(#clip-path-49)">
                  <path id="Trazado_885661" data-name="Trazado 885661" d="M117.817,64.821l-8.033,8.03H80.778v-8.03Z" transform="translate(-80.777 -64.821)" fill="#f2f2f2"/>
                </g>
              </g>
            </g>
            <g id="Grupo_1112183" data-name="Grupo 1112183" transform="translate(184.703 157.397)" opacity="0.37" style="mix-blend-mode: multiply;isolation: isolate">
              <g id="Grupo_1112182" data-name="Grupo 1112182">
                <g id="Grupo_1112181" data-name="Grupo 1112181" clip-path="url(#clip-path-50)">
                  <path id="Trazado_885662" data-name="Trazado 885662" d="M93.327,53.59v84.6H84.716V84.5H62.888v-6.2H84.716V53.59Z" transform="translate(-62.887 -53.59)" fill="#8a8b95"/>
                </g>
              </g>
            </g>
            <path id="Trazado_885663" data-name="Trazado 885663" d="M81.92,113l27.964-20.78,6.526,4.309,11.234-3.254,11.977,4.608,27.13-19.443L197.714,95.43l35.444-25.99,21.423,9L267.437,94.5,281.9,90.965,294.214,113Z" transform="translate(158.684 134.509)" fill="#e5e5e5"/>
            <path id="Trazado_885664" data-name="Trazado 885664" d="M164.343,98.318,146.206,82.666,134.49,90.494,121.341,77.635,109.2,84.8,89.812,76.769l-25.4,10.779L56.05,82.666,34.821,99.66l129.521.69Z" transform="translate(67.451 148.705)" fill="#e5e5e5"/>
            <g id="Grupo_1112186" data-name="Grupo 1112186" transform="translate(379.494 203.948)" opacity="0.45" style="mix-blend-mode: multiply;isolation: isolate">
              <g id="Grupo_1112185" data-name="Grupo 1112185">
                <g id="Grupo_1112184" data-name="Grupo 1112184" clip-path="url(#clip-path-51)">
                  <path id="Trazado_885665" data-name="Trazado 885665" d="M141.559,69.44,154.45,84.877l-5.39,13.39L132.992,99.6,129.209,113h73.406L190.3,90.965l-11.78,9.713-2.679-6.18L162.982,78.436Z" transform="translate(-129.21 -69.44)" fill="#8ac7cb"/>
                </g>
              </g>
            </g>
            <g id="Grupo_1112189" data-name="Grupo 1112189" transform="translate(325.435 212.946)" opacity="0.45" style="mix-blend-mode: multiply;isolation: isolate">
              <g id="Grupo_1112188" data-name="Grupo 1112188">
                <g id="Grupo_1112187" data-name="Grupo 1112187" clip-path="url(#clip-path-52)">
                  <path id="Trazado_885666" data-name="Trazado 885666" d="M110.8,72.5l13.657,22.592-6.829,11.969h20.483l3.651-17.569Z" transform="translate(-110.803 -72.503)" fill="#8ac7cb"/>
                </g>
              </g>
            </g>
            <g id="Grupo_1112192" data-name="Grupo 1112192" transform="translate(188.793 226.34)" opacity="0.45" style="mix-blend-mode: multiply;isolation: isolate">
              <g id="Grupo_1112191" data-name="Grupo 1112191">
                <g id="Grupo_1112190" data-name="Grupo 1112190" clip-path="url(#clip-path-53)">
                  <path id="Trazado_885667" data-name="Trazado 885667" d="M64.28,77.064l7.275,22.41h5.874V89.922Z" transform="translate(-64.28 -77.064)" fill="#8ac7cb"/>
                </g>
              </g>
            </g>
            <g id="Grupo_1112195" data-name="Grupo 1112195" transform="translate(157.261 225.474)" opacity="0.45" style="mix-blend-mode: multiply;isolation: isolate">
              <g id="Grupo_1112194" data-name="Grupo 1112194">
                <g id="Grupo_1112193" data-name="Grupo 1112193" clip-path="url(#clip-path-54)">
                  <path id="Trazado_885668" data-name="Trazado 885668" d="M53.544,76.769l9.772,12.224-3.157,11.052h10L72.931,84.8Z" transform="translate(-53.544 -76.769)" fill="#8ac7cb"/>
                </g>
              </g>
            </g>
          </g>
        </g>
      </g>
    </g>
  </g>
</svg>
